<svg xmlns="http://www.w3.org/2000/svg" width="32" height="32" viewBox="0 0 32 32">
  <g id="check2" transform="translate(-393 -1515)">
    <circle id="PP" cx="16" cy="16" r="16" transform="translate(393 1515)" fill="#ff974a"/>
    <path id="Shape" d="M2.566,10.333l1.517,1.214a.667.667,0,1,1-.833,1.041l-3-2.4A.663.663,0,0,1,0,9.679s0-.008,0-.013a.666.666,0,0,1,.038-.222h0l.006-.015a.65.65,0,0,1,.106-.183.671.671,0,0,1,.118-.113L3.25,6.746a.667.667,0,1,1,.833,1.041L2.567,9h5.6a3.833,3.833,0,0,0,0-7.667h-4.5A.667.667,0,1,1,3.667,0h4.5a5.167,5.167,0,0,1,0,10.333Z" transform="translate(402.333 1525)" fill="#fff"/>
  </g>
</svg>
