<svg xmlns="http://www.w3.org/2000/svg" width="32" height="32" viewBox="0 0 32 32">
  <g id="check3" transform="translate(-393 -1577)">
    <circle id="PP" cx="16" cy="16" r="16" transform="translate(393 1577)" fill="#50b5ff"/>
    <path id="Shape" d="M6,11.334A.667.667,0,0,1,6,10h4a2.1,2.1,0,0,0,2-2.191V3.524a2.1,2.1,0,0,0-2-2.191H4A.666.666,0,0,1,4,0h6a3.432,3.432,0,0,1,3.334,3.524V7.809A3.432,3.432,0,0,1,10,11.334ZM2.667,8a.667.667,0,1,1,0-1.334H10A.667.667,0,1,1,10,8Zm-2-3.334a.666.666,0,1,1,0-1.333H10a.666.666,0,1,1,0,1.333Z" transform="translate(402.333 1587.667)" fill="#fff"/>
  </g>
</svg>
