<svg xmlns="http://www.w3.org/2000/svg" width="18.001" height="19.004"><path data-name="Shape 62" d="M8.877 19a4.291 4.291 0 0 1-4.347-4.209V10.23H.73a.732.732 0 0 1 0-1.464h3.8V4.225A4.3 4.3 0 0 1 8.887 0h4.777A4.29 4.29 0 0 1 18 4.219v10.566A4.288 4.288 0 0 1 13.643 19H8.877Zm1.722-8.769-1.566 1.52a.721.721 0 0 0-.02 1.017l.02.02a.786.786 0 0 0 1.067 0l2.858-2.766a.708.708 0 0 0 .036-1l-.036-.036L10.1 6.22a.772.772 0 0 0-1.067 0 .719.719 0 0 0-.02 1.016l.02.02 1.566 1.511H4.533v1.463Z" fill="#3a3a3a" opacity=".697"/></svg>