<svg xmlns="http://www.w3.org/2000/svg" width="18.996" height="20.001"><path data-name="Shape 61" d="M10.201 19.997h-1.4a2.066 2.066 0 0 1-2.123-2v-.044a1.9 1.9 0 0 0-1.883-1.82 1.581 1.581 0 0 0-.9.23 2.167 2.167 0 0 1-1.084.3 2.123 2.123 0 0 1-1.817-1.04l-.7-1.2a2 2 0 0 1-.021-2.05 2.108 2.108 0 0 1 .817-.789 1.653 1.653 0 0 0 .644-.64 1.781 1.781 0 0 0 .19-1.365 1.837 1.837 0 0 0-.859-1.136 2.045 2.045 0 0 1-.784-2.784l.027-.046.686-1.18a2.124 2.124 0 0 1 2.883-.76 1.9 1.9 0 0 0 .9.224 1.96 1.96 0 0 0 1.665-.914 1.539 1.539 0 0 0 .236-.88 1.788 1.788 0 0 1 .286-1.06A2.2 2.2 0 0 1 8.772-.003h1.442a2.155 2.155 0 0 1 1.821 1.04 1.781 1.781 0 0 1 .275 1.06 1.545 1.545 0 0 0 .235.88 1.965 1.965 0 0 0 1.673.914 1.926 1.926 0 0 0 .9-.224 2.112 2.112 0 0 1 2.873.76l.684 1.18a2.027 2.027 0 0 1-.674 2.79l-.079.045a1.83 1.83 0 0 0-.853 1.138 1.771 1.771 0 0 0 .2 1.362 1.572 1.572 0 0 0 .634.64 2.307 2.307 0 0 1 .828.789 2.03 2.03 0 0 1-.02 2.05l-.715 1.2a2.1 2.1 0 0 1-2.874.752l-.02-.012a1.621 1.621 0 0 0-.9-.23 1.9 1.9 0 0 0-1.892 1.82 2.061 2.061 0 0 1-2.076 2.046Zm-.688-12.82a2.871 2.871 0 0 0-2.9 2.83 2.762 2.762 0 0 0 .849 2 2.931 2.931 0 0 0 2.054.821 2.822 2.822 0 0 0 2.037-4.825 2.879 2.879 0 0 0-2.045-.823Z" fill="#3a3a3a" opacity=".697"/></svg>