<svg xmlns="http://www.w3.org/2000/svg" width="17.93" height="19.333" viewBox="0 0 17.93 19.333">
  <path id="Shape_54" data-name="Shape 54" d="M42.878,358.147v-2.955a1.356,1.356,0,0,1,1.342-1.369h2.713a1.332,1.332,0,0,1,.95.4,1.378,1.378,0,0,1,.393.967v2.956a1.187,1.187,0,0,0,.336.838,1.147,1.147,0,0,0,.822.348h1.851a3.226,3.226,0,0,0,2.305-.967,3.337,3.337,0,0,0,.956-2.34V347.6a2.413,2.413,0,0,0-.849-1.837l-6.291-5.115a2.872,2.872,0,0,0-3.727.069l-6.151,5.044a2.411,2.411,0,0,0-.912,1.839v8.41a3.29,3.29,0,0,0,3.26,3.319h1.809a1.175,1.175,0,0,0,1.166-1.177Z" transform="translate(-36.617 -340)" fill="#3a3a3a"/>
</svg>
