<svg xmlns="http://www.w3.org/2000/svg" width="18.997" height="19.496"><path data-name="Shape 60" d="M5.134 19.489a5.114 5.114 0 0 1-3.775-1.391 5.419 5.419 0 0 1-1.352-3.87V7.017A5.445 5.445 0 0 1 1.36 3.134a5.1 5.1 0 0 1 3.774-1.4h7.644a4.857 4.857 0 0 0-.056.731 3.916 3.916 0 0 0 3.854 3.966 4.348 4.348 0 0 0 .7-.066v7.862a5.414 5.414 0 0 1-1.353 3.871 5.112 5.112 0 0 1-3.774 1.391Zm1.7-10.758a.739.739 0 0 0-.475.292l-2.81 3.752-.058.088a.74.74 0 0 0 .2.926.777.777 0 0 0 .437.146h.025a.674.674 0 0 0 .535-.292l2.383-3.148 2.705 2.086.085.057a.7.7 0 0 0 .9-.2l2.744-3.634-.038.019a.747.747 0 0 0 .077-.73.7.7 0 0 0-.577-.428h-.08a.723.723 0 0 0-.586.306l-2.3 3.045L7.37 8.893a.732.732 0 0 0-.457-.161.294.294 0 0 0-.079-.001Zm7.587-6.383a2.289 2.289 0 1 1 2.288 2.348 2.32 2.32 0 0 1-2.288-2.348Z" fill="#3a3a3a"/></svg>