<svg xmlns="http://www.w3.org/2000/svg" width="39.079" height="32.472" viewBox="0 0 39.079 32.472">
  <g id="Grupo_1" data-name="Grupo 1" transform="translate(-608.973 -474.668)">
    <path id="Trazado_1657" data-name="Trazado 1657" d="M652.611,490.833v.15c0,8.925-6.877,16.161-15.36,16.161H618.108a.776.776,0,0,1-.755-.795v-4a.776.776,0,0,1,.755-.794H636.7c5.978,0,10.138-4.858,10.138-10.667A10.413,10.413,0,0,0,636.7,480.224H618.108a.774.774,0,0,1-.755-.795v-3.963a.777.777,0,0,1,.755-.794h19.143c8.483,0,15.36,7.236,15.36,16.161" transform="translate(-4.559 -0.004)" fill="#3a3a3a"/>
    <path id="Trazado_1669" data-name="Trazado 1669" d="M609.023,499.767a.217.217,0,0,1-.05-.113.207.207,0,0,1,.08-.155l1.739-1.7.084-.063c.016,0,.054,0,.116.061l5.552,5.574a.274.274,0,0,1,.071.1.207.207,0,0,1-.07.111l-5.564,5.553c-.008.007-.028.028-.1.028a.174.174,0,0,1-.135-.051l-1.7-1.7a1.205,1.205,0,0,1-.057-.116l.021-.068,3.7-3.751Z" transform="translate(0 -12.552)" fill="#3a3a3a"/>
  </g>
</svg>
