<svg xmlns="http://www.w3.org/2000/svg" width="19.361" height="22.127" viewBox="0 0 19.361 22.127">
  <path id="Icon_awesome-discord" data-name="Icon awesome-discord" d="M12.845,10.51a1.133,1.133,0,1,1-1.128-1.228A1.179,1.179,0,0,1,12.845,10.51ZM7.678,9.282a1.232,1.232,0,0,0,0,2.456A1.179,1.179,0,0,0,8.807,10.51,1.172,1.172,0,0,0,7.678,9.282Zm11.683-7V22.127c-2.787-2.463-1.9-1.648-5.134-4.658l.586,2.047H2.268A2.274,2.274,0,0,1,0,17.237V2.279A2.274,2.274,0,0,1,2.268,0H17.093A2.274,2.274,0,0,1,19.361,2.279ZM16.208,12.767a14.816,14.816,0,0,0-1.593-6.45,5.471,5.471,0,0,0-3.109-1.162l-.155.177a7.363,7.363,0,0,1,2.755,1.405,9.4,9.4,0,0,0-8.265-.321c-.409.188-.653.321-.653.321A7.464,7.464,0,0,1,8.1,5.288l-.111-.133A5.471,5.471,0,0,0,4.879,6.317a14.816,14.816,0,0,0-1.593,6.45A4.011,4.011,0,0,0,6.66,14.449s.409-.5.741-.918a3.441,3.441,0,0,1-1.936-1.306c.163.114.431.262.454.277a8.065,8.065,0,0,0,6.9.387,6.331,6.331,0,0,0,1.272-.653,3.491,3.491,0,0,1-2,1.317c.332.42.73.9.73.9A4.044,4.044,0,0,0,16.208,12.767Z"/>
</svg>
