<svg xmlns="http://www.w3.org/2000/svg" width="97.021" height="91.311"><g data-name="Grupo 4662"><g data-name="Grupo 4659" fill="none" stroke="#000" stroke-miterlimit="10"><path data-name="Trazado 2432" d="m2.35 2.135 26.3 12.477 21.245-11.8"/><path data-name="Trazado 2433" d="M52.26 74.303 24.943 85.432l-18.21-24.28L42.479 41.93 28.654 14.614"/><path data-name="Trazado 2434" d="m42.48 41.93 32.036-12.14 12.815-16.187"/><path data-name="Línea 85" d="m74.516 29.79-.337 27.99"/></g><g data-name="Grupo 4660" fill="none" stroke="#000" stroke-miterlimit="10"><path data-name="Trazado 2435" d="m9.924 5.709 26.3 12.477 21.245-11.8-8.131-3.793"/><path data-name="Trazado 2436" d="m36.228 18.188 13.826 27.315-35.743 19.218 18.21 24.28 27.315-11.128-7.575-3.573"/><path data-name="Trazado 2437" d="m42.479 41.93 7.575 3.573 32.036-12.14 12.816-16.187-8.034-3.746"/><path data-name="Trazado 2438" d="m82.09 33.363-.337 27.99-7.575-3.573"/></g><g data-name="Grupo 4661"><circle data-name="Elipse 123" cx="2.107" cy="2.107" r="2.107"/><circle data-name="Elipse 124" cx="2.107" cy="2.107" r="2.107" transform="translate(47.235 .485)"/><circle data-name="Elipse 125" cx="2.107" cy="2.107" r="2.107" transform="translate(55.42 4.392)"/><circle data-name="Elipse 126" cx="2.107" cy="2.107" r="2.107" transform="translate(34.215 15.924)"/><circle data-name="Elipse 127" cx="2.107" cy="2.107" r="2.107" transform="translate(47.669 43.144)"/><circle data-name="Elipse 128" cx="2.107" cy="2.107" r="2.107" transform="translate(79.911 31.363)"/><circle data-name="Elipse 129" cx="2.107" cy="2.107" r="2.107" transform="translate(92.808 15.18)"/><circle data-name="Elipse 130" cx="2.107" cy="2.107" r="2.107" transform="translate(26.368 12.294)"/><circle data-name="Elipse 131" cx="2.107" cy="2.107" r="2.107" transform="translate(39.956 39.632)"/><circle data-name="Elipse 132" cx="2.107" cy="2.107" r="2.107" transform="translate(72.309 27.5)"/><circle data-name="Elipse 133" cx="2.107" cy="2.107" r="2.107" transform="translate(84.765 11.324)"/><circle data-name="Elipse 134" cx="2.107" cy="2.107" r="2.107" transform="translate(71.985 55.324)"/><circle data-name="Elipse 135" cx="2.107" cy="2.107" r="2.107" transform="translate(79.292 59.145)"/><circle data-name="Elipse 136" cx="2.107" cy="2.107" r="2.107" transform="translate(4.691 58.882)"/><circle data-name="Elipse 137" cx="2.107" cy="2.107" r="2.107" transform="translate(30.32 87.097)"/><circle data-name="Elipse 138" cx="2.107" cy="2.107" r="2.107" transform="translate(57.298 75.856)"/><circle data-name="Elipse 139" cx="2.107" cy="2.107" r="2.107" transform="translate(22.809 83.632)"/><circle data-name="Elipse 140" cx="2.107" cy="2.107" r="2.107" transform="translate(49.338 72.471)"/></g><path data-name="Línea 86" fill="none" stroke="#000" stroke-miterlimit="10" d="m14.308 64.725-7.51-3.736"/><path data-name="Línea 87" fill="none" stroke="#000" stroke-miterlimit="10" d="m32.519 89.005-7.603-3.266"/></g></svg>