<svg xmlns="http://www.w3.org/2000/svg" width="237.629" height="203.936" viewBox="0 0 237.629 203.936">
  <g id="Grupo_35" data-name="Grupo 35" transform="translate(-2424.283 -180.372)">
    <g id="Grupo_32" data-name="Grupo 32">
      <g id="Grupo_31" data-name="Grupo 31">
        <path id="Trazado_51" data-name="Trazado 51" d="M2611.008,269.791V290.3a3.009,3.009,0,0,1-2.536,2.967h9.911v-9.147A17.613,17.613,0,0,0,2611.008,269.791Z" fill="none" stroke="#000" stroke-miterlimit="10" stroke-width="1"/>
        <path id="Trazado_52" data-name="Trazado 52" d="M2568.3,293.271h-.426V284.5a32.872,32.872,0,0,1,23.4-31.473,74.92,74.92,0,0,0-6.231-14.9,3.005,3.005,0,0,1,.512-3.575l9.676-9.676a3.015,3.015,0,0,0,0-4.265l-22.348-22.348a3.017,3.017,0,0,0-4.265,0l-9.676,9.676a3.005,3.005,0,0,1-3.575.512,74.873,74.873,0,0,0-15.4-6.39,3,3,0,0,1-2.163-2.888V185.491a3.015,3.015,0,0,0-3.016-3.015h-31.6a3.015,3.015,0,0,0-3.016,3.015v13.674a3,3,0,0,1-2.163,2.888,74.876,74.876,0,0,0-15.4,6.39,3.006,3.006,0,0,1-3.575-.512l-9.676-9.676a3.017,3.017,0,0,0-4.265,0L2442.736,220.6a3.015,3.015,0,0,0,0,4.265l9.676,9.676a3,3,0,0,1,.511,3.575,74.9,74.9,0,0,0-6.389,15.4,3,3,0,0,1-2.889,2.162h-13.673a3.016,3.016,0,0,0-3.016,3.016v31.6a3.016,3.016,0,0,0,3.016,3.015h13.673a3,3,0,0,1,2.889,2.163,74.893,74.893,0,0,0,6.389,15.4,3,3,0,0,1-.511,3.575l-9.676,9.676a3.015,3.015,0,0,0,0,4.265l22.348,22.348a3.016,3.016,0,0,0,4.265,0l9.676-9.676a3,3,0,0,1,3.575-.511,74.986,74.986,0,0,0,15.4,6.39,3,3,0,0,1,2.163,2.888v13.673a3.015,3.015,0,0,0,3.016,3.016h31.6a3.016,3.016,0,0,0,3.016-3.016V349.838a3,3,0,0,1,2.163-2.888,74.983,74.983,0,0,0,15.4-6.39c.03-.017.061-.026.091-.041V306.112A12.841,12.841,0,0,1,2568.3,293.271Zm-57.542-5.166-11.487-11.287,11.487,11.287L2538.7,260.9Z" fill="none" stroke="#000" stroke-miterlimit="10" stroke-width="1"/>
        <path id="Trazado_53" data-name="Trazado 53" d="M2633.169,293.271H2568.3a12.841,12.841,0,0,0-12.841,12.841v40.043A12.841,12.841,0,0,0,2568.3,359h64.873a12.841,12.841,0,0,0,12.841-12.841V306.112A12.841,12.841,0,0,0,2633.169,293.271ZM2605.911,327.2v11.5a5.178,5.178,0,0,1-10.357,0V327.2a10.463,10.463,0,0,1-5.211-7.946,10.636,10.636,0,0,1-.078-1.15,10.468,10.468,0,1,1,15.646,9.1Z" fill="none" stroke="#000" stroke-miterlimit="10" stroke-width="1"/>
        <path id="Trazado_54" data-name="Trazado 54" d="M2600.733,251.634h0A32.853,32.853,0,0,0,2567.87,284.5v8.775h15.212v-9.147a17.65,17.65,0,0,1,17.65-17.651h0a17.689,17.689,0,0,1,17.65,17.651v9.147h15.212V284.5A32.862,32.862,0,0,0,2600.733,251.634Z" fill="none" stroke="#000" stroke-miterlimit="10" stroke-width="1"/>
        <path id="Trazado_55" data-name="Trazado 55" d="M2611.008,290.3V269.791a17.551,17.551,0,0,0-10.275-3.318h0a17.65,17.65,0,0,0-17.65,17.651v9.147h25.39A3.009,3.009,0,0,0,2611.008,290.3Z" fill="none" stroke="#000" stroke-miterlimit="10" stroke-width="1"/>
      </g>
      <circle id="Elipse_223" data-name="Elipse 223" cx="2.845" cy="2.845" r="2.845" transform="translate(2424.283 252.838)"/>
      <circle id="Elipse_224" data-name="Elipse 224" cx="2.845" cy="2.845" r="2.845" transform="translate(2424.283 290.902)"/>
      <circle id="Elipse_225" data-name="Elipse 225" cx="2.845" cy="2.845" r="2.845" transform="translate(2443.12 290.919)"/>
      <circle id="Elipse_226" data-name="Elipse 226" cx="2.845" cy="2.845" r="2.845" transform="translate(2451.668 310.058)"/>
      <circle id="Elipse_227" data-name="Elipse 227" cx="2.845" cy="2.845" r="2.845" transform="translate(2438.726 323.497)"/>
      <circle id="Elipse_228" data-name="Elipse 228" cx="2.845" cy="2.845" r="2.845" transform="translate(2464.781 349.188)"/>
      <circle id="Elipse_229" data-name="Elipse 229" cx="2.845" cy="2.845" r="2.845" transform="translate(2477.761 338.189)"/>
      <circle id="Elipse_230" data-name="Elipse 230" cx="2.845" cy="2.845" r="2.845" transform="translate(2496.422 346.343)"/>
      <circle id="Elipse_231" data-name="Elipse 231" cx="2.845" cy="2.845" r="2.845" transform="translate(2497.751 363.682)"/>
      <circle id="Elipse_232" data-name="Elipse 232" cx="2.845" cy="2.845" r="2.845" transform="translate(2534.647 363.682)"/>
      <circle id="Elipse_233" data-name="Elipse 233" cx="2.845" cy="2.845" r="2.845" transform="translate(2534.647 344.861)"/>
      <circle id="Elipse_234" data-name="Elipse 234" cx="2.845" cy="2.845" r="2.845" transform="translate(2597.888 341.034)"/>
      <circle id="Elipse_235" data-name="Elipse 235" cx="2.845" cy="2.845" r="2.845" transform="translate(2597.888 304.788)"/>
      <circle id="Elipse_236" data-name="Elipse 236" cx="2.845" cy="2.845" r="2.845" transform="translate(2580.237 290.426)"/>
      <circle id="Elipse_237" data-name="Elipse 237" cx="2.845" cy="2.845" r="2.845" transform="translate(2615.539 290.426)"/>
      <circle id="Elipse_238" data-name="Elipse 238" cx="2.845" cy="2.845" r="2.845" transform="translate(2597.888 263.628)"/>
      <circle id="Elipse_239" data-name="Elipse 239" cx="2.845" cy="2.845" r="2.845" transform="translate(2597.888 249.994)"/>
      <circle id="Elipse_240" data-name="Elipse 240" cx="2.845" cy="2.845" r="2.845" transform="translate(2582.211 233.352)"/>
      <circle id="Elipse_241" data-name="Elipse 241" cx="2.845" cy="2.845" r="2.845" transform="translate(2593.266 220.768)"/>
      <circle id="Elipse_242" data-name="Elipse 242" cx="2.845" cy="2.845" r="2.845" transform="translate(2567.682 194.731)"/>
      <circle id="Elipse_243" data-name="Elipse 243" cx="2.845" cy="2.845" r="2.845" transform="translate(2554.249 205.956)"/>
      <circle id="Elipse_244" data-name="Elipse 244" cx="2.845" cy="2.845" r="2.845" transform="translate(2535.344 198.598)"/>
      <circle id="Elipse_245" data-name="Elipse 245" cx="2.845" cy="2.845" r="2.845" transform="translate(2534.098 180.372)"/>
      <circle id="Elipse_246" data-name="Elipse 246" cx="2.845" cy="2.845" r="2.845" transform="translate(2498.212 180.372)"/>
      <circle id="Elipse_247" data-name="Elipse 247" cx="2.845" cy="2.845" r="2.845" transform="translate(2497.532 197.576)"/>
      <circle id="Elipse_248" data-name="Elipse 248" cx="2.845" cy="2.845" r="2.845" transform="translate(2478.174 205.956)"/>
      <circle id="Elipse_249" data-name="Elipse 249" cx="2.845" cy="2.845" r="2.845" transform="translate(2464.136 194.731)"/>
      <circle id="Elipse_250" data-name="Elipse 250" cx="2.845" cy="2.845" r="2.845" transform="translate(2439.231 220.202)"/>
      <circle id="Elipse_251" data-name="Elipse 251" cx="2.845" cy="2.845" r="2.845" transform="translate(2451.118 233.919)"/>
      <circle id="Elipse_252" data-name="Elipse 252" cx="2.845" cy="2.845" r="2.845" transform="translate(2630.079 290.426)"/>
      <circle id="Elipse_253" data-name="Elipse 253" cx="2.845" cy="2.845" r="2.845" transform="translate(2566.317 290.426)"/>
      <circle id="Elipse_254" data-name="Elipse 254" cx="2.845" cy="2.845" r="2.845" transform="translate(2630.079 356.464)"/>
      <circle id="Elipse_255" data-name="Elipse 255" cx="2.845" cy="2.845" r="2.845" transform="translate(2566.317 356.464)"/>
      <circle id="Elipse_256" data-name="Elipse 256" cx="2.845" cy="2.845" r="2.845" transform="translate(2552.611 301.944)"/>
      <circle id="Elipse_257" data-name="Elipse 257" cx="2.845" cy="2.845" r="2.845" transform="translate(2643.165 301.944)"/>
      <circle id="Elipse_258" data-name="Elipse 258" cx="2.845" cy="2.845" r="2.845" transform="translate(2552.611 344.861)"/>
      <circle id="Elipse_259" data-name="Elipse 259" cx="2.845" cy="2.845" r="2.845" transform="translate(2643.165 344.861)"/>
      <circle id="Elipse_260" data-name="Elipse 260" cx="2.845" cy="2.845" r="2.845" transform="translate(2592.198 324.579)"/>
      <circle id="Elipse_261" data-name="Elipse 261" cx="2.845" cy="2.845" r="2.845" transform="translate(2603.577 324.579)"/>
      <circle id="Elipse_262" data-name="Elipse 262" cx="2.845" cy="2.845" r="2.845" transform="translate(2496.422 273.973)"/>
      <circle id="Elipse_263" data-name="Elipse 263" cx="2.845" cy="2.845" r="2.845" transform="translate(2508.689 285.261)"/>
      <circle id="Elipse_264" data-name="Elipse 264" cx="2.845" cy="2.845" r="2.845" transform="translate(2535.852 258.053)"/>
      <circle id="Elipse_265" data-name="Elipse 265" cx="2.845" cy="2.845" r="2.845" transform="translate(2443.12 252.426)"/>
    </g>
    <g id="Grupo_34" data-name="Grupo 34">
      <g id="Grupo_33" data-name="Grupo 33">
        <path id="Trazado_56" data-name="Trazado 56" d="M2624.065,284.728V305.24a3.009,3.009,0,0,1-2.535,2.967h9.911V299.06A17.611,17.611,0,0,0,2624.065,284.728Z" fill="none" stroke="#000" stroke-miterlimit="10" stroke-width="1"/>
        <path id="Trazado_57" data-name="Trazado 57" d="M2581.354,308.207h-.426v-8.775a32.872,32.872,0,0,1,23.4-31.473,74.93,74.93,0,0,0-6.231-14.9,3,3,0,0,1,.512-3.575l9.676-9.676a3.017,3.017,0,0,0,0-4.265l-22.348-22.348a3.015,3.015,0,0,0-4.265,0L2572,222.868a3,3,0,0,1-3.575.511,74.981,74.981,0,0,0-15.4-6.39,3,3,0,0,1-2.162-2.888V200.428a3.015,3.015,0,0,0-3.016-3.016h-31.6a3.016,3.016,0,0,0-3.016,3.016V214.1a3,3,0,0,1-2.162,2.888,74.961,74.961,0,0,0-15.4,6.39,3,3,0,0,1-3.575-.511l-9.676-9.676a3.015,3.015,0,0,0-4.265,0l-22.348,22.348a3.015,3.015,0,0,0,0,4.265l9.676,9.676a3,3,0,0,1,.511,3.575,74.964,74.964,0,0,0-6.39,15.4,3,3,0,0,1-2.888,2.162H2443.03a3.016,3.016,0,0,0-3.016,3.016v31.6a3.016,3.016,0,0,0,3.016,3.016H2456.7a3,3,0,0,1,2.888,2.162,74.972,74.972,0,0,0,6.39,15.4,3,3,0,0,1-.511,3.575l-9.676,9.676a3.015,3.015,0,0,0,0,4.265l22.348,22.348a3.017,3.017,0,0,0,4.265,0l9.676-9.676a3,3,0,0,1,3.575-.512,74.958,74.958,0,0,0,15.4,6.39,3,3,0,0,1,2.162,2.888v13.673a3.016,3.016,0,0,0,3.016,3.016h31.6a3.015,3.015,0,0,0,3.016-3.016V364.774a3,3,0,0,1,2.162-2.888,74.978,74.978,0,0,0,15.4-6.39c.029-.016.061-.026.091-.041V321.048A12.841,12.841,0,0,1,2581.354,308.207Z" fill="none" stroke="#000" stroke-miterlimit="10" stroke-width="1"/>
        <path id="Trazado_58" data-name="Trazado 58" d="M2646.227,308.207h-64.873a12.841,12.841,0,0,0-12.841,12.841v40.044a12.841,12.841,0,0,0,12.841,12.84h64.873a12.84,12.84,0,0,0,12.84-12.84V321.048A12.84,12.84,0,0,0,2646.227,308.207Z" fill="none" stroke="#000" stroke-miterlimit="10" stroke-width="1"/>
        <path id="Trazado_59" data-name="Trazado 59" d="M2613.79,266.57h0a32.853,32.853,0,0,0-32.862,32.862v8.775h15.211V299.06a17.652,17.652,0,0,1,17.651-17.651h0a17.692,17.692,0,0,1,17.651,17.651v9.147h15.211v-8.775A32.862,32.862,0,0,0,2613.79,266.57Z" fill="none" stroke="#000" stroke-miterlimit="10" stroke-width="1"/>
        <path id="Trazado_60" data-name="Trazado 60" d="M2624.065,305.24V284.728a17.542,17.542,0,0,0-10.275-3.319h0a17.652,17.652,0,0,0-17.651,17.651v9.147h25.391A3.009,3.009,0,0,0,2624.065,305.24Z" fill="none" stroke="#000" stroke-miterlimit="10" stroke-width="1"/>
      </g>
      <circle id="Elipse_266" data-name="Elipse 266" cx="2.845" cy="2.845" r="2.845" transform="translate(2437.34 267.775)"/>
      <circle id="Elipse_267" data-name="Elipse 267" cx="2.845" cy="2.845" r="2.845" transform="translate(2437.34 305.838)"/>
      <circle id="Elipse_268" data-name="Elipse 268" cx="2.845" cy="2.845" r="2.845" transform="translate(2456.177 305.855)"/>
      <circle id="Elipse_269" data-name="Elipse 269" cx="2.845" cy="2.845" r="2.845" transform="translate(2464.725 324.994)"/>
      <circle id="Elipse_270" data-name="Elipse 270" cx="2.845" cy="2.845" r="2.845" transform="translate(2451.783 338.434)"/>
      <circle id="Elipse_271" data-name="Elipse 271" cx="2.845" cy="2.845" r="2.845" transform="translate(2477.838 364.125)"/>
      <circle id="Elipse_272" data-name="Elipse 272" cx="2.845" cy="2.845" r="2.845" transform="translate(2490.819 353.126)"/>
      <circle id="Elipse_273" data-name="Elipse 273" cx="2.845" cy="2.845" r="2.845" transform="translate(2509.48 361.28)"/>
      <circle id="Elipse_274" data-name="Elipse 274" cx="2.845" cy="2.845" r="2.845" transform="translate(2510.809 378.619)"/>
      <circle id="Elipse_275" data-name="Elipse 275" cx="2.845" cy="2.845" r="2.845" transform="translate(2547.705 378.619)"/>
      <circle id="Elipse_276" data-name="Elipse 276" cx="2.845" cy="2.845" r="2.845" transform="translate(2547.705 359.797)"/>
      <circle id="Elipse_277" data-name="Elipse 277" cx="2.845" cy="2.845" r="2.845" transform="translate(2610.945 264.93)"/>
      <circle id="Elipse_278" data-name="Elipse 278" cx="2.845" cy="2.845" r="2.845" transform="translate(2595.269 248.289)"/>
      <circle id="Elipse_279" data-name="Elipse 279" cx="2.845" cy="2.845" r="2.845" transform="translate(2606.324 235.705)"/>
      <circle id="Elipse_280" data-name="Elipse 280" cx="2.845" cy="2.845" r="2.845" transform="translate(2580.74 209.667)"/>
      <circle id="Elipse_281" data-name="Elipse 281" cx="2.845" cy="2.845" r="2.845" transform="translate(2567.307 220.893)"/>
      <circle id="Elipse_282" data-name="Elipse 282" cx="2.845" cy="2.845" r="2.845" transform="translate(2548.401 213.534)"/>
      <circle id="Elipse_283" data-name="Elipse 283" cx="2.845" cy="2.845" r="2.845" transform="translate(2547.156 195.308)"/>
      <circle id="Elipse_284" data-name="Elipse 284" cx="2.845" cy="2.845" r="2.845" transform="translate(2511.269 195.308)"/>
      <circle id="Elipse_285" data-name="Elipse 285" cx="2.845" cy="2.845" r="2.845" transform="translate(2510.59 212.512)"/>
      <circle id="Elipse_286" data-name="Elipse 286" cx="2.845" cy="2.845" r="2.845" transform="translate(2491.232 220.893)"/>
      <circle id="Elipse_287" data-name="Elipse 287" cx="2.845" cy="2.845" r="2.845" transform="translate(2477.194 209.667)"/>
      <circle id="Elipse_288" data-name="Elipse 288" cx="2.845" cy="2.845" r="2.845" transform="translate(2452.289 235.139)"/>
      <circle id="Elipse_289" data-name="Elipse 289" cx="2.845" cy="2.845" r="2.845" transform="translate(2464.175 248.855)"/>
      <circle id="Elipse_290" data-name="Elipse 290" cx="2.845" cy="2.845" r="2.845" transform="translate(2643.137 371.4)"/>
      <circle id="Elipse_291" data-name="Elipse 291" cx="2.845" cy="2.845" r="2.845" transform="translate(2579.375 371.4)"/>
      <circle id="Elipse_292" data-name="Elipse 292" cx="2.845" cy="2.845" r="2.845" transform="translate(2656.222 316.88)"/>
      <circle id="Elipse_293" data-name="Elipse 293" cx="2.845" cy="2.845" r="2.845" transform="translate(2565.668 359.797)"/>
      <circle id="Elipse_294" data-name="Elipse 294" cx="2.845" cy="2.845" r="2.845" transform="translate(2656.222 359.797)"/>
      <circle id="Elipse_295" data-name="Elipse 295" cx="2.845" cy="2.845" r="2.845" transform="translate(2456.177 267.362)"/>
    </g>
    <line id="Línea_82" data-name="Línea 82" x2="13.058" y2="14.936" transform="translate(2427.127 255.683)" fill="none" stroke="#000" stroke-miterlimit="10" stroke-width="1"/>
    <line id="Línea_83" data-name="Línea 83" x2="13.058" y2="14.936" transform="translate(2445.76 254.544)" fill="none" stroke="#000" stroke-miterlimit="10" stroke-width="1"/>
    <line id="Línea_84" data-name="Línea 84" x2="13.058" y2="14.936" transform="translate(2427.127 294.298)" fill="none" stroke="#000" stroke-miterlimit="10" stroke-width="1"/>
    <line id="Línea_85" data-name="Línea 85" x2="13.058" y2="14.936" transform="translate(2446.707 294.298)" fill="none" stroke="#000" stroke-miterlimit="10" stroke-width="1"/>
    <line id="Línea_86" data-name="Línea 86" x2="13.058" y2="14.936" transform="translate(2454.628 312.903)" fill="none" stroke="#000" stroke-miterlimit="10" stroke-width="1"/>
    <line id="Línea_87" data-name="Línea 87" x2="13.058" y2="14.936" transform="translate(2481.215 341.72)" fill="none" stroke="#000" stroke-miterlimit="10" stroke-width="1"/>
    <line id="Línea_88" data-name="Línea 88" x2="13.058" y2="14.936" transform="translate(2502.112 367.789)" fill="none" stroke="#000" stroke-miterlimit="10" stroke-width="1"/>
    <line id="Línea_89" data-name="Línea 89" x2="13.058" y2="14.936" transform="translate(2537.492 366.777)" fill="none" stroke="#000" stroke-miterlimit="10" stroke-width="1"/>
    <line id="Línea_90" data-name="Línea 90" x2="13.058" y2="14.936" transform="translate(2538.22 349.802)" fill="none" stroke="#000" stroke-miterlimit="10" stroke-width="1"/>
    <line id="Línea_91" data-name="Línea 91" x2="13.058" y2="14.936" transform="translate(2569.983 359.501)" fill="none" stroke="#000" stroke-miterlimit="10" stroke-width="1"/>
    <line id="Línea_92" data-name="Línea 92" x2="13.058" y2="14.936" transform="translate(2554.101 347.409)" fill="none" stroke="#000" stroke-miterlimit="10" stroke-width="1"/>
    <line id="Línea_93" data-name="Línea 93" x2="13.058" y2="14.936" transform="translate(2632.924 359.501)" fill="none" stroke="#000" stroke-miterlimit="10" stroke-width="1"/>
    <line id="Línea_94" data-name="Línea 94" x2="13.058" y2="14.936" transform="translate(2646.01 347.409)" fill="none" stroke="#000" stroke-miterlimit="10" stroke-width="1"/>
    <line id="Línea_95" data-name="Línea 95" x2="13.058" y2="14.936" transform="translate(2646.01 304.788)" fill="none" stroke="#000" stroke-miterlimit="10" stroke-width="1"/>
    <line id="Línea_96" data-name="Línea 96" x2="13.058" y2="14.936" transform="translate(2599.795 251.634)" fill="none" stroke="#000" stroke-miterlimit="10" stroke-width="1"/>
    <line id="Línea_97" data-name="Línea 97" x2="13.058" y2="14.936" transform="translate(2585.669 236.763)" fill="none" stroke="#000" stroke-miterlimit="10" stroke-width="1"/>
    <line id="Línea_98" data-name="Línea 98" x2="13.058" y2="14.936" transform="translate(2557.094 208.911)" fill="none" stroke="#000" stroke-miterlimit="10" stroke-width="1"/>
    <line id="Línea_99" data-name="Línea 99" x2="13.058" y2="14.936" transform="translate(2570.526 197.576)" fill="none" stroke="#000" stroke-miterlimit="10" stroke-width="1"/>
    <line id="Línea_100" data-name="Línea 100" x2="13.058" y2="14.936" transform="translate(2536.943 183.216)" fill="none" stroke="#000" stroke-miterlimit="10" stroke-width="1"/>
    <line id="Línea_101" data-name="Línea 101" x2="13.058" y2="14.936" transform="translate(2501.729 183.216)" fill="none" stroke="#000" stroke-miterlimit="10" stroke-width="1"/>
    <line id="Línea_102" data-name="Línea 102" x2="13.058" y2="14.936" transform="translate(2501.056 201.333)" fill="none" stroke="#000" stroke-miterlimit="10" stroke-width="1"/>
    <line id="Línea_103" data-name="Línea 103" x2="13.058" y2="14.936" transform="translate(2481.588 208.801)" fill="none" stroke="#000" stroke-miterlimit="10" stroke-width="1"/>
    <line id="Línea_104" data-name="Línea 104" x2="13.058" y2="14.936" transform="translate(2465.778 196.819)" fill="none" stroke="#000" stroke-miterlimit="10" stroke-width="1"/>
    <line id="Línea_105" data-name="Línea 105" x2="13.058" y2="14.936" transform="translate(2442.67 223.738)" fill="none" stroke="#000" stroke-miterlimit="10" stroke-width="1"/>
  </g>
</svg>
