<svg xmlns="http://www.w3.org/2000/svg" width="1007.547" height="508.274"><g data-name="Grupo 4477" opacity=".08"><path data-name="Trazado 2041" d="m507.091 3.493 2.738 2.738-3.45 3.45 3.49 3.489-2.68 2.68-3.49-3.49-3.47 3.472-2.738-2.738 3.47-3.47-3.49-3.491 2.68-2.68 3.49 3.49Z"/><path data-name="Trazado 2043" d="m562.005 3.493 2.738 2.738-3.449 3.449 3.49 3.49-2.68 2.68-3.49-3.49-3.471 3.471-2.738-2.738 3.47-3.47-3.49-3.49 2.68-2.681 3.491 3.49Z"/><path data-name="Trazado 2045" d="m616.92 3.492 2.738 2.739-3.45 3.45 3.49 3.49-2.68 2.68-3.49-3.49-3.47 3.47-2.74-2.738 3.471-3.47-3.49-3.491 2.68-2.68 3.49 3.49Z"/><path data-name="Trazado 2047" d="m671.834 3.493 2.737 2.738-3.449 3.449 3.49 3.49-2.68 2.68-3.49-3.49-3.47 3.471-2.739-2.738 3.47-3.47-3.49-3.49 2.681-2.681 3.49 3.49Z"/><path data-name="Trazado 2049" d="m726.747 3.493 2.738 2.738-3.45 3.45 3.49 3.49-2.679 2.68-3.49-3.49-3.471 3.47-2.738-2.737 3.47-3.47-3.49-3.491 2.68-2.68 3.49 3.49Z"/><path data-name="Trazado 2051" d="m781.662 3.493 2.738 2.738-3.45 3.45 3.49 3.49-2.68 2.68-3.49-3.49-3.47 3.47-2.739-2.738 3.47-3.47-3.49-3.49 2.681-2.681 3.49 3.49Z"/><path data-name="Trazado 2053" d="m836.575 3.493 2.738 2.738-3.45 3.45 3.491 3.49-2.68 2.68-3.49-3.49-3.471 3.47-2.738-2.737 3.47-3.47-3.49-3.491 2.68-2.68 3.49 3.49Z"/><path data-name="Trazado 2055" d="m891.489 3.493 2.738 2.738-3.45 3.45 3.49 3.49-2.68 2.68-3.49-3.49-3.47 3.47-2.739-2.737 3.471-3.471-3.49-3.49 2.68-2.68 3.49 3.49Z"/><path data-name="Trazado 2057" d="m946.403 3.493 2.738 2.737-3.45 3.45 3.491 3.49-2.68 2.68-3.49-3.49-3.471 3.47-2.738-2.737 3.47-3.47-3.49-3.49 2.68-2.681 3.491 3.49Z"/><path data-name="Trazado 2059" d="m1001.318 3.493 2.738 2.738-3.45 3.45 3.49 3.49-2.68 2.68-3.49-3.49-3.47 3.47-2.739-2.738 3.47-3.47-3.49-3.49 2.681-2.681 3.49 3.49Z"/><path data-name="Trazado 2079" d="m507.093 57.82 2.738 2.737-3.451 3.451 3.49 3.49-2.68 2.68-3.49-3.49-3.47 3.47-2.738-2.738 3.47-3.47-3.49-3.49 2.68-2.681 3.491 3.49Z"/><path data-name="Trazado 2081" d="m562.008 57.819 2.737 2.738-3.45 3.45 3.49 3.491-2.68 2.68-3.49-3.49-3.47 3.47-2.739-2.738 3.47-3.47-3.49-3.491 2.681-2.68 3.49 3.49Z"/><path data-name="Trazado 2083" d="m616.921 57.82 2.739 2.738-3.452 3.451 3.49 3.49-2.678 2.68-3.49-3.49-3.471 3.47-2.739-2.739 3.47-3.47-3.49-3.49 2.681-2.681 3.49 3.49Z"/><path data-name="Trazado 2085" d="m671.836 57.819 2.738 2.738-3.452 3.451 3.49 3.49-2.679 2.68-3.49-3.49-3.47 3.47-2.738-2.738 3.47-3.47-3.49-3.49 2.68-2.682 3.49 3.49Z"/><path data-name="Trazado 2087" d="m726.75 57.82 2.737 2.737-3.451 3.451 3.49 3.49-2.68 2.68-3.49-3.49-3.47 3.47-2.738-2.738 3.47-3.47-3.49-3.49 2.68-2.681 3.491 3.49Z"/><path data-name="Trazado 2089" d="m781.663 57.819 2.738 2.738-3.452 3.451 3.49 3.49-2.679 2.68-3.49-3.49-3.47 3.47-2.738-2.738 3.47-3.47-3.49-3.49 2.68-2.681 3.49 3.49Z"/><path data-name="Trazado 2091" d="m836.577 57.82 2.738 2.737-3.451 3.452 3.49 3.49-2.68 2.68-3.49-3.491-3.47 3.47-2.738-2.738 3.47-3.47-3.49-3.49 2.681-2.681 3.49 3.49Z"/><path data-name="Trazado 2093" d="m891.491 57.819 2.738 2.738-3.451 3.451 3.49 3.49-2.68 2.68-3.49-3.49-3.47 3.47-2.738-2.738 3.47-3.47-3.49-3.49 2.68-2.681 3.491 3.49Z"/><path data-name="Trazado 2095" d="m946.405 57.82 2.738 2.737-3.451 3.452 3.49 3.49-2.679 2.68-3.49-3.491-3.47 3.47-2.739-2.737 3.47-3.47-3.49-3.491 2.681-2.68 3.49 3.49Z"/><path data-name="Trazado 2097" d="m1001.319 57.819 2.738 2.738-3.452 3.451 3.49 3.49-2.679 2.68-3.49-3.49-3.47 3.47-2.738-2.738 3.47-3.47-3.49-3.49 2.68-2.681 3.49 3.49Z"/><path data-name="Trazado 2117" d="m507.094 112.146 2.738 2.738-3.452 3.452 3.49 3.49-2.68 2.68-3.49-3.49-3.47 3.47-2.739-2.737 3.471-3.471-3.49-3.49 2.68-2.68 3.49 3.49Z"/><path data-name="Trazado 2119" d="m562.007 112.147 2.738 2.738-3.451 3.451 3.49 3.49-2.68 2.68-3.49-3.49-3.471 3.471-2.738-2.738 3.47-3.47-3.49-3.491 2.68-2.68 3.49 3.49Z"/><path data-name="Trazado 2121" d="m616.921 112.147 2.739 2.738-3.452 3.452 3.49 3.49-2.68 2.68-3.49-3.49-3.47 3.47-2.74-2.738 3.472-3.471-3.49-3.49 2.68-2.68 3.49 3.49Z"/><path data-name="Trazado 2123" d="m671.835 112.147 2.738 2.738-3.451 3.451 3.49 3.49-2.68 2.68-3.49-3.49-3.471 3.471-2.738-2.737 3.471-3.472-3.49-3.49 2.68-2.68 3.49 3.49Z"/><path data-name="Trazado 2125" d="m726.75 112.146 2.738 2.738-3.452 3.452 3.49 3.49-2.68 2.68-3.49-3.49-3.47 3.47-2.739-2.737 3.471-3.471-3.49-3.49 2.68-2.68 3.49 3.49Z"/><path data-name="Trazado 2127" d="m781.664 112.147 2.737 2.738-3.45 3.451 3.49 3.49-2.68 2.68-3.49-3.49-3.472 3.472-2.738-2.738 3.471-3.471-3.49-3.49 2.68-2.68 3.49 3.49Z"/><path data-name="Trazado 2129" d="m836.577 112.147 2.738 2.738-3.452 3.45 3.49 3.491-2.68 2.68-3.49-3.49-3.47 3.471-2.739-2.738 3.472-3.471-3.49-3.49 2.68-2.68 3.49 3.49Z"/><path data-name="Trazado 2131" d="m891.492 112.146 2.738 2.738-3.452 3.452 3.49 3.49-2.68 2.68-3.49-3.49-3.47 3.47-2.739-2.737 3.471-3.471-3.49-3.49 2.68-2.68 3.49 3.49Z"/><path data-name="Trazado 2133" d="m946.405 112.147 2.738 2.738-3.451 3.451 3.49 3.49-2.68 2.68-3.49-3.49-3.472 3.471-2.737-2.738 3.47-3.47-3.49-3.491 2.68-2.68 3.49 3.49Z"/><path data-name="Trazado 2135" d="m1001.32 112.147 2.737 2.738-3.451 3.451 3.49 3.49-2.68 2.68-3.49-3.49-3.471 3.472-2.738-2.738 3.471-3.472-3.49-3.49 2.68-2.68 3.49 3.49Z"/><path data-name="Trazado 2155" d="m507.09 166.479 2.738 2.738-3.451 3.451 3.49 3.49-2.681 2.68-3.49-3.489-3.47 3.47-2.738-2.737 3.47-3.471-3.49-3.49 2.68-2.68 3.49 3.49Z"/><path data-name="Trazado 2157" d="m562.004 166.478 2.738 2.738-3.452 3.452 3.49 3.49-2.68 2.68-3.49-3.49-3.47 3.47-2.739-2.737 3.47-3.47-3.49-3.49 2.681-2.681 3.49 3.49Z"/><path data-name="Trazado 2159" d="m616.917 166.478 2.739 2.739-3.451 3.451 3.49 3.49-2.68 2.681-3.491-3.49-3.47 3.47-2.74-2.738 3.471-3.47-3.49-3.491 2.68-2.68 3.491 3.49Z"/><path data-name="Trazado 2161" d="m671.832 166.479 2.738 2.738-3.452 3.45 3.49 3.491-2.68 2.68-3.49-3.49-3.47 3.471-2.739-2.738 3.47-3.47-3.49-3.49 2.681-2.681 3.49 3.49Z"/><path data-name="Trazado 2163" d="m726.746 166.478 2.738 2.738-3.451 3.451 3.49 3.49-2.68 2.681-3.49-3.49-3.471 3.47-2.738-2.737 3.47-3.471-3.49-3.49 2.68-2.68 3.49 3.49Z"/><path data-name="Trazado 2165" d="m781.66 166.479 2.738 2.738-3.451 3.451 3.49 3.49-2.68 2.681-3.491-3.49-3.47 3.47-2.739-2.738 3.47-3.47-3.49-3.49 2.681-2.681 3.49 3.49Z"/><path data-name="Trazado 2167" d="m836.573 166.478 2.738 2.738-3.451 3.451 3.49 3.49-2.68 2.681-3.49-3.49-3.471 3.47-2.738-2.737 3.47-3.47-3.49-3.491 2.68-2.68 3.491 3.49Z"/><path data-name="Trazado 2169" d="m891.488 166.478 2.738 2.738-3.451 3.451 3.49 3.49-2.68 2.681-3.491-3.49-3.47 3.47-2.738-2.738 3.47-3.47-3.49-3.49 2.68-2.681 3.49 3.49Z"/><path data-name="Trazado 2171" d="m946.402 166.478 2.737 2.738-3.45 3.452 3.49 3.49-2.681 2.68-3.49-3.49-3.471 3.47-2.738-2.737 3.47-3.47-3.49-3.491 2.68-2.68 3.491 3.49Z"/><path data-name="Trazado 2173" d="m1001.316 166.479 2.738 2.738-3.452 3.451 3.49 3.49-2.68 2.68-3.49-3.49-3.47 3.471-2.739-2.738 3.47-3.47-3.49-3.49 2.681-2.681 3.49 3.49Z"/><path data-name="Trazado 2193" d="m507.094 220.804 2.737 2.738-3.451 3.451 3.49 3.49-2.68 2.68-3.49-3.49-3.471 3.471-2.738-2.738 3.47-3.47-3.49-3.49 2.68-2.68 3.49 3.49Z"/><path data-name="Trazado 2195" d="m562.008 220.804 2.738 2.738-3.452 3.452 3.49 3.49-2.68 2.68-3.49-3.49-3.47 3.47-2.739-2.737 3.47-3.47-3.49-3.49 2.68-2.68 3.49 3.49Z"/><path data-name="Trazado 2197" d="m616.922 220.804 2.738 2.739-3.451 3.45 3.49 3.491-2.68 2.68-3.49-3.49-3.471 3.471-2.739-2.739 3.47-3.47-3.49-3.49 2.68-2.68 3.49 3.49Z"/><path data-name="Trazado 2199" d="m671.835 220.803 2.738 2.738-3.451 3.452 3.49 3.49-2.68 2.68-3.49-3.49-3.472 3.47-2.737-2.737 3.47-3.47-3.49-3.49 2.679-2.68 3.49 3.49Z"/><path data-name="Trazado 2201" d="m726.75 220.804 2.737 2.738-3.451 3.451 3.49 3.49-2.68 2.68-3.49-3.49-3.471 3.471-2.738-2.738 3.47-3.47-3.49-3.49 2.68-2.68 3.49 3.49Z"/><path data-name="Trazado 2203" d="m781.663 220.803 2.738 2.738-3.451 3.452 3.49 3.49-2.68 2.68-3.49-3.49-3.471 3.47-2.738-2.737 3.47-3.47-3.49-3.49 2.68-2.68 3.49 3.49Z"/><path data-name="Trazado 2205" d="m836.578 220.804 2.738 2.738-3.452 3.451 3.49 3.49-2.68 2.68-3.49-3.49-3.471 3.471-2.738-2.738 3.47-3.47-3.49-3.49 2.68-2.68 3.49 3.49Z"/><path data-name="Trazado 2207" d="m891.491 220.804 2.738 2.738-3.451 3.45 3.49 3.491-2.68 2.68-3.49-3.49-3.471 3.471-2.738-2.738 3.47-3.47-3.49-3.49 2.68-2.68 3.49 3.49Z"/><path data-name="Trazado 2209" d="m946.406 220.804 2.738 2.738-3.452 3.451 3.49 3.49-2.68 2.68-3.49-3.49-3.47 3.471-2.739-2.737 3.47-3.47-3.49-3.49 2.68-2.68 3.49 3.49Z"/><path data-name="Trazado 2211" d="m1001.32 220.803 2.737 2.738-3.451 3.452 3.49 3.49-2.68 2.68-3.49-3.49-3.471 3.47-2.738-2.737 3.47-3.47-3.49-3.49 2.68-2.68 3.49 3.49Z"/><path data-name="Trazado 2231" d="m507.093 275.132 2.738 2.738-3.451 3.451 3.49 3.49-2.681 2.68-3.49-3.489-3.47 3.47-2.738-2.737 3.47-3.47-3.49-3.491 2.68-2.68 3.49 3.49Z"/><path data-name="Trazado 2233" d="m562.008 275.132 2.738 2.737-3.452 3.452 3.49 3.49-2.68 2.68-3.49-3.49-3.471 3.47-2.738-2.737 3.47-3.47-3.49-3.49 2.681-2.681 3.49 3.49Z"/><path data-name="Trazado 2235" d="m616.921 275.131 2.739 2.739-3.451 3.451 3.49 3.49-2.68 2.681-3.491-3.49-3.47 3.47-2.74-2.738 3.471-3.47-3.49-3.491 2.68-2.68 3.49 3.49Z"/><path data-name="Trazado 2237" d="m671.836 275.132 2.738 2.738-3.452 3.451 3.49 3.49-2.68 2.68-3.49-3.49-3.47 3.471-2.739-2.738 3.47-3.47-3.49-3.49 2.681-2.681 3.49 3.49Z"/><path data-name="Trazado 2239" d="m726.75 275.132 2.737 2.738-3.451 3.451 3.49 3.49-2.68 2.681-3.49-3.49-3.471 3.47-2.738-2.737 3.47-3.47-3.49-3.491 2.68-2.68 3.49 3.49Z"/><path data-name="Trazado 2241" d="m781.664 275.132 2.738 2.738-3.452 3.451 3.49 3.49-2.68 2.681-3.49-3.49-3.47 3.47-2.739-2.738 3.47-3.47-3.49-3.49 2.681-2.681 3.49 3.49Z"/><path data-name="Trazado 2243" d="m836.577 275.132 2.738 2.738-3.451 3.452 3.49 3.49-2.68 2.68-3.49-3.49-3.471 3.47-2.738-2.737 3.47-3.47-3.49-3.491 2.68-2.68 3.49 3.49Z"/><path data-name="Trazado 2245" d="m891.491 275.132 2.738 2.738-3.451 3.451 3.49 3.49-2.68 2.681-3.491-3.49-3.47 3.47-2.738-2.738 3.47-3.47-3.49-3.49 2.68-2.68 3.49 3.49Z"/><path data-name="Trazado 2247" d="m946.405 275.131 2.738 2.738-3.451 3.452 3.49 3.49-2.68 2.68-3.49-3.49-3.471 3.47-2.738-2.737 3.47-3.47-3.49-3.49 2.68-2.682 3.491 3.49Z"/><path data-name="Trazado 2249" d="m1001.32 275.132 2.738 2.738-3.452 3.451 3.49 3.49-2.68 2.681-3.49-3.49-3.47 3.47-2.739-2.738 3.47-3.47-3.49-3.49 2.681-2.681 3.49 3.49Z"/><path data-name="Trazado 2269" d="m507.093 329.46 2.738 2.738-3.451 3.451 3.49 3.49-2.68 2.68-3.49-3.49-3.471 3.472-2.738-2.738 3.47-3.472-3.49-3.49 2.68-2.68 3.49 3.49Z"/><path data-name="Trazado 2271" d="m562.008 329.46 2.738 2.737-3.452 3.452 3.49 3.49-2.68 2.68-3.49-3.49-3.471 3.471-2.738-2.738 3.471-3.471-3.49-3.49 2.68-2.68 3.49 3.49Z"/><path data-name="Trazado 2273" d="m616.921 329.46 2.739 2.738-3.451 3.451 3.49 3.49-2.68 2.68-3.49-3.49-3.472 3.471-2.738-2.738 3.471-3.471-3.49-3.49 2.68-2.68 3.49 3.49Z"/><path data-name="Trazado 2275" d="m671.836 329.46 2.738 2.738-3.452 3.451 3.49 3.49-2.68 2.68-3.49-3.49-3.47 3.471-2.739-2.738 3.471-3.471-3.49-3.49 2.68-2.68 3.49 3.49Z"/><path data-name="Trazado 2277" d="m726.75 329.46 2.737 2.738-3.451 3.451 3.49 3.49-2.68 2.68-3.49-3.49-3.471 3.472-2.738-2.738 3.47-3.472-3.49-3.49 2.68-2.68 3.49 3.49Z"/><path data-name="Trazado 2279" d="m781.663 329.46 2.738 2.738-3.452 3.451 3.49 3.49-2.68 2.68-3.49-3.49-3.47 3.471-2.739-2.738 3.472-3.47-3.49-3.491 2.68-2.68 3.49 3.49Z"/><path data-name="Trazado 2281" d="m836.577 329.46 2.738 2.738-3.451 3.452 3.49 3.49-2.68 2.68-3.49-3.49-3.471 3.47-2.738-2.737 3.471-3.471-3.49-3.49 2.68-2.68 3.49 3.49Z"/><path data-name="Trazado 2283" d="m891.491 329.46 2.738 2.738-3.451 3.451 3.49 3.49-2.68 2.68-3.49-3.49-3.472 3.471-2.737-2.738 3.47-3.47-3.49-3.491 2.68-2.68 3.49 3.49Z"/><path data-name="Trazado 2285" d="m946.405 329.46 2.738 2.737-3.451 3.452 3.49 3.49-2.68 2.68-3.49-3.49-3.471 3.47-2.738-2.737 3.471-3.471-3.49-3.49 2.68-2.68 3.49 3.49Z"/><path data-name="Trazado 2287" d="m1001.32 329.46 2.738 2.738-3.452 3.451 3.49 3.49-2.68 2.68-3.49-3.49-3.47 3.471-2.739-2.738 3.472-3.47-3.49-3.491 2.68-2.68 3.49 3.49Z"/><path data-name="Trazado 2307" d="m507.094 383.787 2.738 2.738-3.452 3.452 3.49 3.49-2.68 2.68-3.49-3.49-3.47 3.47-2.739-2.737 3.468-3.468-3.49-3.49 2.68-2.68 3.49 3.49Z"/><path data-name="Trazado 2309" d="m562.007 383.788 2.738 2.738-3.451 3.451 3.49 3.49-2.68 2.681-3.49-3.49-3.471 3.47-2.738-2.738 3.467-3.467-3.49-3.49 2.68-2.681 3.491 3.49Z"/><path data-name="Trazado 2311" d="m616.921 383.788 2.739 2.738-3.452 3.452 3.49 3.49-2.68 2.68-3.49-3.49-3.47 3.47-2.74-2.738 3.468-3.468-3.49-3.49 2.68-2.68 3.49 3.49Z"/><path data-name="Trazado 2313" d="m671.835 383.788 2.738 2.738-3.451 3.451 3.49 3.49-2.68 2.681-3.49-3.49-3.471 3.47-2.738-2.738 3.468-3.467-3.49-3.49 2.68-2.681 3.49 3.49Z"/><path data-name="Trazado 2315" d="m726.75 383.787 2.738 2.738-3.452 3.452 3.49 3.49-2.68 2.68-3.49-3.49-3.47 3.47-2.739-2.737 3.468-3.468-3.49-3.49 2.68-2.68 3.49 3.49Z"/><path data-name="Trazado 2317" d="m781.664 383.788 2.738 2.738-3.452 3.451 3.49 3.49-2.68 2.681-3.49-3.49-3.471 3.47-2.738-2.737 3.468-3.468-3.49-3.49 2.68-2.68 3.49 3.49Z"/><path data-name="Trazado 2319" d="m836.578 383.788 2.738 2.737-3.451 3.452 3.49 3.49-2.68 2.68-3.491-3.49-3.47 3.471-2.738-2.738 3.467-3.468-3.49-3.49 2.68-2.68 3.49 3.49Z"/><path data-name="Trazado 2321" d="m891.492 383.787 2.738 2.738-3.452 3.452 3.49 3.49-2.68 2.68-3.49-3.49-3.47 3.47-2.739-2.737 3.468-3.468-3.49-3.49 2.68-2.68 3.49 3.49Z"/><path data-name="Trazado 2323" d="m946.405 383.788 2.738 2.738-3.451 3.451 3.49 3.49-2.68 2.68-3.491-3.49-3.47 3.471-2.738-2.738 3.467-3.467-3.49-3.49 2.68-2.681 3.49 3.49Z"/><path data-name="Trazado 2325" d="m1001.32 383.788 2.737 2.738-3.45 3.451 3.49 3.49-2.681 2.681-3.49-3.49-3.471 3.47-2.738-2.737 3.468-3.468-3.49-3.49 2.68-2.681 3.49 3.49Z"/><path data-name="Trazado 2345" d="m507.094 438.115 2.738 2.738-3.452 3.452 3.49 3.49-2.68 2.68-3.49-3.49-3.47 3.47-2.739-2.737 3.472-3.471-3.49-3.49 2.68-2.68 3.49 3.49Z"/><path data-name="Trazado 2347" d="m562.007 438.116 2.738 2.738-3.451 3.451 3.49 3.49-2.68 2.68-3.49-3.49-3.471 3.471-2.738-2.738 3.471-3.47-3.49-3.491 2.68-2.68 3.49 3.49Z"/><path data-name="Trazado 2349" d="m616.921 438.116 2.739 2.738-3.452 3.452 3.49 3.49-2.68 2.68-3.49-3.49-3.47 3.47-2.74-2.738 3.472-3.471-3.49-3.49 2.68-2.68 3.49 3.49Z"/><path data-name="Trazado 2351" d="m671.835 438.116 2.738 2.738-3.451 3.451 3.49 3.49-2.68 2.68-3.49-3.49-3.471 3.471-2.738-2.738 3.471-3.47-3.49-3.491 2.68-2.68 3.49 3.49Z"/><path data-name="Trazado 2353" d="m726.75 438.115 2.738 2.738-3.452 3.452 3.49 3.49-2.68 2.68-3.49-3.49-3.47 3.47-2.739-2.737 3.472-3.471-3.49-3.49 2.68-2.68 3.49 3.49Z"/><path data-name="Trazado 2355" d="m781.664 438.116 2.737 2.738-3.45 3.451 3.49 3.49-2.68 2.68-3.49-3.49-3.472 3.472-2.738-2.738 3.471-3.472-3.49-3.49 2.68-2.68 3.49 3.49Z"/><path data-name="Trazado 2357" d="m836.577 438.116 2.738 2.737-3.451 3.452 3.49 3.49-2.68 2.68-3.49-3.49-3.472 3.471-2.738-2.738 3.472-3.471-3.49-3.49 2.68-2.68 3.49 3.49Z"/><path data-name="Trazado 2359" d="m891.492 438.115 2.738 2.738-3.452 3.452 3.49 3.49-2.68 2.68-3.49-3.49-3.47 3.47-2.739-2.737 3.471-3.471-3.49-3.49 2.68-2.68 3.49 3.49Z"/><path data-name="Trazado 2361" d="m946.405 438.116 2.738 2.738-3.451 3.451 3.49 3.49-2.68 2.68-3.49-3.49-3.471 3.471-2.738-2.738 3.47-3.471-3.49-3.49 2.68-2.68 3.49 3.49Z"/><path data-name="Trazado 2363" d="m1001.32 438.116 2.737 2.738-3.45 3.451 3.49 3.49-2.68 2.68-3.49-3.49-3.472 3.472-2.738-2.738 3.471-3.472-3.49-3.49 2.68-2.68 3.49 3.49Z"/><path data-name="Trazado 2383" d="m507.094 492.444 2.737 2.738-3.45 3.451 3.489 3.49-2.681 2.68-3.49-3.49-3.47 3.471-2.738-2.738 3.47-3.47-3.49-3.49 2.68-2.681 3.491 3.49Z"/><path data-name="Trazado 2385" d="m562.007 492.444 2.738 2.738-3.451 3.451 3.49 3.49-2.68 2.681-3.491-3.49-3.47 3.47-2.739-2.737 3.471-3.47-3.49-3.491 2.68-2.68 3.49 3.49Z"/><path data-name="Trazado 2387" d="m616.922 492.444 2.738 2.738-3.451 3.452 3.49 3.49-2.68 2.68-3.49-3.49-3.471 3.471-2.739-2.739 3.47-3.47-3.49-3.49 2.681-2.681 3.49 3.49Z"/><path data-name="Trazado 2389" d="m671.835 492.444 2.738 2.738-3.451 3.452 3.49 3.49-2.68 2.68-3.491-3.49-3.47 3.47-2.738-2.737 3.47-3.47-3.49-3.491 2.68-2.68 3.49 3.49Z"/><path data-name="Trazado 2391" d="m726.75 492.444 2.737 2.738-3.45 3.451 3.49 3.49-2.681 2.68-3.49-3.49-3.471 3.471-2.738-2.738 3.47-3.47-3.49-3.49 2.68-2.681 3.491 3.49Z"/><path data-name="Trazado 2393" d="m781.663 492.443 2.738 2.738-3.451 3.452 3.49 3.49-2.68 2.68-3.49-3.49-3.471 3.47-2.738-2.737 3.47-3.47-3.49-3.49 2.68-2.681 3.49 3.49Z"/><path data-name="Trazado 2395" d="m836.578 492.444 2.738 2.738-3.452 3.451 3.49 3.49-2.68 2.681-3.49-3.49-3.47 3.47-2.739-2.738 3.47-3.47-3.49-3.49 2.681-2.681 3.49 3.49Z"/><path data-name="Trazado 2397" d="m891.491 492.444 2.738 2.737-3.451 3.452 3.49 3.49-2.68 2.68-3.49-3.49-3.471 3.471-2.738-2.738 3.47-3.47-3.49-3.49 2.68-2.681 3.491 3.49Z"/><path data-name="Trazado 2399" d="m946.406 492.444 2.738 2.738-3.452 3.451 3.49 3.49-2.68 2.681-3.49-3.49-3.47 3.47-2.739-2.737 3.47-3.471-3.49-3.49 2.681-2.68 3.49 3.49Z"/><path data-name="Trazado 2401" d="m1001.32 492.444 2.737 2.738-3.451 3.452 3.49 3.49-2.68 2.68-3.49-3.49-3.471 3.47-2.738-2.737 3.47-3.47-3.49-3.49 2.68-2.681 3.49 3.49Z"/><path data-name="Trazado 2041" d="m13.091 3.493 2.738 2.738-3.45 3.45 3.49 3.489-2.68 2.68-3.49-3.49-3.47 3.472-2.738-2.738 3.47-3.47-3.49-3.491 2.68-2.68 3.49 3.49Z"/><path data-name="Trazado 2043" d="m68.005 3.493 2.738 2.738-3.449 3.449 3.49 3.49-2.68 2.68-3.49-3.49-3.471 3.471-2.738-2.738 3.47-3.47-3.49-3.49 2.68-2.681 3.491 3.49Z"/><path data-name="Trazado 2045" d="m122.92 3.492 2.738 2.739-3.45 3.45 3.49 3.49-2.68 2.68-3.49-3.49-3.47 3.47-2.74-2.738 3.471-3.47-3.49-3.491 2.68-2.68 3.49 3.49Z"/><path data-name="Trazado 2047" d="m177.834 3.493 2.737 2.738-3.449 3.449 3.49 3.49-2.68 2.68-3.49-3.49-3.47 3.471-2.739-2.738 3.47-3.47-3.49-3.49 2.681-2.681 3.49 3.49Z"/><path data-name="Trazado 2049" d="m232.747 3.493 2.738 2.738-3.45 3.45 3.49 3.49-2.679 2.68-3.49-3.49-3.471 3.47-2.738-2.737 3.47-3.47-3.49-3.491 2.68-2.68 3.49 3.49Z"/><path data-name="Trazado 2051" d="m287.662 3.493 2.738 2.738-3.45 3.45 3.49 3.49-2.68 2.68-3.49-3.49-3.47 3.47-2.739-2.738 3.47-3.47-3.49-3.49 2.681-2.681 3.49 3.49Z"/><path data-name="Trazado 2053" d="m342.575 3.493 2.738 2.738-3.45 3.45 3.491 3.49-2.68 2.68-3.49-3.49-3.471 3.47-2.738-2.737 3.47-3.47-3.49-3.491 2.68-2.68 3.49 3.49Z"/><path data-name="Trazado 2055" d="m397.489 3.493 2.738 2.738-3.45 3.45 3.49 3.49-2.68 2.68-3.49-3.49-3.47 3.47-2.739-2.737 3.471-3.471-3.49-3.49 2.68-2.68 3.49 3.49Z"/><path data-name="Trazado 2057" d="m452.403 3.493 2.738 2.737-3.45 3.45 3.491 3.49-2.68 2.68-3.49-3.49-3.471 3.47-2.738-2.737 3.47-3.47-3.49-3.49 2.68-2.681 3.491 3.49Z"/><path data-name="Trazado 2079" d="m13.093 57.82 2.738 2.737-3.451 3.451 3.49 3.49-2.68 2.68-3.49-3.49-3.47 3.47-2.738-2.738 3.47-3.47-3.49-3.49 2.68-2.681 3.491 3.49Z"/><path data-name="Trazado 2081" d="m68.008 57.819 2.737 2.738-3.45 3.45 3.49 3.491-2.68 2.68-3.49-3.49-3.47 3.47-2.739-2.738 3.47-3.47-3.49-3.491 2.681-2.68 3.49 3.49Z"/><path data-name="Trazado 2083" d="m122.921 57.82 2.739 2.738-3.452 3.451 3.49 3.49-2.678 2.68-3.49-3.49-3.471 3.47-2.739-2.739 3.47-3.47-3.49-3.49 2.681-2.681 3.49 3.49Z"/><path data-name="Trazado 2085" d="m177.836 57.819 2.738 2.738-3.452 3.451 3.49 3.49-2.679 2.68-3.49-3.49-3.47 3.47-2.738-2.738 3.47-3.47-3.49-3.49 2.68-2.682 3.49 3.49Z"/><path data-name="Trazado 2087" d="m232.75 57.82 2.737 2.737-3.451 3.451 3.49 3.49-2.68 2.68-3.49-3.49-3.47 3.47-2.738-2.738 3.47-3.47-3.49-3.49 2.68-2.681 3.491 3.49Z"/><path data-name="Trazado 2089" d="m287.663 57.819 2.738 2.738-3.452 3.451 3.49 3.49-2.679 2.68-3.49-3.49-3.47 3.47-2.738-2.738 3.47-3.47-3.49-3.49 2.68-2.681 3.49 3.49Z"/><path data-name="Trazado 2091" d="m342.577 57.82 2.738 2.737-3.451 3.452 3.49 3.49-2.68 2.68-3.49-3.491-3.47 3.47-2.738-2.738 3.47-3.47-3.49-3.49 2.681-2.681 3.49 3.49Z"/><path data-name="Trazado 2093" d="m397.491 57.819 2.738 2.738-3.451 3.451 3.49 3.49-2.68 2.68-3.49-3.49-3.47 3.47-2.738-2.738 3.47-3.47-3.49-3.49 2.68-2.681 3.491 3.49Z"/><path data-name="Trazado 2095" d="m452.405 57.82 2.738 2.737-3.451 3.452 3.49 3.49-2.679 2.68-3.49-3.491-3.47 3.47-2.739-2.737 3.47-3.47-3.49-3.491 2.681-2.68 3.49 3.49Z"/><path data-name="Trazado 2117" d="m13.094 112.146 2.738 2.738-3.452 3.452 3.49 3.49-2.68 2.68-3.49-3.49-3.47 3.47-2.739-2.737 3.471-3.471-3.49-3.49 2.68-2.68 3.49 3.49Z"/><path data-name="Trazado 2119" d="m68.007 112.147 2.738 2.738-3.451 3.451 3.49 3.49-2.68 2.68-3.49-3.49-3.471 3.471-2.738-2.738 3.47-3.47-3.49-3.491 2.68-2.68 3.49 3.49Z"/><path data-name="Trazado 2121" d="m122.921 112.147 2.739 2.738-3.452 3.452 3.49 3.49-2.68 2.68-3.49-3.49-3.47 3.47-2.74-2.738 3.472-3.471-3.49-3.49 2.68-2.68 3.49 3.49Z"/><path data-name="Trazado 2123" d="m177.835 112.147 2.738 2.738-3.451 3.451 3.49 3.49-2.68 2.68-3.49-3.49-3.471 3.471-2.738-2.737 3.471-3.472-3.49-3.49 2.68-2.68 3.49 3.49Z"/><path data-name="Trazado 2125" d="m232.75 112.146 2.738 2.738-3.452 3.452 3.49 3.49-2.68 2.68-3.49-3.49-3.47 3.47-2.739-2.737 3.471-3.471-3.49-3.49 2.68-2.68 3.49 3.49Z"/><path data-name="Trazado 2127" d="m287.664 112.147 2.737 2.738-3.45 3.451 3.49 3.49-2.68 2.68-3.49-3.49-3.472 3.472-2.738-2.738 3.471-3.471-3.49-3.49 2.68-2.68 3.49 3.49Z"/><path data-name="Trazado 2129" d="m342.577 112.147 2.738 2.738-3.452 3.45 3.49 3.491-2.68 2.68-3.49-3.49-3.47 3.471-2.739-2.738 3.472-3.471-3.49-3.49 2.68-2.68 3.49 3.49Z"/><path data-name="Trazado 2131" d="m397.492 112.146 2.738 2.738-3.452 3.452 3.49 3.49-2.68 2.68-3.49-3.49-3.47 3.47-2.739-2.737 3.471-3.471-3.49-3.49 2.68-2.68 3.49 3.49Z"/><path data-name="Trazado 2133" d="m452.405 112.147 2.738 2.738-3.451 3.451 3.49 3.49-2.68 2.68-3.49-3.49-3.472 3.471-2.737-2.738 3.47-3.47-3.49-3.491 2.68-2.68 3.49 3.49Z"/><path data-name="Trazado 2155" d="m13.09 166.479 2.738 2.738-3.451 3.451 3.49 3.49-2.681 2.68-3.49-3.489-3.47 3.47-2.738-2.737 3.47-3.471-3.49-3.49 2.68-2.68 3.49 3.49Z"/><path data-name="Trazado 2157" d="m68.004 166.478 2.738 2.738-3.452 3.452 3.49 3.49-2.68 2.68-3.49-3.49-3.47 3.47-2.739-2.737 3.47-3.47-3.49-3.49 2.681-2.681 3.49 3.49Z"/><path data-name="Trazado 2159" d="m122.917 166.478 2.739 2.739-3.451 3.451 3.49 3.49-2.68 2.681-3.491-3.49-3.47 3.47-2.74-2.738 3.471-3.47-3.49-3.491 2.68-2.68 3.491 3.49Z"/><path data-name="Trazado 2161" d="m177.832 166.479 2.738 2.738-3.452 3.45 3.49 3.491-2.68 2.68-3.49-3.49-3.47 3.471-2.739-2.738 3.47-3.47-3.49-3.49 2.681-2.681 3.49 3.49Z"/><path data-name="Trazado 2163" d="m232.746 166.478 2.738 2.738-3.451 3.451 3.49 3.49-2.68 2.681-3.49-3.49-3.471 3.47-2.738-2.737 3.47-3.471-3.49-3.49 2.68-2.68 3.49 3.49Z"/><path data-name="Trazado 2165" d="m287.66 166.479 2.738 2.738-3.451 3.451 3.49 3.49-2.68 2.681-3.491-3.49-3.47 3.47-2.739-2.738 3.47-3.47-3.49-3.49 2.681-2.681 3.49 3.49Z"/><path data-name="Trazado 2167" d="m342.573 166.478 2.738 2.738-3.451 3.451 3.49 3.49-2.68 2.681-3.49-3.49-3.471 3.47-2.738-2.737 3.47-3.47-3.49-3.491 2.68-2.68 3.491 3.49Z"/><path data-name="Trazado 2169" d="m397.488 166.478 2.738 2.738-3.451 3.451 3.49 3.49-2.68 2.681-3.491-3.49-3.47 3.47-2.738-2.738 3.47-3.47-3.49-3.49 2.68-2.681 3.49 3.49Z"/><path data-name="Trazado 2171" d="m452.402 166.478 2.737 2.738-3.45 3.452 3.49 3.49-2.681 2.68-3.49-3.49-3.471 3.47-2.738-2.737 3.47-3.47-3.49-3.491 2.68-2.68 3.491 3.49Z"/><path data-name="Trazado 2193" d="m13.094 220.804 2.737 2.738-3.451 3.451 3.49 3.49-2.68 2.68-3.49-3.49-3.471 3.471-2.738-2.738 3.47-3.47-3.49-3.49 2.68-2.68 3.49 3.49Z"/><path data-name="Trazado 2195" d="m68.008 220.804 2.738 2.738-3.452 3.452 3.49 3.49-2.68 2.68-3.49-3.49-3.47 3.47-2.739-2.737 3.47-3.47-3.49-3.49 2.68-2.68 3.49 3.49Z"/><path data-name="Trazado 2197" d="m122.922 220.804 2.738 2.739-3.451 3.45 3.49 3.491-2.68 2.68-3.49-3.49-3.471 3.471-2.739-2.739 3.47-3.47-3.49-3.49 2.68-2.68 3.49 3.49Z"/><path data-name="Trazado 2199" d="m177.835 220.803 2.738 2.738-3.451 3.452 3.49 3.49-2.68 2.68-3.49-3.49-3.472 3.47-2.737-2.737 3.47-3.47-3.49-3.49 2.679-2.68 3.49 3.49Z"/><path data-name="Trazado 2201" d="m232.75 220.804 2.737 2.738-3.451 3.451 3.49 3.49-2.68 2.68-3.49-3.49-3.471 3.471-2.738-2.738 3.47-3.47-3.49-3.49 2.68-2.68 3.49 3.49Z"/><path data-name="Trazado 2203" d="m287.663 220.803 2.738 2.738-3.451 3.452 3.49 3.49-2.68 2.68-3.49-3.49-3.471 3.47-2.738-2.737 3.47-3.47-3.49-3.49 2.68-2.68 3.49 3.49Z"/><path data-name="Trazado 2205" d="m342.578 220.804 2.738 2.738-3.452 3.451 3.49 3.49-2.68 2.68-3.49-3.49-3.471 3.471-2.738-2.738 3.47-3.47-3.49-3.49 2.68-2.68 3.49 3.49Z"/><path data-name="Trazado 2207" d="m397.491 220.804 2.738 2.738-3.451 3.45 3.49 3.491-2.68 2.68-3.49-3.49-3.471 3.471-2.738-2.738 3.47-3.47-3.49-3.49 2.68-2.68 3.49 3.49Z"/><path data-name="Trazado 2209" d="m452.406 220.804 2.738 2.738-3.452 3.451 3.49 3.49-2.68 2.68-3.49-3.49-3.47 3.471-2.739-2.737 3.47-3.47-3.49-3.49 2.68-2.68 3.49 3.49Z"/><path data-name="Trazado 2231" d="m13.093 275.132 2.738 2.738-3.451 3.451 3.49 3.49-2.681 2.68-3.49-3.489-3.47 3.47-2.738-2.737 3.47-3.47-3.49-3.491 2.68-2.68 3.49 3.49Z"/><path data-name="Trazado 2233" d="m68.008 275.132 2.738 2.737-3.452 3.452 3.49 3.49-2.68 2.68-3.49-3.49-3.471 3.47-2.738-2.737 3.47-3.47-3.49-3.49 2.681-2.681 3.49 3.49Z"/><path data-name="Trazado 2235" d="m122.921 275.131 2.739 2.739-3.451 3.451 3.49 3.49-2.68 2.681-3.491-3.49-3.47 3.47-2.74-2.738 3.471-3.47-3.49-3.491 2.68-2.68 3.49 3.49Z"/><path data-name="Trazado 2237" d="m177.836 275.132 2.738 2.738-3.452 3.451 3.49 3.49-2.68 2.68-3.49-3.49-3.47 3.471-2.739-2.738 3.47-3.47-3.49-3.49 2.681-2.681 3.49 3.49Z"/><path data-name="Trazado 2239" d="m232.75 275.132 2.737 2.738-3.451 3.451 3.49 3.49-2.68 2.681-3.49-3.49-3.471 3.47-2.738-2.737 3.47-3.47-3.49-3.491 2.68-2.68 3.49 3.49Z"/><path data-name="Trazado 2241" d="m287.664 275.132 2.738 2.738-3.452 3.451 3.49 3.49-2.68 2.681-3.49-3.49-3.47 3.47-2.739-2.738 3.47-3.47-3.49-3.49 2.681-2.681 3.49 3.49Z"/><path data-name="Trazado 2243" d="m342.577 275.132 2.738 2.738-3.451 3.452 3.49 3.49-2.68 2.68-3.49-3.49-3.471 3.47-2.738-2.737 3.47-3.47-3.49-3.491 2.68-2.68 3.49 3.49Z"/><path data-name="Trazado 2245" d="m397.491 275.132 2.738 2.738-3.451 3.451 3.49 3.49-2.68 2.681-3.491-3.49-3.47 3.47-2.738-2.738 3.47-3.47-3.49-3.49 2.68-2.68 3.49 3.49Z"/><path data-name="Trazado 2247" d="m452.405 275.131 2.738 2.738-3.451 3.452 3.49 3.49-2.68 2.68-3.49-3.49-3.471 3.47-2.738-2.737 3.47-3.47-3.49-3.49 2.68-2.682 3.491 3.49Z"/><path data-name="Trazado 2269" d="m13.093 329.46 2.738 2.738-3.451 3.451 3.49 3.49-2.68 2.68-3.49-3.49-3.471 3.472-2.738-2.738 3.47-3.472-3.49-3.49 2.68-2.68 3.49 3.49Z"/><path data-name="Trazado 2271" d="m68.008 329.46 2.738 2.737-3.452 3.452 3.49 3.49-2.68 2.68-3.49-3.49-3.471 3.471-2.738-2.738 3.471-3.471-3.49-3.49 2.68-2.68 3.49 3.49Z"/><path data-name="Trazado 2273" d="m122.921 329.46 2.739 2.738-3.451 3.451 3.49 3.49-2.68 2.68-3.49-3.49-3.472 3.471-2.738-2.738 3.471-3.471-3.49-3.49 2.68-2.68 3.49 3.49Z"/><path data-name="Trazado 2275" d="m177.836 329.46 2.738 2.738-3.452 3.451 3.49 3.49-2.68 2.68-3.49-3.49-3.47 3.471-2.739-2.738 3.471-3.471-3.49-3.49 2.68-2.68 3.49 3.49Z"/><path data-name="Trazado 2277" d="m232.75 329.46 2.737 2.738-3.451 3.451 3.49 3.49-2.68 2.68-3.49-3.49-3.471 3.472-2.738-2.738 3.47-3.472-3.49-3.49 2.68-2.68 3.49 3.49Z"/><path data-name="Trazado 2279" d="m287.663 329.46 2.738 2.738-3.452 3.451 3.49 3.49-2.68 2.68-3.49-3.49-3.47 3.471-2.739-2.738 3.472-3.47-3.49-3.491 2.68-2.68 3.49 3.49Z"/><path data-name="Trazado 2281" d="m342.577 329.46 2.738 2.738-3.451 3.452 3.49 3.49-2.68 2.68-3.49-3.49-3.471 3.47-2.738-2.737 3.471-3.471-3.49-3.49 2.68-2.68 3.49 3.49Z"/><path data-name="Trazado 2283" d="m397.491 329.46 2.738 2.738-3.451 3.451 3.49 3.49-2.68 2.68-3.49-3.49-3.472 3.471-2.737-2.738 3.47-3.47-3.49-3.491 2.68-2.68 3.49 3.49Z"/><path data-name="Trazado 2285" d="m452.405 329.46 2.738 2.737-3.451 3.452 3.49 3.49-2.68 2.68-3.49-3.49-3.471 3.47-2.738-2.737 3.471-3.471-3.49-3.49 2.68-2.68 3.49 3.49Z"/><path data-name="Trazado 2307" d="m13.094 383.787 2.738 2.738-3.452 3.452 3.49 3.49-2.68 2.68-3.49-3.49-3.47 3.47-2.739-2.737 3.468-3.468-3.49-3.49 2.68-2.68 3.49 3.49Z"/><path data-name="Trazado 2309" d="m68.007 383.788 2.738 2.738-3.451 3.451 3.49 3.49-2.68 2.681-3.49-3.49-3.471 3.47-2.738-2.738 3.467-3.467-3.49-3.49 2.68-2.681 3.491 3.49Z"/><path data-name="Trazado 2311" d="m122.921 383.788 2.739 2.738-3.452 3.452 3.49 3.49-2.68 2.68-3.49-3.49-3.47 3.47-2.74-2.738 3.468-3.468-3.49-3.49 2.68-2.68 3.49 3.49Z"/><path data-name="Trazado 2313" d="m177.835 383.788 2.738 2.738-3.451 3.451 3.49 3.49-2.68 2.681-3.49-3.49-3.471 3.47-2.738-2.738 3.468-3.467-3.49-3.49 2.68-2.681 3.49 3.49Z"/><path data-name="Trazado 2315" d="m232.75 383.787 2.738 2.738-3.452 3.452 3.49 3.49-2.68 2.68-3.49-3.49-3.47 3.47-2.739-2.737 3.468-3.468-3.49-3.49 2.68-2.68 3.49 3.49Z"/><path data-name="Trazado 2317" d="m287.664 383.788 2.738 2.738-3.452 3.451 3.49 3.49-2.68 2.681-3.49-3.49-3.471 3.47-2.738-2.737 3.468-3.468-3.49-3.49 2.68-2.68 3.49 3.49Z"/><path data-name="Trazado 2319" d="m342.578 383.788 2.738 2.737-3.451 3.452 3.49 3.49-2.68 2.68-3.491-3.49-3.47 3.471-2.738-2.738 3.467-3.468-3.49-3.49 2.68-2.68 3.49 3.49Z"/><path data-name="Trazado 2321" d="m397.492 383.787 2.738 2.738-3.452 3.452 3.49 3.49-2.68 2.68-3.49-3.49-3.47 3.47-2.739-2.737 3.468-3.468-3.49-3.49 2.68-2.68 3.49 3.49Z"/><path data-name="Trazado 2323" d="m452.405 383.788 2.738 2.738-3.451 3.451 3.49 3.49-2.68 2.68-3.491-3.49-3.47 3.471-2.738-2.738 3.467-3.467-3.49-3.49 2.68-2.681 3.49 3.49Z"/><path data-name="Trazado 2345" d="m13.094 438.115 2.738 2.738-3.452 3.452 3.49 3.49-2.68 2.68-3.49-3.49-3.47 3.47-2.739-2.737 3.472-3.471-3.49-3.49 2.68-2.68 3.49 3.49Z"/><path data-name="Trazado 2347" d="m68.007 438.116 2.738 2.738-3.451 3.451 3.49 3.49-2.68 2.68-3.49-3.49-3.471 3.471-2.738-2.738 3.471-3.47-3.49-3.491 2.68-2.68 3.49 3.49Z"/><path data-name="Trazado 2349" d="m122.921 438.116 2.739 2.738-3.452 3.452 3.49 3.49-2.68 2.68-3.49-3.49-3.47 3.47-2.74-2.738 3.472-3.471-3.49-3.49 2.68-2.68 3.49 3.49Z"/><path data-name="Trazado 2351" d="m177.835 438.116 2.738 2.738-3.451 3.451 3.49 3.49-2.68 2.68-3.49-3.49-3.471 3.471-2.738-2.738 3.471-3.47-3.49-3.491 2.68-2.68 3.49 3.49Z"/><path data-name="Trazado 2353" d="m232.75 438.115 2.738 2.738-3.452 3.452 3.49 3.49-2.68 2.68-3.49-3.49-3.47 3.47-2.739-2.737 3.472-3.471-3.49-3.49 2.68-2.68 3.49 3.49Z"/><path data-name="Trazado 2355" d="m287.664 438.116 2.737 2.738-3.45 3.451 3.49 3.49-2.68 2.68-3.49-3.49-3.472 3.472-2.738-2.738 3.471-3.472-3.49-3.49 2.68-2.68 3.49 3.49Z"/><path data-name="Trazado 2357" d="m342.577 438.116 2.738 2.737-3.451 3.452 3.49 3.49-2.68 2.68-3.49-3.49-3.472 3.471-2.738-2.738 3.472-3.471-3.49-3.49 2.68-2.68 3.49 3.49Z"/><path data-name="Trazado 2359" d="m397.492 438.115 2.738 2.738-3.452 3.452 3.49 3.49-2.68 2.68-3.49-3.49-3.47 3.47-2.739-2.737 3.471-3.471-3.49-3.49 2.68-2.68 3.49 3.49Z"/><path data-name="Trazado 2361" d="m452.405 438.116 2.738 2.738-3.451 3.451 3.49 3.49-2.68 2.68-3.49-3.49-3.471 3.471-2.738-2.738 3.47-3.471-3.49-3.49 2.68-2.68 3.49 3.49Z"/><path data-name="Trazado 2383" d="m13.094 492.444 2.737 2.738-3.45 3.451 3.489 3.49-2.681 2.68-3.49-3.49-3.47 3.471-2.738-2.738 3.47-3.47-3.49-3.49 2.68-2.681 3.491 3.49Z"/><path data-name="Trazado 2385" d="m68.007 492.444 2.738 2.738-3.451 3.451 3.49 3.49-2.68 2.681-3.491-3.49-3.47 3.47-2.739-2.737 3.471-3.47-3.49-3.491 2.68-2.68 3.49 3.49Z"/><path data-name="Trazado 2387" d="m122.922 492.444 2.738 2.738-3.451 3.452 3.49 3.49-2.68 2.68-3.49-3.49-3.471 3.471-2.739-2.739 3.47-3.47-3.49-3.49 2.681-2.681 3.49 3.49Z"/><path data-name="Trazado 2389" d="m177.835 492.444 2.738 2.738-3.451 3.452 3.49 3.49-2.68 2.68-3.491-3.49-3.47 3.47-2.738-2.737 3.47-3.47-3.49-3.491 2.68-2.68 3.49 3.49Z"/><path data-name="Trazado 2391" d="m232.75 492.444 2.737 2.738-3.45 3.451 3.49 3.49-2.681 2.68-3.49-3.49-3.471 3.471-2.738-2.738 3.47-3.47-3.49-3.49 2.68-2.681 3.491 3.49Z"/><path data-name="Trazado 2393" d="m287.663 492.443 2.738 2.738-3.451 3.452 3.49 3.49-2.68 2.68-3.49-3.49-3.471 3.47-2.738-2.737 3.47-3.47-3.49-3.49 2.68-2.681 3.49 3.49Z"/><path data-name="Trazado 2395" d="m342.578 492.444 2.738 2.738-3.452 3.451 3.49 3.49-2.68 2.681-3.49-3.49-3.47 3.47-2.739-2.738 3.47-3.47-3.49-3.49 2.681-2.681 3.49 3.49Z"/><path data-name="Trazado 2397" d="m397.491 492.444 2.738 2.737-3.451 3.452 3.49 3.49-2.68 2.68-3.49-3.49-3.471 3.471-2.738-2.738 3.47-3.47-3.49-3.49 2.68-2.681 3.491 3.49Z"/><path data-name="Trazado 2399" d="m452.406 492.444 2.738 2.738-3.452 3.451 3.49 3.49-2.68 2.681-3.49-3.49-3.47 3.47-2.739-2.737 3.47-3.471-3.49-3.49 2.681-2.68 3.49 3.49Z"/></g></svg>