<svg xmlns="http://www.w3.org/2000/svg" width="243.086" height="189.016" viewBox="0 0 243.086 189.016">
  <g id="Grupo_10" data-name="Grupo 10" transform="translate(-130.756 -225.888)">
    <g id="Grupo_5" data-name="Grupo 5">
      <path id="Trazado_6" data-name="Trazado 6" d="M316.06,363.7l6.591,6.311,17.675-17.7" fill="none" stroke="#000" stroke-miterlimit="10" stroke-width="1"/>
      <g id="Grupo_4" data-name="Grupo 4">
        <path id="Trazado_7" data-name="Trazado 7" d="M349.913,322.06H301.98A10.185,10.185,0,0,1,291.8,332.245v27.261c0,11.568,4.6,25.419,11.6,34.4,7.359,9.439,20.505,16.24,22.55,15.627,10.628-3.188,19.12-11.359,23.7-17.851,5.4-7.642,10.448-22.037,10.448-31.579V332.245A10.185,10.185,0,0,1,349.913,322.06Z" fill="none" stroke="#000" stroke-miterlimit="10" stroke-width="1"/>
      </g>
    </g>
    <g id="Grupo_6" data-name="Grupo 6">
      <path id="Trazado_8" data-name="Trazado 8" d="M224.117,328.132a16.518,16.518,0,0,1-9.244,5.246c-2.757.492-3.349,1.735-3.411,4.372-.118,4.979-2.866,7.617-7.094,7.537-4.057-.076-6.851-3.021-6.719-7.85.08-2.91-.687-4.061-3.584-3.578a7.5,7.5,0,0,1-1.4-.012c-5.87-.152-9.062-2.7-8.978-7.176s3.37-6.91,9.237-6.83c4.848.066,9.694.2,14.542.259,5.434.072,8.578-2.26,8.589-6.316.011-3.985-3.048-6.27-8.582-6.4-2.657-.064-5.324,0-7.972-.2a20.465,20.465,0,0,1-19.22-18.466,20.085,20.085,0,0,1,15.4-21.6c2.469-.621,3.153-1.459,3.19-3.9.073-4.856,2.818-7.838,6.74-7.919,4.222-.086,7.286,2.983,7.064,8.03-.142,3.249,1.184,3.352,3.7,3.432,4.726.151,7.717,3.115,7.647,7.077-.073,4.17-2.956,6.809-7.815,6.853s-9.7-.225-14.543-.2c-4.9.027-7.538,2.415-7.448,6.487.079,3.559,2.962,6.087,7.334,6.292,3.435.162,6.906-.068,10.309.328,8.348.971,14.114,5.551,16.968,13.435C231.7,314.985,229.752,322.024,224.117,328.132Z" fill="none" stroke="#000" stroke-miterlimit="10" stroke-width="1"/>
      <circle id="Elipse_47" data-name="Elipse 47" cx="57.121" cy="57.121" r="57.121" transform="translate(148.036 243.168)" fill="none" stroke="#000" stroke-miterlimit="10" stroke-width="1"/>
      <circle id="Elipse_48" data-name="Elipse 48" cx="70.586" cy="70.586" r="70.586" transform="translate(134.571 229.703)" fill="none" stroke="#000" stroke-miterlimit="10" stroke-width="1"/>
      <path id="Trazado_9" data-name="Trazado 9" d="M185.372,368.041l14.291,3.984a70.586,70.586,0,1,0,37.911-135.986l-15.092-4.208" fill="none" stroke="#000" stroke-miterlimit="10" stroke-width="1"/>
      <circle id="Elipse_49" data-name="Elipse 49" cx="3.815" cy="3.815" r="3.815" transform="translate(176.355 281.208)"/>
      <circle id="Elipse_50" data-name="Elipse 50" cx="3.815" cy="3.815" r="3.815" transform="translate(201.795 251.475)"/>
      <circle id="Elipse_51" data-name="Elipse 51" cx="3.815" cy="3.815" r="3.815" transform="translate(211.138 367.06)"/>
      <circle id="Elipse_52" data-name="Elipse 52" cx="3.815" cy="3.815" r="3.815" transform="translate(255.724 341.474)"/>
      <circle id="Elipse_53" data-name="Elipse 53" cx="3.815" cy="3.815" r="3.815" transform="translate(255.724 251.473)"/>
      <circle id="Elipse_54" data-name="Elipse 54" cx="3.815" cy="3.815" r="3.815" transform="translate(156.939 350.646)"/>
      <circle id="Elipse_55" data-name="Elipse 55" cx="3.815" cy="3.815" r="3.815" transform="translate(156.939 240.769)"/>
      <circle id="Elipse_56" data-name="Elipse 56" cx="3.815" cy="3.815" r="3.815" transform="translate(130.756 296.474)"/>
      <circle id="Elipse_57" data-name="Elipse 57" cx="3.815" cy="3.815" r="3.815" transform="translate(271.417 296.474)"/>
      <circle id="Elipse_58" data-name="Elipse 58" cx="3.815" cy="3.815" r="3.815" transform="translate(225.584 370.821)"/>
      <circle id="Elipse_59" data-name="Elipse 59" cx="3.815" cy="3.815" r="3.815" transform="translate(270.17 345.235)"/>
      <circle id="Elipse_60" data-name="Elipse 60" cx="3.815" cy="3.815" r="3.815" transform="translate(270.17 255.235)"/>
      <circle id="Elipse_61" data-name="Elipse 61" cx="3.815" cy="3.815" r="3.815" transform="translate(285.862 300.235)"/>
      <circle id="Elipse_62" data-name="Elipse 62" cx="3.815" cy="3.815" r="3.815" transform="translate(207.323 225.888)"/>
      <circle id="Elipse_63" data-name="Elipse 63" cx="3.815" cy="3.815" r="3.815" transform="translate(226.328 310.9)"/>
      <circle id="Elipse_64" data-name="Elipse 64" cx="3.815" cy="3.815" r="3.815" transform="translate(193.357 303.067)"/>
      <circle id="Elipse_65" data-name="Elipse 65" cx="3.815" cy="3.815" r="3.815" transform="translate(209.576 290)"/>
      <circle id="Elipse_66" data-name="Elipse 66" cx="3.815" cy="3.815" r="3.815" transform="translate(201.341 341.474)"/>
      <line id="Línea_13" data-name="Línea 13" x2="15.189" y2="4.355" transform="translate(214.954 370.875)" fill="none" stroke="#000" stroke-miterlimit="10" stroke-width="1"/>
      <line id="Línea_14" data-name="Línea 14" x2="15.13" y2="4.338" transform="translate(259.54 345.289)" fill="none" stroke="#000" stroke-miterlimit="10" stroke-width="1"/>
      <line id="Línea_15" data-name="Línea 15" x2="13.477" y2="4.123" transform="translate(275.742 300.289)" fill="none" stroke="#000" stroke-miterlimit="10" stroke-width="1"/>
      <line id="Línea_16" data-name="Línea 16" x2="14.445" y2="4.141" transform="translate(259.54 255.289)" fill="none" stroke="#000" stroke-miterlimit="10" stroke-width="1"/>
      <line id="Línea_17" data-name="Línea 17" x1="24.482" y1="13.31" transform="translate(155.688 271.713)" fill="none" stroke="#000" stroke-miterlimit="10" stroke-width="1"/>
      <line id="Línea_18" data-name="Línea 18" x2="25.581" y2="12.159" transform="translate(230.143 314.715)" fill="none" stroke="#000" stroke-miterlimit="10" stroke-width="1"/>
      <line id="Línea_19" data-name="Línea 19" y2="12.122" transform="translate(205.157 243.168)" fill="none" stroke="#000" stroke-miterlimit="10" stroke-width="1"/>
      <line id="Línea_20" data-name="Línea 20" y2="12.122" transform="translate(205.157 344.676)" fill="none" stroke="#000" stroke-miterlimit="10" stroke-width="1"/>
      <line id="Línea_21" data-name="Línea 21" y1="29.263" x2="36.324" transform="translate(213.391 264.552)" fill="none" stroke="#000" stroke-miterlimit="10" stroke-width="1"/>
      <line id="Línea_22" data-name="Línea 22" y1="29.339" x2="36.417" transform="translate(160.755 306.882)" fill="none" stroke="#000" stroke-miterlimit="10" stroke-width="1"/>
    </g>
    <circle id="Elipse_67" data-name="Elipse 67" cx="2.845" cy="2.845" r="2.845" transform="translate(300.163 319.215)"/>
    <circle id="Elipse_68" data-name="Elipse 68" cx="2.845" cy="2.845" r="2.845" transform="translate(346.64 319.215)"/>
    <circle id="Elipse_69" data-name="Elipse 69" cx="2.845" cy="2.845" r="2.845" transform="translate(288.95 329.229)"/>
    <circle id="Elipse_70" data-name="Elipse 70" cx="2.845" cy="2.845" r="2.845" transform="translate(357.253 329.229)"/>
    <circle id="Elipse_71" data-name="Elipse 71" cx="2.845" cy="2.845" r="2.845" transform="translate(288.95 362.159)"/>
    <circle id="Elipse_72" data-name="Elipse 72" cx="2.845" cy="2.845" r="2.845" transform="translate(313.216 360.127)"/>
    <circle id="Elipse_73" data-name="Elipse 73" cx="2.845" cy="2.845" r="2.845" transform="translate(320.257 367.167)"/>
    <circle id="Elipse_74" data-name="Elipse 74" cx="2.845" cy="2.845" r="2.845" transform="translate(336.845 349.472)"/>
    <circle id="Elipse_75" data-name="Elipse 75" cx="2.845" cy="2.845" r="2.845" transform="translate(357.253 362.159)"/>
    <circle id="Elipse_76" data-name="Elipse 76" cx="2.845" cy="2.845" r="2.845" transform="translate(323.102 406.091)"/>
    <g id="Grupo_9" data-name="Grupo 9">
      <g id="Grupo_8" data-name="Grupo 8">
        <g id="Grupo_7" data-name="Grupo 7">
          <path id="Trazado_10" data-name="Trazado 10" d="M360.811,325.183H312.879a10.185,10.185,0,0,1-10.185,10.186V362.63c0,11.567,4.6,25.419,11.6,34.4,7.359,9.439,20.505,16.24,22.549,15.627,10.629-3.188,19.121-11.36,23.7-17.851C365.944,387.167,371,372.772,371,363.23V335.369A10.186,10.186,0,0,1,360.811,325.183Z" fill="none" stroke="#000" stroke-miterlimit="10" stroke-width="1"/>
        </g>
      </g>
      <circle id="Elipse_77" data-name="Elipse 77" cx="2.845" cy="2.845" r="2.845" transform="translate(311.062 322.339)"/>
      <circle id="Elipse_78" data-name="Elipse 78" cx="2.845" cy="2.845" r="2.845" transform="translate(357.538 322.339)"/>
      <circle id="Elipse_79" data-name="Elipse 79" cx="2.845" cy="2.845" r="2.845" transform="translate(299.849 332.353)"/>
      <circle id="Elipse_80" data-name="Elipse 80" cx="2.845" cy="2.845" r="2.845" transform="translate(368.152 332.353)"/>
      <circle id="Elipse_81" data-name="Elipse 81" cx="2.845" cy="2.845" r="2.845" transform="translate(368.152 365.282)"/>
      <circle id="Elipse_82" data-name="Elipse 82" cx="2.845" cy="2.845" r="2.845" transform="translate(334.001 409.215)"/>
    </g>
    <line id="Línea_23" data-name="Línea 23" x2="9.425" y2="2.482" transform="translate(293.268 332.887)" fill="none" stroke="#000" stroke-miterlimit="10" stroke-width="1"/>
    <line id="Línea_24" data-name="Línea 24" x2="9.425" y2="2.482" transform="translate(325.946 410.54)" fill="none" stroke="#000" stroke-miterlimit="10" stroke-width="1"/>
    <line id="Línea_25" data-name="Línea 25" x2="9.425" y2="2.482" transform="translate(360.098 364.805)" fill="none" stroke="#000" stroke-miterlimit="10" stroke-width="1"/>
    <line id="Línea_26" data-name="Línea 26" x2="9.425" y2="2.482" transform="translate(361.572 332.887)" fill="none" stroke="#000" stroke-miterlimit="10" stroke-width="1"/>
    <line id="Línea_27" data-name="Línea 27" x2="9.425" y2="2.482" transform="translate(348.113 322.423)" fill="none" stroke="#000" stroke-miterlimit="10" stroke-width="1"/>
    <line id="Línea_28" data-name="Línea 28" x2="9.425" y2="2.482" transform="translate(303.79 322.702)" fill="none" stroke="#000" stroke-miterlimit="10" stroke-width="1"/>
    <line id="Línea_29" data-name="Línea 29" x2="11.191" y2="3.339" transform="translate(291.795 365.003)" fill="none" stroke="#000" stroke-miterlimit="10" stroke-width="1"/>
  </g>
</svg>
