<svg xmlns="http://www.w3.org/2000/svg" width="203.489" height="253.748" viewBox="0 0 203.489 253.748">
  <g id="Grupo_55" data-name="Grupo 55" transform="translate(-3249.294 -167.531)">
    <g id="Grupo_51" data-name="Grupo 51">
      <g id="Grupo_50" data-name="Grupo 50">
        <path id="Trazado_76" data-name="Trazado 76" d="M3371.743,203.392s12.565-2.976,20.17-19.508c0,0,5.455,15.044,20,19.508,0,0-15.706,5.952-20.087,19.839C3391.83,223.231,3387.614,210.666,3371.743,203.392Z" fill="none" stroke="#000" stroke-miterlimit="10" stroke-width="1"/>
        <path id="Trazado_77" data-name="Trazado 77" d="M3349.585,180.38s5.555-1.315,8.917-8.624c0,0,2.412,6.651,8.844,8.624,0,0-6.944,2.632-8.881,8.771C3358.465,189.151,3356.6,183.6,3349.585,180.38Z" fill="none" stroke="#000" stroke-miterlimit="10" stroke-width="1"/>
        <path id="Trazado_78" data-name="Trazado 78" d="M3266.46,356.966s5.555-1.316,8.917-8.625c0,0,2.412,6.652,8.844,8.625,0,0-6.943,2.631-8.88,8.771C3275.341,365.737,3273.477,360.182,3266.46,356.966Z" fill="none" stroke="#000" stroke-miterlimit="10" stroke-width="1"/>
        <g id="Grupo_49" data-name="Grupo 49">
          <path id="Trazado_79" data-name="Trazado 79" d="M3369.115,316.286a66.355,66.355,0,1,0-11.2,10.432l18.395,18.774,10.913-10.727Zm-50.537,9.012A52.118,52.118,0,1,1,3370.7,273.18,52.118,52.118,0,0,1,3318.578,325.3Z" fill="none" stroke="#000" stroke-miterlimit="10" stroke-width="1"/>
          <path id="Rectángulo_13" data-name="Rectángulo 13" d="M0,0H34.8a0,0,0,0,1,0,0V53.739a17.4,17.4,0,0,1-17.4,17.4h0A17.4,17.4,0,0,1,0,53.739V0A0,0,0,0,1,0,0Z" transform="translate(3369.303 352.567) rotate(-44.507)" fill="none" stroke="#000" stroke-miterlimit="10" stroke-width="1"/>
        </g>
      </g>
      <circle id="Elipse_375" data-name="Elipse 375" cx="2.845" cy="2.845" r="2.845" transform="translate(3373.462 342.647)"/>
      <circle id="Elipse_376" data-name="Elipse 376" cx="2.845" cy="2.845" r="2.845" transform="translate(3366.188 350.153)"/>
      <circle id="Elipse_377" data-name="Elipse 377" cx="2.845" cy="2.845" r="2.845" transform="translate(3384.375 332.227)"/>
      <circle id="Elipse_378" data-name="Elipse 378" cx="2.845" cy="2.845" r="2.845" transform="translate(3268.25 224.987)"/>
      <circle id="Elipse_379" data-name="Elipse 379" cx="2.845" cy="2.845" r="2.845" transform="translate(3272.496 322.453)"/>
      <circle id="Elipse_380" data-name="Elipse 380" cx="2.845" cy="2.845" r="2.845" transform="translate(3249.294 273.18)"/>
      <circle id="Elipse_381" data-name="Elipse 381" cx="2.845" cy="2.845" r="2.845" transform="translate(3381.531 270.335)"/>
      <circle id="Elipse_382" data-name="Elipse 382" cx="2.845" cy="2.845" r="2.845" transform="translate(3313.99 336.775)"/>
      <circle id="Elipse_383" data-name="Elipse 383" cx="2.845" cy="2.845" r="2.845" transform="translate(3271.777 364.032)"/>
      <circle id="Elipse_384" data-name="Elipse 384" cx="2.845" cy="2.845" r="2.845" transform="translate(3272.496 343.242)"/>
      <circle id="Elipse_385" data-name="Elipse 385" cx="2.845" cy="2.845" r="2.845" transform="translate(3283.019 354.194)"/>
      <circle id="Elipse_386" data-name="Elipse 386" cx="2.845" cy="2.845" r="2.845" transform="translate(3260.685 354.194)"/>
      <circle id="Elipse_387" data-name="Elipse 387" cx="2.845" cy="2.845" r="2.845" transform="translate(3316.834 203.896)"/>
      <circle id="Elipse_388" data-name="Elipse 388" cx="2.845" cy="2.845" r="2.845" transform="translate(3367.851 227.832)"/>
      <circle id="Elipse_389" data-name="Elipse 389" cx="2.845" cy="2.845" r="2.845" transform="translate(3388.985 221.062)"/>
      <circle id="Elipse_390" data-name="Elipse 390" cx="2.845" cy="2.845" r="2.845" transform="translate(3388.985 179.247)"/>
      <circle id="Elipse_391" data-name="Elipse 391" cx="2.845" cy="2.845" r="2.845" transform="translate(3409.893 200.712)"/>
      <circle id="Elipse_392" data-name="Elipse 392" cx="2.845" cy="2.845" r="2.845" transform="translate(3367.346 201.051)"/>
      <circle id="Elipse_393" data-name="Elipse 393" cx="2.845" cy="2.845" r="2.845" transform="translate(3355.621 187.907)"/>
      <circle id="Elipse_394" data-name="Elipse 394" cx="2.845" cy="2.845" r="2.845" transform="translate(3366.054 177.609)"/>
      <circle id="Elipse_395" data-name="Elipse 395" cx="2.845" cy="2.845" r="2.845" transform="translate(3355.621 167.531)"/>
      <circle id="Elipse_396" data-name="Elipse 396" cx="2.845" cy="2.845" r="2.845" transform="translate(3345.436 177.466)"/>
      <circle id="Elipse_397" data-name="Elipse 397" cx="2.845" cy="2.845" r="2.845" transform="translate(3391.652 325.298)"/>
      <circle id="Elipse_398" data-name="Elipse 398" cx="2.845" cy="2.845" r="2.845" transform="translate(3429.388 387.91)"/>
      <circle id="Elipse_399" data-name="Elipse 399" cx="2.845" cy="2.845" r="2.845" transform="translate(3430.662 364.706)"/>
      <circle id="Elipse_400" data-name="Elipse 400" cx="2.845" cy="2.845" r="2.845" transform="translate(3406.646 390.755)"/>
      <circle id="Elipse_401" data-name="Elipse 401" cx="2.845" cy="2.845" r="2.845" transform="translate(3354.527 325.298)"/>
      <circle id="Elipse_402" data-name="Elipse 402" cx="2.845" cy="2.845" r="2.845" transform="translate(3367.851 313.635)"/>
    </g>
    <g id="Grupo_54" data-name="Grupo 54">
      <g id="Grupo_53" data-name="Grupo 53">
        <g id="Grupo_52" data-name="Grupo 52">
          <path id="Trazado_80" data-name="Trazado 80" d="M3377.2,333.557a66.355,66.355,0,1,0-11.2,10.432l18.394,18.774,10.913-10.727Zm-50.537,9.012a52.118,52.118,0,1,1,52.117-52.118A52.118,52.118,0,0,1,3326.666,342.569Z" fill="none" stroke="#000" stroke-miterlimit="10" stroke-width="1"/>
          <path id="Rectángulo_14" data-name="Rectángulo 14" d="M0,0H34.8a0,0,0,0,1,0,0V53.739a17.4,17.4,0,0,1-17.4,17.4h0A17.4,17.4,0,0,1,0,53.739V0A0,0,0,0,1,0,0Z" transform="translate(3377.39 369.838) rotate(-44.507)" fill="none" stroke="#000" stroke-miterlimit="10" stroke-width="1"/>
        </g>
      </g>
      <circle id="Elipse_403" data-name="Elipse 403" cx="2.845" cy="2.845" r="2.845" transform="translate(3381.549 359.918)"/>
      <circle id="Elipse_404" data-name="Elipse 404" cx="2.845" cy="2.845" r="2.845" transform="translate(3374.276 367.424)"/>
      <circle id="Elipse_405" data-name="Elipse 405" cx="2.845" cy="2.845" r="2.845" transform="translate(3392.463 349.498)"/>
      <circle id="Elipse_406" data-name="Elipse 406" cx="2.845" cy="2.845" r="2.845" transform="translate(3276.337 242.258)"/>
      <circle id="Elipse_407" data-name="Elipse 407" cx="2.845" cy="2.845" r="2.845" transform="translate(3280.583 339.724)"/>
      <circle id="Elipse_408" data-name="Elipse 408" cx="2.845" cy="2.845" r="2.845" transform="translate(3257.381 290.451)"/>
      <circle id="Elipse_409" data-name="Elipse 409" cx="2.845" cy="2.845" r="2.845" transform="translate(3389.618 287.607)"/>
      <circle id="Elipse_410" data-name="Elipse 410" cx="2.845" cy="2.845" r="2.845" transform="translate(3322.077 354.046)"/>
      <circle id="Elipse_411" data-name="Elipse 411" cx="2.845" cy="2.845" r="2.845" transform="translate(3324.922 221.167)"/>
      <circle id="Elipse_412" data-name="Elipse 412" cx="2.845" cy="2.845" r="2.845" transform="translate(3375.939 245.103)"/>
      <circle id="Elipse_413" data-name="Elipse 413" cx="2.845" cy="2.845" r="2.845" transform="translate(3399.739 342.569)"/>
      <circle id="Elipse_414" data-name="Elipse 414" cx="2.845" cy="2.845" r="2.845" transform="translate(3437.476 405.181)"/>
      <circle id="Elipse_415" data-name="Elipse 415" cx="2.845" cy="2.845" r="2.845" transform="translate(3438.75 381.978)"/>
      <circle id="Elipse_416" data-name="Elipse 416" cx="2.845" cy="2.845" r="2.845" transform="translate(3414.733 408.026)"/>
      <circle id="Elipse_417" data-name="Elipse 417" cx="2.845" cy="2.845" r="2.845" transform="translate(3362.614 342.569)"/>
      <circle id="Elipse_418" data-name="Elipse 418" cx="2.845" cy="2.845" r="2.845" transform="translate(3375.939 330.906)"/>
    </g>
    <line id="Línea_131" data-name="Línea 131" x2="8.088" y2="17.271" transform="translate(3369.033 352.998)" fill="none" stroke="#000" stroke-miterlimit="10" stroke-width="1"/>
    <line id="Línea_132" data-name="Línea 132" x2="8.088" y2="17.271" transform="translate(3409.49 393.6)" fill="none" stroke="#000" stroke-miterlimit="10" stroke-width="1"/>
    <line id="Línea_133" data-name="Línea 133" x2="8.088" y2="17.271" transform="translate(3433.432 392.338)" fill="none" stroke="#000" stroke-miterlimit="10" stroke-width="1"/>
    <line id="Línea_134" data-name="Línea 134" x2="8.088" y2="17.271" transform="translate(3433.432 367.424)" fill="none" stroke="#000" stroke-miterlimit="10" stroke-width="1"/>
    <line id="Línea_135" data-name="Línea 135" x2="8.088" y2="17.271" transform="translate(3393.298 326.436)" fill="none" stroke="#000" stroke-miterlimit="10" stroke-width="1"/>
    <line id="Línea_136" data-name="Línea 136" x2="8.088" y2="17.271" transform="translate(3387.608 335.072)" fill="none" stroke="#000" stroke-miterlimit="10" stroke-width="1"/>
    <line id="Línea_137" data-name="Línea 137" x2="8.088" y2="17.271" transform="translate(3375.921 345.411)" fill="none" stroke="#000" stroke-miterlimit="10" stroke-width="1"/>
    <line id="Línea_138" data-name="Línea 138" x2="8.088" y2="17.271" transform="translate(3357.371 328.14)" fill="none" stroke="#000" stroke-miterlimit="10" stroke-width="1"/>
    <line id="Línea_139" data-name="Línea 139" x2="8.088" y2="17.271" transform="translate(3370.232 316.663)" fill="none" stroke="#000" stroke-miterlimit="10" stroke-width="1"/>
    <line id="Línea_140" data-name="Línea 140" x2="8.088" y2="17.271" transform="translate(3384.394 273.18)" fill="none" stroke="#000" stroke-miterlimit="10" stroke-width="1"/>
    <line id="Línea_141" data-name="Línea 141" x2="8.088" y2="17.271" transform="translate(3370.232 230.676)" fill="none" stroke="#000" stroke-miterlimit="10" stroke-width="1"/>
    <line id="Línea_142" data-name="Línea 142" x2="8.088" y2="17.271" transform="translate(3319.679 206.402)" fill="none" stroke="#000" stroke-miterlimit="10" stroke-width="1"/>
    <line id="Línea_143" data-name="Línea 143" x2="8.088" y2="17.271" transform="translate(3270.504 226.856)" fill="none" stroke="#000" stroke-miterlimit="10" stroke-width="1"/>
    <line id="Línea_144" data-name="Línea 144" x2="8.088" y2="17.271" transform="translate(3252.138 276.025)" fill="none" stroke="#000" stroke-miterlimit="10" stroke-width="1"/>
    <line id="Línea_145" data-name="Línea 145" x2="8.088" y2="17.271" transform="translate(3275.138 325.115)" fill="none" stroke="#000" stroke-miterlimit="10" stroke-width="1"/>
    <line id="Línea_146" data-name="Línea 146" x2="8.088" y2="17.271" transform="translate(3316.834 339.623)" fill="none" stroke="#000" stroke-miterlimit="10" stroke-width="1"/>
  </g>
</svg>
