<svg xmlns="http://www.w3.org/2000/svg" width="116.003" height="161.483" viewBox="0 0 116.003 161.483">
  <g id="Grupo_14" data-name="Grupo 14" transform="translate(-1196.611 -235.041)">
    <g id="Grupo_11" data-name="Grupo 11">
      <line id="Línea_30" data-name="Línea 30" x2="33.378" transform="translate(1237.306 374.803)" fill="none" stroke="#000" stroke-miterlimit="10" stroke-width="1"/>
      <line id="Línea_31" data-name="Línea 31" x2="33.378" transform="translate(1237.306 363.677)" fill="none" stroke="#000" stroke-miterlimit="10" stroke-width="1"/>
      <path id="Trazado_11" data-name="Trazado 11" d="M1250.493,351.109l-8.035-37.086,3.091,3.5,3.09-3.5,5.357,9.684,6.43-9.684,2.841,2.884,2.266-2.884-7.005,37.086" fill="none" stroke="#000" stroke-miterlimit="10" stroke-width="1"/>
      <circle id="Elipse_83" data-name="Elipse 83" cx="8.058" cy="8.058" r="8.058" transform="translate(1245.297 288.062)" fill="none" stroke="#000" stroke-miterlimit="10" stroke-width="1"/>
      <path id="Trazado_12" data-name="Trazado 12" d="M1235.576,334.771s-27.1,20.877-36.626,12.819,21.821-49.811,43.507-70.321,57.538-46.164,67.1-37.725c6.227,5.494-9.522,27.47-9.522,27.47" fill="none" stroke="#000" stroke-miterlimit="10" stroke-width="1"/>
      <path id="Trazado_13" data-name="Trazado 13" d="M1272.636,334.771s27.1,20.877,36.626,12.819-21.821-49.811-43.507-70.321-57.538-46.164-67.1-37.725c-6.226,5.494,9.523,27.47,9.523,27.47" fill="none" stroke="#000" stroke-miterlimit="10" stroke-width="1"/>
      <path id="Trazado_14" data-name="Trazado 14" d="M1240.154,351.109c-.188-12.495-7.2-19.79-16.207-27.372-14.095-11.869-21.87-30.684-18.315-49.007,4.416-22.757,25.313-39.791,48.474-39.171,38.285,1.024,62.341,42.613,41.458,75.768-4.561,7.24-11.8,12.015-17.717,18.016-6.757,6.854-8.564,13.46-9.536,22.8" fill="none" stroke="#000" stroke-miterlimit="10" stroke-width="1"/>
      <path id="Rectángulo_7" data-name="Rectángulo 7" d="M4.875,0H28.5a4.875,4.875,0,0,1,4.875,4.875V21.753A15.127,15.127,0,0,1,18.251,36.88H15.127A15.127,15.127,0,0,1,0,21.753V4.875A4.875,4.875,0,0,1,4.875,0Z" transform="translate(1237.306 351.109)" fill="none" stroke="#000" stroke-miterlimit="10" stroke-width="1"/>
    </g>
    <circle id="Elipse_84" data-name="Elipse 84" cx="2.845" cy="2.845" r="2.845" transform="translate(1237.306 348.264)"/>
    <circle id="Elipse_85" data-name="Elipse 85" cx="2.845" cy="2.845" r="2.845" transform="translate(1263.88 348.264)"/>
    <circle id="Elipse_86" data-name="Elipse 86" cx="2.845" cy="2.845" r="2.845" transform="translate(1306.924 345.42)"/>
    <circle id="Elipse_87" data-name="Elipse 87" cx="2.845" cy="2.845" r="2.845" transform="translate(1197.196 345.42)"/>
    <circle id="Elipse_88" data-name="Elipse 88" cx="2.845" cy="2.845" r="2.845" transform="translate(1251.261 264.756)"/>
    <circle id="Elipse_89" data-name="Elipse 89" cx="2.845" cy="2.845" r="2.845" transform="translate(1251.151 320.862)"/>
    <circle id="Elipse_90" data-name="Elipse 90" cx="2.845" cy="2.845" r="2.845" transform="translate(1234.462 371.958)"/>
    <circle id="Elipse_91" data-name="Elipse 91" cx="2.845" cy="2.845" r="2.845" transform="translate(1218.199 298.488)"/>
    <circle id="Elipse_92" data-name="Elipse 92" cx="2.845" cy="2.845" r="2.845" transform="translate(1284.893 298.488)"/>
    <circle id="Elipse_93" data-name="Elipse 93" cx="2.845" cy="2.845" r="2.845" transform="translate(1231.617 248.634)"/>
    <circle id="Elipse_94" data-name="Elipse 94" cx="2.845" cy="2.845" r="2.845" transform="translate(1270.684 248.634)"/>
    <circle id="Elipse_95" data-name="Elipse 95" cx="2.845" cy="2.845" r="2.845" transform="translate(1267.839 371.958)"/>
    <circle id="Elipse_96" data-name="Elipse 96" cx="2.845" cy="2.845" r="2.845" transform="translate(1258.568 385.145)"/>
    <circle id="Elipse_97" data-name="Elipse 97" cx="2.845" cy="2.845" r="2.845" transform="translate(1245.572 385.145)"/>
    <circle id="Elipse_98" data-name="Elipse 98" cx="2.845" cy="2.845" r="2.845" transform="translate(1306.924 235.542)"/>
    <circle id="Elipse_99" data-name="Elipse 99" cx="2.845" cy="2.845" r="2.845" transform="translate(1197.196 235.542)"/>
    <g id="Grupo_13" data-name="Grupo 13">
      <g id="Grupo_12" data-name="Grupo 12">
        <path id="Trazado_15" data-name="Trazado 15" d="M1247.538,356.8c-.188-12.5-7.2-19.79-16.207-27.372-14.1-11.87-21.87-30.684-18.315-49.008,4.415-22.757,25.312-39.791,48.474-39.171,38.285,1.025,62.341,42.613,41.458,75.768-4.561,7.241-11.8,12.015-17.718,18.016-6.757,6.855-8.563,13.46-9.536,22.8" fill="none" stroke="#000" stroke-miterlimit="10" stroke-width="1"/>
        <path id="Rectángulo_8" data-name="Rectángulo 8" d="M4.875,0H28.5a4.875,4.875,0,0,1,4.875,4.875V21.753A15.127,15.127,0,0,1,18.251,36.88H15.127A15.127,15.127,0,0,1,0,21.753V4.875A4.875,4.875,0,0,1,4.875,0Z" transform="translate(1244.69 356.799)" fill="none" stroke="#000" stroke-miterlimit="10" stroke-width="1"/>
      </g>
      <circle id="Elipse_100" data-name="Elipse 100" cx="2.845" cy="2.845" r="2.845" transform="translate(1271.263 353.954)"/>
      <circle id="Elipse_101" data-name="Elipse 101" cx="2.845" cy="2.845" r="2.845" transform="translate(1275.223 377.648)"/>
      <circle id="Elipse_102" data-name="Elipse 102" cx="2.845" cy="2.845" r="2.845" transform="translate(1265.952 390.834)"/>
      <circle id="Elipse_103" data-name="Elipse 103" cx="2.845" cy="2.845" r="2.845" transform="translate(1252.955 390.834)"/>
    </g>
    <line id="Línea_32" data-name="Línea 32" x2="7.733" y2="5.69" transform="translate(1261.412 387.989)" fill="none" stroke="#000" stroke-miterlimit="10" stroke-width="1"/>
    <line id="Línea_33" data-name="Línea 33" x2="7.733" y2="5.69" transform="translate(1271.357 375.861)" fill="none" stroke="#000" stroke-miterlimit="10" stroke-width="1"/>
    <line id="Línea_34" data-name="Línea 34" x2="7.733" y2="5.69" transform="translate(1266.724 351.109)" fill="none" stroke="#000" stroke-miterlimit="10" stroke-width="1"/>
  </g>
</svg>
