<svg xmlns="http://www.w3.org/2000/svg" width="14.74" height="19.436" viewBox="0 0 14.74 19.436">
  <path id="Trazado_1675" data-name="Trazado 1675" d="M314.731,914.948c-.055,0-1.333,0-1.41,0l-.06,0c0-.309.051-1.874.012-2.393a5.357,5.357,0,0,0-4.953-4.771c-.162-.011-.325-.017-.483-.017a5.478,5.478,0,0,0-3.685,1.348,5.191,5.191,0,0,0-1.783,3.475c-.032.461.011,2.036.01,2.356h-1.432a.487.487,0,0,0-.5.478v11.3a.487.487,0,0,0,.5.478h13.749a.487.487,0,0,0,.5-.478v-11.3A.485.485,0,0,0,314.731,914.948Zm-5.717,6.158.311,2.525a.848.848,0,0,1-.841.951h-1.249a.848.848,0,0,1-.841-.951l.311-2.525a.841.841,0,0,0-.221-.685,1.757,1.757,0,0,1-.493-1.218,1.87,1.87,0,0,1,3.738,0,1.757,1.757,0,0,1-.493,1.218A.841.841,0,0,0,309.014,921.106Zm1.954-6.2q0,.019,0,.039h-6.291q0-.12,0-.237a6.086,6.086,0,0,1,.437-3.154,3.1,3.1,0,0,1,2.594-1.544l.114,0a3.087,3.087,0,0,1,2.652,1.461C311.011,912.324,310.993,913.408,310.968,914.908Z" transform="translate(-300.45 -907.768)" fill="#fff"/>
</svg>
