<svg xmlns="http://www.w3.org/2000/svg" width="197.712" height="195.029" viewBox="0 0 197.712 195.029">
  <g id="Grupo_18" data-name="Grupo 18" transform="translate(-1445.67 -205.379)">
    <g id="Grupo_15" data-name="Grupo 15">
      <path id="Trazado_16" data-name="Trazado 16" d="M1553.706,260.7a61.5,61.5,0,1,1-66.752,3.413" fill="none" stroke="#000" stroke-miterlimit="10" stroke-width="1"/>
      <path id="Trazado_17" data-name="Trazado 17" d="M1448.515,299.72A76.552,76.552,0,1,0,1568.641,251.9l-4.54-2.137-105-20.268" fill="none" stroke="#000" stroke-miterlimit="10" stroke-width="1"/>
      <path id="Trazado_18" data-name="Trazado 18" d="M1485.7,362.885s2.138-9.591-1.571-18.359-2.375-8.43,2.184-18.209,5.662-14.469-4.331-16.339-8.644-8.277-11-12.324a74.649,74.649,0,0,1-4.207-8.689" fill="none" stroke="#000" stroke-miterlimit="10" stroke-width="1"/>
      <path id="Trazado_19" data-name="Trazado 19" d="M1517.846,273.713c-10.837,5.852-19.4,14.728-13.527,27.716a11.718,11.718,0,0,0,4.045,5.159c5.9,3.818,16.294,1.156,22.558-.5,0,0,6.819-1.765,7.156,7.885.336,9.623,0,25.746,0,25.835-.1,4.622,1.616,9.611,6.7,10.488,8.613,1.483,15.79-7.346,18.354-14.561,3.018-8.5-3.389-17.455.966-25.754,3.988-7.6,18.028-12.81,18.028-12.81" fill="none" stroke="#000" stroke-miterlimit="10" stroke-width="1"/>
      <path id="Trazado_20" data-name="Trazado 20" d="M1564.1,249.768s-23.327,28.473-55.36,22.933c-36.432-6.3-49.637-43.2-49.637-43.2s23.392-24.915,50.847-23.566c14.866.731,28.125,9.418,38.285,19.756a77.682,77.682,0,0,1,10.982,13.581C1560.056,240.638,1565.287,248.321,1564.1,249.768Z" fill="none" stroke="#000" stroke-miterlimit="10" stroke-width="1"/>
      <path id="Trazado_21" data-name="Trazado 21" d="M1477.762,256.962l24.648-19.1-17.452-26.585" fill="none" stroke="#000" stroke-miterlimit="10" stroke-width="1"/>
      <path id="Trazado_22" data-name="Trazado 22" d="M1506.718,205.881l25.965,37.822-34.243,26.229" fill="none" stroke="#000" stroke-miterlimit="10" stroke-width="1"/>
      <path id="Trazado_23" data-name="Trazado 23" d="M1592.226,279.687s-18.067-29.242-3.567-48.8,32.709-19.612,32.709-19.612,13.826,20.287,8.768,36.473S1609.618,278.442,1592.226,279.687Z" fill="none" stroke="#000" stroke-miterlimit="10" stroke-width="1"/>
      <line id="Línea_35" data-name="Línea 35" x1="29.142" y2="68.412" transform="translate(1592.226 211.275)" fill="none" stroke="#000" stroke-miterlimit="10" stroke-width="1"/>
      <path id="Trazado_24" data-name="Trazado 24" d="M1591.92,226.873l11.851,25.713,27.46-11.579" fill="none" stroke="#000" stroke-miterlimit="10" stroke-width="1"/>
    </g>
    <circle id="Elipse_104" data-name="Elipse 104" cx="2.845" cy="2.845" r="2.845" transform="translate(1445.67 296.875)"/>
    <circle id="Elipse_105" data-name="Elipse 105" cx="2.845" cy="2.845" r="2.845" transform="translate(1463.923 362.885)"/>
    <circle id="Elipse_106" data-name="Elipse 106" cx="2.845" cy="2.845" r="2.845" transform="translate(1576.44 362.885)"/>
    <circle id="Elipse_107" data-name="Elipse 107" cx="2.845" cy="2.845" r="2.845" transform="translate(1534.314 306.569)"/>
    <circle id="Elipse_108" data-name="Elipse 108" cx="2.845" cy="2.845" r="2.845" transform="translate(1483.98 360.04)"/>
    <circle id="Elipse_109" data-name="Elipse 109" cx="2.845" cy="2.845" r="2.845" transform="translate(1487.241 312.393)"/>
    <circle id="Elipse_110" data-name="Elipse 110" cx="2.845" cy="2.845" r="2.845" transform="translate(1463.923 286.12)"/>
    <circle id="Elipse_111" data-name="Elipse 111" cx="2.845" cy="2.845" r="2.845" transform="translate(1579.285 294.323)"/>
    <circle id="Elipse_112" data-name="Elipse 112" cx="2.845" cy="2.845" r="2.845" transform="translate(1515.001 270.868)"/>
    <circle id="Elipse_113" data-name="Elipse 113" cx="2.845" cy="2.845" r="2.845" transform="translate(1520.115 387.611)"/>
    <circle id="Elipse_114" data-name="Elipse 114" cx="2.845" cy="2.845" r="2.845" transform="translate(1597.448 315.238)"/>
    <circle id="Elipse_115" data-name="Elipse 115" cx="2.845" cy="2.845" r="2.845" transform="translate(1589.381 276.842)"/>
    <circle id="Elipse_116" data-name="Elipse 116" cx="2.845" cy="2.845" r="2.845" transform="translate(1618.523 208.43)"/>
    <circle id="Elipse_117" data-name="Elipse 117" cx="2.845" cy="2.845" r="2.845" transform="translate(1628.404 215.537)"/>
    <circle id="Elipse_118" data-name="Elipse 118" cx="2.845" cy="2.845" r="2.845" transform="translate(1637.693 251.974)"/>
    <circle id="Elipse_119" data-name="Elipse 119" cx="2.845" cy="2.845" r="2.845" transform="translate(1615.679 279.687)"/>
    <circle id="Elipse_120" data-name="Elipse 120" cx="2.845" cy="2.845" r="2.845" transform="translate(1601.447 247.711)"/>
    <circle id="Elipse_121" data-name="Elipse 121" cx="2.845" cy="2.845" r="2.845" transform="translate(1561.43 247.711)"/>
    <circle id="Elipse_122" data-name="Elipse 122" cx="2.845" cy="2.845" r="2.845" transform="translate(1456.259 226.656)"/>
    <circle id="Elipse_123" data-name="Elipse 123" cx="2.845" cy="2.845" r="2.845" transform="translate(1498.439 235.062)"/>
    <circle id="Elipse_124" data-name="Elipse 124" cx="2.845" cy="2.845" r="2.845" transform="translate(1528.712 240.906)"/>
    <g id="Grupo_17" data-name="Grupo 17">
      <g id="Grupo_16" data-name="Grupo 16">
        <path id="Trazado_25" data-name="Trazado 25" d="M1457.8,306.828a76.552,76.552,0,1,0,120.127-47.815l-4.541-2.137" fill="none" stroke="#000" stroke-miterlimit="10" stroke-width="1"/>
        <path id="Trazado_26" data-name="Trazado 26" d="M1573.39,256.876s-23.327,28.473-55.36,22.932c-36.432-6.3-49.637-43.2-49.637-43.2s23.393-24.915,50.847-23.567c14.867.731,28.125,9.419,38.285,19.756a77.651,77.651,0,0,1,10.982,13.582C1569.345,247.745,1574.576,255.428,1573.39,256.876Z" fill="none" stroke="#000" stroke-miterlimit="10" stroke-width="1"/>
        <path id="Trazado_27" data-name="Trazado 27" d="M1601.515,286.794s-18.067-29.241-3.567-48.8,32.709-19.613,32.709-19.613,13.826,20.287,8.768,36.473S1618.907,285.549,1601.515,286.794Z" fill="none" stroke="#000" stroke-miterlimit="10" stroke-width="1"/>
      </g>
      <circle id="Elipse_125" data-name="Elipse 125" cx="2.845" cy="2.845" r="2.845" transform="translate(1454.959 303.983)"/>
      <circle id="Elipse_126" data-name="Elipse 126" cx="2.845" cy="2.845" r="2.845" transform="translate(1473.212 369.992)"/>
      <circle id="Elipse_127" data-name="Elipse 127" cx="2.845" cy="2.845" r="2.845" transform="translate(1585.729 369.992)"/>
      <circle id="Elipse_128" data-name="Elipse 128" cx="2.845" cy="2.845" r="2.845" transform="translate(1529.405 394.718)"/>
      <circle id="Elipse_129" data-name="Elipse 129" cx="2.845" cy="2.845" r="2.845" transform="translate(1606.737 322.345)"/>
      <circle id="Elipse_130" data-name="Elipse 130" cx="2.845" cy="2.845" r="2.845" transform="translate(1570.719 254.818)"/>
      <circle id="Elipse_131" data-name="Elipse 131" cx="2.845" cy="2.845" r="2.845" transform="translate(1465.548 233.763)"/>
    </g>
    <line id="Línea_36" data-name="Línea 36" x2="9.289" y2="7.107" transform="translate(1522.96 390.455)" fill="none" stroke="#000" stroke-miterlimit="10" stroke-width="1"/>
    <line id="Línea_37" data-name="Línea 37" x2="9.289" y2="7.107" transform="translate(1448.515 300.429)" fill="none" stroke="#000" stroke-miterlimit="10" stroke-width="1"/>
    <line id="Línea_38" data-name="Línea 38" x2="9.289" y2="7.107" transform="translate(1579.809 366.438)" fill="none" stroke="#000" stroke-miterlimit="10" stroke-width="1"/>
    <line id="Línea_39" data-name="Línea 39" x2="9.289" y2="7.107" transform="translate(1600.293 317.374)" fill="none" stroke="#000" stroke-miterlimit="10" stroke-width="1"/>
    <line id="Línea_40" data-name="Línea 40" x2="9.289" y2="7.107" transform="translate(1609.582 274.051)" fill="none" stroke="#000" stroke-miterlimit="10" stroke-width="1"/>
    <line id="Línea_41" data-name="Línea 41" x2="9.289" y2="7.107" transform="translate(1629.449 247.002)" fill="none" stroke="#000" stroke-miterlimit="10" stroke-width="1"/>
    <line id="Línea_42" data-name="Línea 42" x2="9.289" y2="7.107" transform="translate(1621.368 210.566)" fill="none" stroke="#000" stroke-miterlimit="10" stroke-width="1"/>
  </g>
</svg>
