<svg xmlns="http://www.w3.org/2000/svg" width="24.076" height="24.076" viewBox="0 0 24.076 24.076">
  <path id="Instagram" d="M1427.087-625.924a7.086,7.086,0,0,1-5.048-1.893,6.985,6.985,0,0,1-2.038-5.194v-9.951a6.649,6.649,0,0,1,7.038-7.038h10a6.912,6.912,0,0,1,5.1,1.99,6.959,6.959,0,0,1,1.942,5.048v10a6.95,6.95,0,0,1-1.99,5.145,7.169,7.169,0,0,1-5.1,1.893Zm-3.543-20.581a4.839,4.839,0,0,0-1.311,3.543v9.951a4.879,4.879,0,0,0,1.311,3.592,5.018,5.018,0,0,0,3.543,1.262h9.9a5.018,5.018,0,0,0,3.543-1.262,4.743,4.743,0,0,0,1.408-3.543v-10a5.008,5.008,0,0,0-1.311-3.495,4.838,4.838,0,0,0-3.543-1.31h-10A4.936,4.936,0,0,0,1423.543-646.5Zm2.281,8.494a6.225,6.225,0,0,1,6.213-6.213,6.256,6.256,0,0,1,6.213,6.213,6.225,6.225,0,0,1-6.213,6.213A6.194,6.194,0,0,1,1425.825-638.011Zm2.233,0a4,4,0,0,0,3.98,3.98,4,4,0,0,0,3.98-3.98,4,4,0,0,0-3.98-3.98A4,4,0,0,0,1428.057-638.011Zm9.029-6.359a1.408,1.408,0,0,1,1.407-1.408,1.408,1.408,0,0,1,1.408,1.408,1.408,1.408,0,0,1-1.408,1.408A1.407,1.407,0,0,1,1437.086-644.369Z" transform="translate(-1420 650)" fill="#f6fbfd"/>
</svg>
