<svg xmlns="http://www.w3.org/2000/svg" width="24.077" height="24.076" viewBox="0 0 24.077 24.076">
  <path id="Icon_awesome-linkedin" data-name="Icon awesome-linkedin" d="M22.357,2.25H1.714A1.727,1.727,0,0,0,0,3.986v20.6a1.727,1.727,0,0,0,1.714,1.736H22.357a1.732,1.732,0,0,0,1.72-1.736V3.986A1.732,1.732,0,0,0,22.357,2.25ZM7.277,22.887H3.708V11.4H7.282v11.49ZM5.492,9.828A2.069,2.069,0,1,1,7.562,7.758,2.07,2.07,0,0,1,5.492,9.828ZM20.653,22.887H17.085V17.3c0-1.333-.027-3.047-1.854-3.047-1.859,0-2.144,1.451-2.144,2.95v5.686H9.518V11.4h3.423v1.569h.048a3.759,3.759,0,0,1,3.38-1.854c3.611,0,4.283,2.381,4.283,5.476Z" transform="translate(0 -2.25)" fill="#f6fbfd"/>
</svg>
