<svg xmlns="http://www.w3.org/2000/svg" width="209.345" height="198.902" viewBox="0 0 209.345 198.902">
  <g id="Grupo_25" data-name="Grupo 25" transform="translate(-1737.118 -191.957)">
    <g id="Grupo_21" data-name="Grupo 21">
      <g id="Grupo_20" data-name="Grupo 20">
        <g id="Grupo_19" data-name="Grupo 19">
          <path id="Trazado_28" data-name="Trazado 28" d="M1836.9,195.325a96.942,96.942,0,0,0-96.941,96.942h193.882A96.942,96.942,0,0,0,1836.9,195.325Z" fill="none" stroke="#000" stroke-miterlimit="10" stroke-width="1"/>
        </g>
        <path id="Trazado_29" data-name="Trazado 29" d="M1750.912,247.482s24.02,14.967,85.992,14.967,85.992-14.967,85.992-14.967" fill="none" stroke="#000" stroke-miterlimit="10" stroke-width="1"/>
        <path id="Trazado_30" data-name="Trazado 30" d="M1772.059,220.211s30.433,10.484,64.845,9.286a328.825,328.825,0,0,0,64.845-9.286" fill="none" stroke="#000" stroke-miterlimit="10" stroke-width="1"/>
        <path id="Trazado_31" data-name="Trazado 31" d="M1768.865,292.267s1.2-36.182,14.379-57.265,20.446-34.306,53.66-39.677c0,0,33.813,0,51.787,37.168,16.82,34.782,15.577,59.774,15.577,59.774" fill="none" stroke="#000" stroke-miterlimit="10" stroke-width="1"/>
        <path id="Trazado_32" data-name="Trazado 32" d="M1739.963,306.535h13.492l9.479,9.859h20.855" fill="none" stroke="#000" stroke-miterlimit="10" stroke-width="1"/>
        <path id="Trazado_33" data-name="Trazado 33" d="M1763.963,336.49h26.272V323.219" fill="none" stroke="#000" stroke-miterlimit="10" stroke-width="1"/>
        <line id="Línea_43" data-name="Línea 43" y1="17.302" transform="translate(1790.235 292.267)" fill="none" stroke="#000" stroke-miterlimit="10" stroke-width="1"/>
        <path id="Trazado_34" data-name="Trazado 34" d="M1830.049,320.564v18.2l-7.2,7.2L1809.573,332.7V292.267s-1.278-38.85,6.551-63.348,13.706-33.851,20.78-33.594,14.468,11.533,20.256,34.267,6.53,62.675,6.53,62.675" fill="none" stroke="#000" stroke-miterlimit="10" stroke-width="1"/>
        <line id="Línea_44" data-name="Línea 44" y1="13.889" transform="translate(1830.049 292.267)" fill="none" stroke="#000" stroke-miterlimit="10" stroke-width="1"/>
        <line id="Línea_45" data-name="Línea 45" y1="29.981" transform="translate(1822.844 345.969)" fill="none" stroke="#000" stroke-miterlimit="10" stroke-width="1"/>
        <line id="Línea_46" data-name="Línea 46" x2="13.082" transform="translate(1783.941 359.846)" fill="none" stroke="#000" stroke-miterlimit="10" stroke-width="1"/>
        <path id="Trazado_35" data-name="Trazado 35" d="M1853.557,372.815v-22.3l7.2-7.2V329.854" fill="none" stroke="#000" stroke-miterlimit="10" stroke-width="1"/>
        <path id="Trazado_36" data-name="Trazado 36" d="M1860.762,316.394v-9.859l14.409-14.268" fill="none" stroke="#000" stroke-miterlimit="10" stroke-width="1"/>
        <path id="Trazado_37" data-name="Trazado 37" d="M1880.479,366.065v-20.1h23.81" fill="none" stroke="#000" stroke-miterlimit="10" stroke-width="1"/>
        <path id="Trazado_38" data-name="Trazado 38" d="M1866.449,323.219h20.476l10.617-9.859h19.338" fill="none" stroke="#000" stroke-miterlimit="10" stroke-width="1"/>
        <line id="Línea_47" data-name="Línea 47" y2="14.268" transform="translate(1923.73 292.267)" fill="none" stroke="#000" stroke-miterlimit="10" stroke-width="1"/>
        <circle id="Elipse_132" data-name="Elipse 132" cx="7.204" cy="7.204" r="7.204" transform="translate(1852.723 316.014)" fill="none" stroke="#000" stroke-miterlimit="10" stroke-width="1"/>
        <circle id="Elipse_133" data-name="Elipse 133" cx="7.204" cy="7.204" r="7.204" transform="translate(1916.526 306.156)" fill="none" stroke="#000" stroke-miterlimit="10" stroke-width="1"/>
        <circle id="Elipse_134" data-name="Elipse 134" cx="7.204" cy="7.204" r="7.204" transform="translate(1903.306 339.805)" fill="none" stroke="#000" stroke-miterlimit="10" stroke-width="1"/>
        <circle id="Elipse_135" data-name="Elipse 135" cx="7.204" cy="7.204" r="7.204" transform="translate(1873.275 366.445)" fill="none" stroke="#000" stroke-miterlimit="10" stroke-width="1"/>
        <circle id="Elipse_136" data-name="Elipse 136" cx="7.204" cy="7.204" r="7.204" transform="translate(1846.353 372.815)" fill="none" stroke="#000" stroke-miterlimit="10" stroke-width="1"/>
        <circle id="Elipse_137" data-name="Elipse 137" cx="7.204" cy="7.204" r="7.204" transform="translate(1815.64 375.951)" fill="none" stroke="#000" stroke-miterlimit="10" stroke-width="1"/>
        <circle id="Elipse_138" data-name="Elipse 138" cx="7.204" cy="7.204" r="7.204" transform="translate(1822.844 306.156)" fill="none" stroke="#000" stroke-miterlimit="10" stroke-width="1"/>
        <circle id="Elipse_139" data-name="Elipse 139" cx="7.204" cy="7.204" r="7.204" transform="translate(1783.031 309.189)" fill="none" stroke="#000" stroke-miterlimit="10" stroke-width="1"/>
        <circle id="Elipse_140" data-name="Elipse 140" cx="7.204" cy="7.204" r="7.204" transform="translate(1749.555 329.827)" fill="none" stroke="#000" stroke-miterlimit="10" stroke-width="1"/>
        <circle id="Elipse_141" data-name="Elipse 141" cx="7.204" cy="7.204" r="7.204" transform="translate(1769.533 352.642)" fill="none" stroke="#000" stroke-miterlimit="10" stroke-width="1"/>
        <circle id="Elipse_142" data-name="Elipse 142" cx="7.204" cy="7.204" r="7.204" transform="translate(1797.023 352.642)" fill="none" stroke="#000" stroke-miterlimit="10" stroke-width="1"/>
      </g>
      <circle id="Elipse_143" data-name="Elipse 143" cx="2.845" cy="2.845" r="2.845" transform="translate(1737.118 289.422)"/>
      <circle id="Elipse_144" data-name="Elipse 144" cx="2.845" cy="2.845" r="2.845" transform="translate(1931 289.422)"/>
      <circle id="Elipse_145" data-name="Elipse 145" cx="2.845" cy="2.845" r="2.845" transform="translate(1766.02 289.422)"/>
      <circle id="Elipse_146" data-name="Elipse 146" cx="2.845" cy="2.845" r="2.845" transform="translate(1806.651 289.422)"/>
      <circle id="Elipse_147" data-name="Elipse 147" cx="2.845" cy="2.845" r="2.845" transform="translate(1807.894 258.465)"/>
      <circle id="Elipse_148" data-name="Elipse 148" cx="2.845" cy="2.845" r="2.845" transform="translate(1858.944 258.465)"/>
      <circle id="Elipse_149" data-name="Elipse 149" cx="2.845" cy="2.845" r="2.845" transform="translate(1895.754 253.501)"/>
      <circle id="Elipse_150" data-name="Elipse 150" cx="2.845" cy="2.845" r="2.845" transform="translate(1920.051 244.637)"/>
      <circle id="Elipse_151" data-name="Elipse 151" cx="2.845" cy="2.845" r="2.845" transform="translate(1898.904 217.581)"/>
      <circle id="Elipse_152" data-name="Elipse 152" cx="2.845" cy="2.845" r="2.845" transform="translate(1880.895 221.409)"/>
      <circle id="Elipse_153" data-name="Elipse 153" cx="2.845" cy="2.845" r="2.845" transform="translate(1853.255 224.901)"/>
      <circle id="Elipse_154" data-name="Elipse 154" cx="2.845" cy="2.845" r="2.845" transform="translate(1813.584 225.565)"/>
      <circle id="Elipse_155" data-name="Elipse 155" cx="2.845" cy="2.845" r="2.845" transform="translate(1786.786 221.409)"/>
      <circle id="Elipse_156" data-name="Elipse 156" cx="2.845" cy="2.845" r="2.845" transform="translate(1769.214 217.366)"/>
      <circle id="Elipse_157" data-name="Elipse 157" cx="2.845" cy="2.845" r="2.845" transform="translate(1833.732 191.957)"/>
      <circle id="Elipse_158" data-name="Elipse 158" cx="2.845" cy="2.845" r="2.845" transform="translate(1737.118 303.69)"/>
      <circle id="Elipse_159" data-name="Elipse 159" cx="2.845" cy="2.845" r="2.845" transform="translate(1772.059 253.501)"/>
      <circle id="Elipse_160" data-name="Elipse 160" cx="2.845" cy="2.845" r="2.845" transform="translate(1748.068 244.637)"/>
      <circle id="Elipse_161" data-name="Elipse 161" cx="2.845" cy="2.845" r="2.845" transform="translate(1860.845 289.422)"/>
      <circle id="Elipse_162" data-name="Elipse 162" cx="2.845" cy="2.845" r="2.845" transform="translate(1901.444 289.422)"/>
    </g>
    <g id="Grupo_24" data-name="Grupo 24">
      <g id="Grupo_23" data-name="Grupo 23">
        <g id="Grupo_22" data-name="Grupo 22">
          <path id="Trazado_39" data-name="Trazado 39" d="M1846.677,204.481a96.941,96.941,0,0,0-96.941,96.941h193.883A96.941,96.941,0,0,0,1846.677,204.481Z" fill="none" stroke="#000" stroke-miterlimit="10" stroke-width="1"/>
        </g>
        <path id="Trazado_40" data-name="Trazado 40" d="M1760.686,256.637s24.019,14.968,85.991,14.968,85.992-14.968,85.992-14.968" fill="none" stroke="#000" stroke-miterlimit="10" stroke-width="1"/>
        <path id="Trazado_41" data-name="Trazado 41" d="M1781.833,229.366s30.432,10.485,64.844,9.287a328.869,328.869,0,0,0,64.845-9.287" fill="none" stroke="#000" stroke-miterlimit="10" stroke-width="1"/>
        <path id="Trazado_42" data-name="Trazado 42" d="M1778.638,301.422s1.2-36.181,14.38-57.264,20.446-34.306,53.659-39.677c0,0,33.813,0,51.787,37.167,16.821,34.783,15.577,59.774,15.577,59.774" fill="none" stroke="#000" stroke-miterlimit="10" stroke-width="1"/>
        <path id="Trazado_43" data-name="Trazado 43" d="M1819.346,301.422s-1.278-38.849,6.551-63.348,13.707-33.85,20.78-33.593,14.468,11.532,20.256,34.267,6.53,62.674,6.53,62.674" fill="none" stroke="#000" stroke-miterlimit="10" stroke-width="1"/>
      </g>
      <circle id="Elipse_163" data-name="Elipse 163" cx="2.845" cy="2.845" r="2.845" transform="translate(1746.891 298.578)"/>
      <circle id="Elipse_164" data-name="Elipse 164" cx="2.845" cy="2.845" r="2.845" transform="translate(1940.774 298.578)"/>
      <circle id="Elipse_165" data-name="Elipse 165" cx="2.845" cy="2.845" r="2.845" transform="translate(1775.794 298.578)"/>
      <circle id="Elipse_166" data-name="Elipse 166" cx="2.845" cy="2.845" r="2.845" transform="translate(1816.424 298.578)"/>
      <circle id="Elipse_167" data-name="Elipse 167" cx="2.845" cy="2.845" r="2.845" transform="translate(1817.667 267.62)"/>
      <circle id="Elipse_168" data-name="Elipse 168" cx="2.845" cy="2.845" r="2.845" transform="translate(1868.718 267.62)"/>
      <circle id="Elipse_169" data-name="Elipse 169" cx="2.845" cy="2.845" r="2.845" transform="translate(1905.528 262.657)"/>
      <circle id="Elipse_170" data-name="Elipse 170" cx="2.845" cy="2.845" r="2.845" transform="translate(1929.824 253.793)"/>
      <circle id="Elipse_171" data-name="Elipse 171" cx="2.845" cy="2.845" r="2.845" transform="translate(1908.677 226.736)"/>
      <circle id="Elipse_172" data-name="Elipse 172" cx="2.845" cy="2.845" r="2.845" transform="translate(1890.668 230.565)"/>
      <circle id="Elipse_173" data-name="Elipse 173" cx="2.845" cy="2.845" r="2.845" transform="translate(1863.028 234.057)"/>
      <circle id="Elipse_174" data-name="Elipse 174" cx="2.845" cy="2.845" r="2.845" transform="translate(1823.357 234.721)"/>
      <circle id="Elipse_175" data-name="Elipse 175" cx="2.845" cy="2.845" r="2.845" transform="translate(1796.559 230.565)"/>
      <circle id="Elipse_176" data-name="Elipse 176" cx="2.845" cy="2.845" r="2.845" transform="translate(1778.988 226.521)"/>
      <circle id="Elipse_177" data-name="Elipse 177" cx="2.845" cy="2.845" r="2.845" transform="translate(1843.505 201.113)"/>
      <circle id="Elipse_178" data-name="Elipse 178" cx="2.845" cy="2.845" r="2.845" transform="translate(1781.833 262.657)"/>
      <circle id="Elipse_179" data-name="Elipse 179" cx="2.845" cy="2.845" r="2.845" transform="translate(1757.841 253.793)"/>
      <circle id="Elipse_180" data-name="Elipse 180" cx="2.845" cy="2.845" r="2.845" transform="translate(1870.619 298.578)"/>
      <circle id="Elipse_181" data-name="Elipse 181" cx="2.845" cy="2.845" r="2.845" transform="translate(1911.217 298.578)"/>
    </g>
    <line id="Línea_48" data-name="Línea 48" x2="9.773" y2="9.156" transform="translate(1739.963 292.267)" fill="none" stroke="#000" stroke-miterlimit="10" stroke-width="1"/>
    <line id="Línea_49" data-name="Línea 49" x2="9.773" y2="9.156" transform="translate(1768.865 292.267)" fill="none" stroke="#000" stroke-miterlimit="10" stroke-width="1"/>
    <line id="Línea_50" data-name="Línea 50" x2="9.773" y2="9.156" transform="translate(1809.496 292.267)" fill="none" stroke="#000" stroke-miterlimit="10" stroke-width="1"/>
    <line id="Línea_51" data-name="Línea 51" x2="9.773" y2="9.156" transform="translate(1863.831 292.267)" fill="none" stroke="#000" stroke-miterlimit="10" stroke-width="1"/>
    <line id="Línea_52" data-name="Línea 52" x2="9.773" y2="9.156" transform="translate(1861.563 260.924)" fill="none" stroke="#000" stroke-miterlimit="10" stroke-width="1"/>
    <line id="Línea_53" data-name="Línea 53" x2="9.773" y2="9.156" transform="translate(1855.875 227.633)" fill="none" stroke="#000" stroke-miterlimit="10" stroke-width="1"/>
    <line id="Línea_54" data-name="Línea 54" x2="9.773" y2="9.156" transform="translate(1884.951 224.788)" fill="none" stroke="#000" stroke-miterlimit="10" stroke-width="1"/>
    <line id="Línea_55" data-name="Línea 55" x2="9.773" y2="9.156" transform="translate(1816.428 228.832)" fill="none" stroke="#000" stroke-miterlimit="10" stroke-width="1"/>
    <line id="Línea_56" data-name="Línea 56" x2="9.773" y2="9.156" transform="translate(1836.577 195.325)" fill="none" stroke="#000" stroke-miterlimit="10" stroke-width="1"/>
    <line id="Línea_57" data-name="Línea 57" x2="9.773" y2="9.156" transform="translate(1789.63 223.832)" fill="none" stroke="#000" stroke-miterlimit="10" stroke-width="1"/>
    <line id="Línea_58" data-name="Línea 58" x2="9.773" y2="9.156" transform="translate(1772.059 220.211)" fill="none" stroke="#000" stroke-miterlimit="10" stroke-width="1"/>
    <line id="Línea_59" data-name="Línea 59" x2="9.773" y2="9.156" transform="translate(1750.912 247.482)" fill="none" stroke="#000" stroke-miterlimit="10" stroke-width="1"/>
    <line id="Línea_60" data-name="Línea 60" x2="9.773" y2="9.156" transform="translate(1776.336 257.871)" fill="none" stroke="#000" stroke-miterlimit="10" stroke-width="1"/>
    <line id="Línea_61" data-name="Línea 61" x2="9.773" y2="9.156" transform="translate(1811.542 262.449)" fill="none" stroke="#000" stroke-miterlimit="10" stroke-width="1"/>
    <line id="Línea_62" data-name="Línea 62" x2="9.773" y2="9.156" transform="translate(1904.289 292.267)" fill="none" stroke="#000" stroke-miterlimit="10" stroke-width="1"/>
    <line id="Línea_63" data-name="Línea 63" x2="9.773" y2="9.156" transform="translate(1933.363 292.267)" fill="none" stroke="#000" stroke-miterlimit="10" stroke-width="1"/>
    <line id="Línea_64" data-name="Línea 64" x2="9.773" y2="9.156" transform="translate(1923.73 248.371)" fill="none" stroke="#000" stroke-miterlimit="10" stroke-width="1"/>
    <line id="Línea_65" data-name="Línea 65" x2="9.773" y2="9.156" transform="translate(1898.599 256.346)" fill="none" stroke="#000" stroke-miterlimit="10" stroke-width="1"/>
  </g>
</svg>
