<svg xmlns="http://www.w3.org/2000/svg" width="259" height="66" viewBox="0 0 259 66">
  <g id="Grupo_4764" data-name="Grupo 4764" transform="translate(-836 -2425)">
    <g id="Grupo_4715" data-name="Grupo 4715" transform="translate(1048.546 2426.161)">
      <g id="Grupo_4713" data-name="Grupo 4713" transform="translate(1.918 1.577)">
        <path id="Trazado_2452" data-name="Trazado 2452" d="M13500.663,2252.766v51.607" transform="translate(-13500.663 -2250.789)" fill="none" stroke="#000" stroke-width="1"/>
        <path id="Trazado_2453" data-name="Trazado 2453" d="M13500.663,2286.854l36.079-37.877" transform="translate(-13500.663 -2248.977)" fill="none" stroke="#000" stroke-width="1"/>
        <path id="Trazado_2454" data-name="Trazado 2454" d="M13529.343,2291.8l23.776,31.915" transform="translate(-13514.383 -2269.463)" fill="none" stroke="#000" stroke-width="1"/>
      </g>
      <g id="Grupo_4714" data-name="Grupo 4714" transform="translate(5.569 3.672)">
        <path id="Trazado_2452-2" data-name="Trazado 2452" d="M13500.663,2252.766v51.607" transform="translate(-13500.663 -2250.789)" fill="none" stroke="#000" stroke-width="1"/>
        <path id="Trazado_2453-2" data-name="Trazado 2453" d="M13500.663,2286.854l36.079-37.877" transform="translate(-13500.663 -2248.977)" fill="none" stroke="#000" stroke-width="1"/>
        <path id="Trazado_2454-2" data-name="Trazado 2454" d="M13529.343,2291.8l23.776,31.915" transform="translate(-13514.383 -2269.463)" fill="none" stroke="#000" stroke-width="1"/>
      </g>
      <ellipse id="Elipse_216" data-name="Elipse 216" cx="2" cy="2.5" rx="2" ry="2.5" transform="translate(0.454 0.839)"/>
      <circle id="Elipse_218" data-name="Elipse 218" cx="2" cy="2" r="2" transform="translate(0.454 51.839)"/>
      <circle id="Elipse_220" data-name="Elipse 220" cx="1.5" cy="1.5" r="1.5" transform="translate(35.454 -0.161)"/>
      <circle id="Elipse_222" data-name="Elipse 222" cx="2.5" cy="2.5" r="2.5" transform="translate(38.454 52.839)"/>
      <ellipse id="Elipse_224" data-name="Elipse 224" cx="2" cy="1.5" rx="2" ry="1.5" transform="translate(15.454 21.839)"/>
      <ellipse id="Elipse_217" data-name="Elipse 217" cx="1.5" cy="2.5" rx="1.5" ry="2.5" transform="translate(4.454 3.839)"/>
      <ellipse id="Elipse_219" data-name="Elipse 219" cx="1.5" cy="1" rx="1.5" ry="1" transform="translate(4.454 55.839)"/>
      <ellipse id="Elipse_221" data-name="Elipse 221" cx="2.5" cy="2" rx="2.5" ry="2" transform="translate(38.454 1.839)"/>
      <ellipse id="Elipse_223" data-name="Elipse 223" cx="1.5" cy="2" rx="1.5" ry="2" transform="translate(43.454 56.839)"/>
      <ellipse id="Elipse_225" data-name="Elipse 225" cx="1.5" cy="2" rx="1.5" ry="2" transform="translate(19.454 23.839)"/>
    </g>
    <g id="Grupo_4762" data-name="Grupo 4762">
      <ellipse id="Elipse_210" data-name="Elipse 210" cx="1.5" cy="2" rx="1.5" ry="2" transform="translate(1013 2484)"/>
      <circle id="Elipse_212" data-name="Elipse 212" cx="2" cy="2" r="2" transform="translate(1005 2483)"/>
      <path id="Trazado_2451" data-name="Trazado 2451" d="M13389.746,2252.766h32.709l-20.629,24.145,16.277,2.757,4.352,8.671-4.352,13.794-9.83,3.71-9.172-1.223-9.355-7.175" transform="translate(-12397.142 176.949)" fill="none" stroke="#000" stroke-width="1"/>
      <path id="Trazado_2456" data-name="Trazado 2456" d="M13389.746,2252.766h32.709l-20.629,24.145,16.277,2.757,4.352,8.671-4.352,13.794-9.83,3.71-9.172-1.223-9.355-7.175" transform="translate(-12394.01 179.679)" fill="none" stroke="#000" stroke-width="1"/>
      <ellipse id="Elipse_198" data-name="Elipse 198" cx="2" cy="2.5" rx="2" ry="2.5" transform="translate(991 2427)"/>
      <ellipse id="Elipse_201" data-name="Elipse 201" cx="1.5" cy="2.5" rx="1.5" ry="2.5" transform="translate(1023 2427)"/>
      <ellipse id="Elipse_203" data-name="Elipse 203" cx="2" cy="1.5" rx="2" ry="1.5" transform="translate(1002 2452)"/>
      <ellipse id="Elipse_205" data-name="Elipse 205" cx="2" cy="2.5" rx="2" ry="2.5" transform="translate(1019 2454)"/>
      <ellipse id="Elipse_207" data-name="Elipse 207" cx="1.5" cy="2" rx="1.5" ry="2" transform="translate(1023 2463)"/>
      <ellipse id="Elipse_209" data-name="Elipse 209" cx="2.5" cy="1.5" rx="2.5" ry="1.5" transform="translate(1018 2477)"/>
      <ellipse id="Elipse_211" data-name="Elipse 211" cx="2" cy="1" rx="2" ry="1" transform="translate(1009 2482)"/>
      <ellipse id="Elipse_213" data-name="Elipse 213" cx="2" cy="2.5" rx="2" ry="2.5" transform="translate(1001 2479)"/>
      <ellipse id="Elipse_215" data-name="Elipse 215" cx="2.5" cy="1.5" rx="2.5" ry="1.5" transform="translate(991 2473)"/>
      <ellipse id="Elipse_199" data-name="Elipse 199" cx="1.5" cy="2.5" rx="1.5" ry="2.5" transform="translate(995 2430)"/>
      <ellipse id="Elipse_200" data-name="Elipse 200" cx="2" cy="2.5" rx="2" ry="2.5" transform="translate(1026 2430)"/>
      <circle id="Elipse_202" data-name="Elipse 202" cx="2" cy="2" r="2" transform="translate(1006 2455)"/>
      <ellipse id="Elipse_204" data-name="Elipse 204" cx="1.5" cy="1" rx="1.5" ry="1" transform="translate(1023 2459)"/>
      <ellipse id="Elipse_206" data-name="Elipse 206" cx="2" cy="3" rx="2" ry="3" transform="translate(1026 2466)"/>
      <ellipse id="Elipse_208" data-name="Elipse 208" cx="1.5" cy="2.5" rx="1.5" ry="2.5" transform="translate(1023 2479)"/>
      <circle id="Elipse_214" data-name="Elipse 214" cx="1" cy="1" r="1" transform="translate(996 2476)"/>
    </g>
    <g id="Grupo_4763" data-name="Grupo 4763" transform="translate(-45)">
      <ellipse id="Elipse_210-2" data-name="Elipse 210" cx="1.5" cy="2" rx="1.5" ry="2" transform="translate(1013 2484)"/>
      <circle id="Elipse_212-2" data-name="Elipse 212" cx="2" cy="2" r="2" transform="translate(1005 2483)"/>
      <path id="Trazado_2451-2" data-name="Trazado 2451" d="M13389.746,2252.766h32.709l-20.629,24.145,16.277,2.757,4.352,8.671-4.352,13.794-9.83,3.71-9.172-1.223-9.355-7.175" transform="translate(-12397.142 176.949)" fill="none" stroke="#000" stroke-width="1"/>
      <path id="Trazado_2456-2" data-name="Trazado 2456" d="M13389.746,2252.766h32.709l-20.629,24.145,16.277,2.757,4.352,8.671-4.352,13.794-9.83,3.71-9.172-1.223-9.355-7.175" transform="translate(-12394.01 179.679)" fill="none" stroke="#000" stroke-width="1"/>
      <ellipse id="Elipse_198-2" data-name="Elipse 198" cx="2" cy="2.5" rx="2" ry="2.5" transform="translate(991 2427)"/>
      <ellipse id="Elipse_201-2" data-name="Elipse 201" cx="1.5" cy="2.5" rx="1.5" ry="2.5" transform="translate(1023 2427)"/>
      <ellipse id="Elipse_203-2" data-name="Elipse 203" cx="2" cy="1.5" rx="2" ry="1.5" transform="translate(1002 2452)"/>
      <ellipse id="Elipse_205-2" data-name="Elipse 205" cx="2" cy="2.5" rx="2" ry="2.5" transform="translate(1019 2454)"/>
      <ellipse id="Elipse_207-2" data-name="Elipse 207" cx="1.5" cy="2" rx="1.5" ry="2" transform="translate(1023 2463)"/>
      <ellipse id="Elipse_209-2" data-name="Elipse 209" cx="2.5" cy="1.5" rx="2.5" ry="1.5" transform="translate(1018 2477)"/>
      <ellipse id="Elipse_211-2" data-name="Elipse 211" cx="2" cy="1" rx="2" ry="1" transform="translate(1009 2482)"/>
      <ellipse id="Elipse_213-2" data-name="Elipse 213" cx="2" cy="2.5" rx="2" ry="2.5" transform="translate(1001 2479)"/>
      <ellipse id="Elipse_215-2" data-name="Elipse 215" cx="2.5" cy="1.5" rx="2.5" ry="1.5" transform="translate(991 2473)"/>
      <ellipse id="Elipse_199-2" data-name="Elipse 199" cx="1.5" cy="2.5" rx="1.5" ry="2.5" transform="translate(995 2430)"/>
      <ellipse id="Elipse_200-2" data-name="Elipse 200" cx="2" cy="2.5" rx="2" ry="2.5" transform="translate(1026 2430)"/>
      <circle id="Elipse_202-2" data-name="Elipse 202" cx="2" cy="2" r="2" transform="translate(1006 2455)"/>
      <ellipse id="Elipse_204-2" data-name="Elipse 204" cx="1.5" cy="1" rx="1.5" ry="1" transform="translate(1023 2459)"/>
      <ellipse id="Elipse_206-2" data-name="Elipse 206" cx="2" cy="3" rx="2" ry="3" transform="translate(1026 2466)"/>
      <ellipse id="Elipse_208-2" data-name="Elipse 208" cx="1.5" cy="2.5" rx="1.5" ry="2.5" transform="translate(1023 2479)"/>
      <circle id="Elipse_214-2" data-name="Elipse 214" cx="1" cy="1" r="1" transform="translate(996 2476)"/>
    </g>
    <g id="Grupo_4756" data-name="Grupo 4756" transform="translate(836 2425)">
      <g id="Grupo_4735" data-name="Grupo 4735" transform="translate(31.329)">
        <ellipse id="Elipse_186" data-name="Elipse 186" cx="2" cy="1.5" rx="2" ry="1.5" transform="translate(-0.329)"/>
        <circle id="Elipse_226" data-name="Elipse 226" cx="1.5" cy="1.5" r="1.5" transform="translate(4.671 2)"/>
      </g>
      <g id="Grupo_4752" data-name="Grupo 4752" transform="translate(51.855)">
        <circle id="Elipse_186-2" data-name="Elipse 186" cx="1.5" cy="1.5" r="1.5" transform="translate(0.145)"/>
        <circle id="Elipse_226-2" data-name="Elipse 226" cx="1.5" cy="1.5" r="1.5" transform="translate(4.145 2)"/>
      </g>
      <g id="Grupo_4736" data-name="Grupo 4736" transform="translate(10.803 5.402)">
        <ellipse id="Elipse_186-3" data-name="Elipse 186" cx="1.5" cy="2" rx="1.5" ry="2" transform="translate(0.196 -0.402)"/>
        <circle id="Elipse_226-3" data-name="Elipse 226" cx="1.5" cy="1.5" r="1.5" transform="translate(4.196 2.598)"/>
      </g>
      <g id="Grupo_4745" data-name="Grupo 4745" transform="translate(69.141 45.374)">
        <ellipse id="Elipse_186-4" data-name="Elipse 186" cx="1.5" cy="2" rx="1.5" ry="2" transform="translate(-0.141 -0.374)"/>
        <ellipse id="Elipse_226-4" data-name="Elipse 226" cx="2" cy="1.5" rx="2" ry="1.5" transform="translate(3.859 2.626)"/>
      </g>
      <g id="Grupo_4744" data-name="Grupo 4744" transform="translate(43.213 54.016)">
        <circle id="Elipse_186-5" data-name="Elipse 186" cx="1.5" cy="1.5" r="1.5" transform="translate(-0.213 -0.016)"/>
        <circle id="Elipse_226-5" data-name="Elipse 226" cx="1.5" cy="1.5" r="1.5" transform="translate(4.787 1.984)"/>
      </g>
      <g id="Grupo_4748" data-name="Grupo 4748" transform="translate(83.185 48.614)">
        <circle id="Elipse_186-6" data-name="Elipse 186" cx="1.5" cy="1.5" r="1.5" transform="translate(-0.185 0.385)"/>
        <circle id="Elipse_226-6" data-name="Elipse 226" cx="1.5" cy="1.5" r="1.5" transform="translate(4.815 2.385)"/>
      </g>
      <g id="Grupo_4749" data-name="Grupo 4749" transform="translate(79.944 28.088)">
        <circle id="Elipse_186-7" data-name="Elipse 186" cx="1.5" cy="1.5" r="1.5" transform="translate(0.057 -0.088)"/>
        <ellipse id="Elipse_226-7" data-name="Elipse 226" cx="2" cy="1.5" rx="2" ry="1.5" transform="translate(4.057 1.912)"/>
      </g>
      <g id="Grupo_4750" data-name="Grupo 4750" transform="translate(72.382 6.482)">
        <circle id="Elipse_186-8" data-name="Elipse 186" cx="2" cy="2" r="2" transform="translate(-0.382 -0.482)"/>
        <circle id="Elipse_226-8" data-name="Elipse 226" cx="1.5" cy="1.5" r="1.5" transform="translate(4.618 2.518)"/>
      </g>
      <g id="Grupo_4751" data-name="Grupo 4751" transform="translate(39.972 3.241)">
        <circle id="Elipse_186-9" data-name="Elipse 186" cx="1.5" cy="1.5" r="1.5" transform="translate(0.028 -0.241)"/>
        <circle id="Elipse_226-9" data-name="Elipse 226" cx="2" cy="2" r="2" transform="translate(4.028 1.759)"/>
      </g>
      <g id="Grupo_4746" data-name="Grupo 4746" transform="translate(61.578 60.498)">
        <ellipse id="Elipse_186-10" data-name="Elipse 186" cx="1.5" cy="2" rx="1.5" ry="2" transform="translate(0.422 -0.498)"/>
        <circle id="Elipse_226-10" data-name="Elipse 226" cx="1.5" cy="1.5" r="1.5" transform="translate(4.422 2.502)"/>
      </g>
      <g id="Grupo_4747" data-name="Grupo 4747" transform="translate(71.301 57.257)">
        <ellipse id="Elipse_186-11" data-name="Elipse 186" cx="2" cy="1.5" rx="2" ry="1.5" transform="translate(-0.301 -0.257)"/>
        <ellipse id="Elipse_226-11" data-name="Elipse 226" cx="1.5" cy="2" rx="1.5" ry="2" transform="translate(4.699 1.743)"/>
      </g>
      <g id="Grupo_4738" data-name="Grupo 4738" transform="translate(0 49.695)">
        <circle id="Elipse_186-12" data-name="Elipse 186" cx="1.5" cy="1.5" r="1.5" transform="translate(0 0.305)"/>
        <ellipse id="Elipse_226-12" data-name="Elipse 226" cx="2" cy="1.5" rx="2" ry="1.5" transform="translate(4 2.305)"/>
      </g>
      <g id="Grupo_4739" data-name="Grupo 4739" transform="translate(25.928 54.016)">
        <circle id="Elipse_186-13" data-name="Elipse 186" cx="1.5" cy="1.5" r="1.5" transform="translate(0.072 -0.016)"/>
        <circle id="Elipse_226-13" data-name="Elipse 226" cx="1.5" cy="1.5" r="1.5" transform="translate(4.072 1.984)"/>
      </g>
      <g id="Grupo_4737" data-name="Grupo 4737" transform="translate(2.161 28.088)">
        <circle id="Elipse_186-14" data-name="Elipse 186" cx="1.5" cy="1.5" r="1.5" transform="translate(-0.16 -0.088)"/>
        <ellipse id="Elipse_226-14" data-name="Elipse 226" cx="2" cy="1.5" rx="2" ry="1.5" transform="translate(3.84 1.912)"/>
      </g>
      <g id="Grupo_4733" data-name="Grupo 4733" transform="translate(1.831 2.052)">
        <path id="Trazado_2458" data-name="Trazado 2458" d="M13311.481,2474.666l-13.918-3.352-7.688-7.857,2.186-21.4,8.181-21.467,20.678-6.689-18.618,10.721,27.149-7.614,28,6.208-16.316-9.315,20.764,6.689,7.886,21.467,3.053,21.4-10.938,7.857-11.244,3.352-4.4-6.349,12.778-8.36-26.815,8.36-28.783-8.36,12.464,8.36Z" transform="translate(-13289.875 -2413.899)" fill="none" stroke="#000" stroke-width="1"/>
        <path id="Trazado_2459" data-name="Trazado 2459" d="M13305.377,2439.578l3.694-3.339,3.043-2.75,6.874,6.089-6.874,8.367Z" transform="translate(-13284.157 -2406.678)" fill="none" stroke="#000" stroke-width="1"/>
        <path id="Trazado_2460" data-name="Trazado 2460" d="M13305.377,2439.578l3.694-3.339,3.043-2.75,6.874,6.089-6.874,8.367Z" transform="translate(-13259.521 -2406.678)" fill="none" stroke="#000" stroke-width="1"/>
      </g>
      <path id="Trazado_2458-2" data-name="Trazado 2458" d="M13311.481,2474.666l-13.918-3.352-7.688-7.857,2.186-21.4,8.181-21.467,20.678-6.689-18.618,10.721,27.149-7.614,28,6.208-16.316-9.315,20.764,6.689,7.886,21.467,3.053,21.4-10.938,7.857-11.244,3.352-4.4-6.349,12.778-8.36-26.815,8.36-28.783-8.36,12.464,8.36Z" transform="translate(-13283.723 -2410.767)" fill="none" stroke="#000" stroke-width="1"/>
      <g id="Grupo_4754" data-name="Grupo 4754" transform="translate(21.606 25.928)">
        <g id="Grupo_4753" data-name="Grupo 4753">
          <g id="Grupo_4740" data-name="Grupo 4740" transform="translate(6.482)">
            <circle id="Elipse_186-15" data-name="Elipse 186" cx="1.5" cy="1.5" r="1.5" transform="translate(-0.088 0.072)"/>
            <ellipse id="Elipse_226-15" data-name="Elipse 226" cx="2" cy="1.5" rx="2" ry="1.5" transform="translate(3.912 2.072)"/>
          </g>
          <g id="Grupo_4743" data-name="Grupo 4743" transform="translate(12.964 6.482)">
            <ellipse id="Elipse_186-16" data-name="Elipse 186" cx="1.5" cy="2" rx="1.5" ry="2" transform="translate(0.43 -0.41)"/>
            <circle id="Elipse_226-16" data-name="Elipse 226" cx="1.5" cy="1.5" r="1.5" transform="translate(4.43 2.59)"/>
          </g>
          <g id="Grupo_4741" data-name="Grupo 4741" transform="translate(0 6.482)">
            <ellipse id="Elipse_186-17" data-name="Elipse 186" cx="1.5" cy="2" rx="1.5" ry="2" transform="translate(0.394 -0.41)"/>
            <circle id="Elipse_226-17" data-name="Elipse 226" cx="1.5" cy="1.5" r="1.5" transform="translate(4.394 2.59)"/>
          </g>
          <g id="Grupo_4742" data-name="Grupo 4742" transform="translate(6.482 15.125)">
            <circle id="Elipse_186-18" data-name="Elipse 186" cx="1.5" cy="1.5" r="1.5" transform="translate(-0.088 -0.052)"/>
            <ellipse id="Elipse_226-18" data-name="Elipse 226" cx="2" cy="1.5" rx="2" ry="1.5" transform="translate(3.912 1.948)"/>
          </g>
        </g>
        <path id="Trazado_2459-2" data-name="Trazado 2459" d="M13305.377,2439.578l3.694-3.339,3.043-2.75,6.874,6.089-6.874,8.367Z" transform="translate(-13299.611 -2429.473)" fill="none" stroke="#000" stroke-width="1"/>
      </g>
      <g id="Grupo_4755" data-name="Grupo 4755" transform="translate(45.374 25.928)">
        <g id="Grupo_4753-2" data-name="Grupo 4753">
          <g id="Grupo_4740-2" data-name="Grupo 4740" transform="translate(6.482)">
            <circle id="Elipse_186-19" data-name="Elipse 186" cx="1.5" cy="1.5" r="1.5" transform="translate(0.145 0.072)"/>
            <circle id="Elipse_226-19" data-name="Elipse 226" cx="1.5" cy="1.5" r="1.5" transform="translate(4.145 2.072)"/>
          </g>
          <g id="Grupo_4743-2" data-name="Grupo 4743" transform="translate(12.964 6.482)">
            <circle id="Elipse_186-20" data-name="Elipse 186" cx="2" cy="2" r="2" transform="translate(-0.337 -0.41)"/>
            <circle id="Elipse_226-20" data-name="Elipse 226" cx="1.5" cy="1.5" r="1.5" transform="translate(4.663 2.59)"/>
          </g>
          <g id="Grupo_4741-2" data-name="Grupo 4741" transform="translate(0 6.482)">
            <circle id="Elipse_186-21" data-name="Elipse 186" cx="2" cy="2" r="2" transform="translate(-0.373 -0.41)"/>
            <circle id="Elipse_226-21" data-name="Elipse 226" cx="1.5" cy="1.5" r="1.5" transform="translate(4.627 2.59)"/>
          </g>
          <g id="Grupo_4742-2" data-name="Grupo 4742" transform="translate(6.482 15.125)">
            <circle id="Elipse_186-22" data-name="Elipse 186" cx="1.5" cy="1.5" r="1.5" transform="translate(0.145 -0.052)"/>
            <circle id="Elipse_226-22" data-name="Elipse 226" cx="1.5" cy="1.5" r="1.5" transform="translate(4.145 1.948)"/>
          </g>
        </g>
        <path id="Trazado_2459-3" data-name="Trazado 2459" d="M13305.377,2439.578l3.694-3.339,3.043-2.75,6.874,6.089-6.874,8.367Z" transform="translate(-13299.611 -2429.473)" fill="none" stroke="#000" stroke-width="1"/>
      </g>
    </g>
  </g>
</svg>
