<svg xmlns="http://www.w3.org/2000/svg" width="97.459" height="97.849"><g data-name="Grupo 4665" transform="translate(-840.477 -5.31)"><circle data-name="Elipse 141" cx="2.008" cy="2.008" r="2.008" transform="translate(928.612 5.309)"/><circle data-name="Elipse 142" cx="2.008" cy="2.008" r="2.008" transform="translate(933.921 10.761)"/><circle data-name="Elipse 143" cx="2.008" cy="2.008" r="2.008" transform="translate(927.654 41.212)"/><circle data-name="Elipse 144" cx="2.008" cy="2.008" r="2.008" transform="translate(922.029 36.231)"/><circle data-name="Elipse 145" cx="2.008" cy="2.008" r="2.008" transform="translate(903.469 17.671)"/><circle data-name="Elipse 146" cx="2.008" cy="2.008" r="2.008" transform="translate(898.086 12.046)"/><circle data-name="Elipse 147" cx="2.008" cy="2.008" r="2.008" transform="translate(875.589 28.196)"/><circle data-name="Elipse 148" cx="2.008" cy="2.008" r="2.008" transform="translate(881.293 33.579)"/><circle data-name="Elipse 149" cx="2.008" cy="2.008" r="2.008" transform="translate(854.377 39.605)"/><circle data-name="Elipse 150" cx="2.008" cy="2.008" r="2.008" transform="translate(859.6 45.149)"/><circle data-name="Elipse 151" cx="2.008" cy="2.008" r="2.008" transform="translate(868.197 40.329)"/><circle data-name="Elipse 152" cx="2.008" cy="2.008" r="2.008" transform="translate(873.901 45.953)"/><circle data-name="Elipse 153" cx="2.008" cy="2.008" r="2.008" transform="translate(859.439 57.121)"/><circle data-name="Elipse 154" cx="2.008" cy="2.008" r="2.008" transform="translate(853.815 56.398)"/><circle data-name="Elipse 155" cx="2.008" cy="2.008" r="2.008" transform="translate(852.127 66.602)"/><circle data-name="Elipse 156" cx="2.008" cy="2.008" r="2.008" transform="translate(858.475 61.862)"/><circle data-name="Elipse 157" cx="2.008" cy="2.008" r="2.008" transform="translate(863.135 62.504)"/><circle data-name="Elipse 158" cx="2.008" cy="2.008" r="2.008" transform="translate(873.098 51.175)"/><circle data-name="Elipse 159" cx="2.008" cy="2.008" r="2.008" transform="translate(882.9 51.256)"/><circle data-name="Elipse 160" cx="2.008" cy="2.008" r="2.008" transform="translate(888.284 56.478)"/><circle data-name="Elipse 161" cx="2.008" cy="2.008" r="2.008" transform="translate(888.524 64.835)"/><circle data-name="Elipse 162" cx="2.008" cy="2.008" r="2.008" transform="translate(883.222 60.335)"/><circle data-name="Elipse 163" cx="2.008" cy="2.008" r="2.008" transform="translate(878.32 56.639)"/><circle data-name="Elipse 164" cx="2.008" cy="2.008" r="2.008" transform="translate(861.046 73.592)"/><circle data-name="Elipse 165" cx="2.008" cy="2.008" r="2.008" transform="translate(865.947 79.217)"/><circle data-name="Elipse 166" cx="2.008" cy="2.008" r="2.008" transform="translate(840.477 94.001)"/><circle data-name="Elipse 167" cx="2.008" cy="2.008" r="2.008" transform="translate(845.94 99.143)"/><circle data-name="Elipse 168" cx="2.008" cy="2.008" r="2.008" transform="translate(871.491 88.698)"/><circle data-name="Elipse 169" cx="2.008" cy="2.008" r="2.008" transform="translate(876.713 94.081)"/><circle data-name="Elipse 170" cx="2.008" cy="2.008" r="2.008" transform="translate(882.9 86.127)"/><circle data-name="Elipse 171" cx="2.008" cy="2.008" r="2.008" transform="translate(900.014 85.243)"/><circle data-name="Elipse 172" cx="2.008" cy="2.008" r="2.008" transform="translate(894.47 79.779)"/><circle data-name="Elipse 173" cx="2.008" cy="2.008" r="2.008" transform="translate(899.854 71.584)"/><circle data-name="Elipse 174" cx="2.008" cy="2.008" r="2.008" transform="translate(894.068 66.12)"/><circle data-name="Elipse 175" cx="2.008" cy="2.008" r="2.008" transform="translate(907.647 57.925)"/><circle data-name="Elipse 176" cx="2.008" cy="2.008" r="2.008" transform="translate(913.191 63.549)"/><circle data-name="Elipse 177" cx="2.008" cy="2.008" r="2.008" transform="translate(875.267 85.805)"/><circle data-name="Elipse 178" cx="2.008" cy="2.008" r="2.008" transform="translate(877.597 80.904)"/><circle data-name="Elipse 179" cx="2.008" cy="2.008" r="2.008" transform="translate(845.458 62.344)"/><g data-name="Grupo 4663" fill="none" stroke="#000" stroke-miterlimit="10"><path data-name="Trazado 2439" d="m873.614 72.977 5.249 5.142 30.853-18L924.5 38.053l6.214-30.639-30.639 6.642-22.283 16.283-17.14 28.925 4.607 4.928"/><path data-name="Trazado 2440" d="m870.829 42.445-14.57-.964-8.57 22.39 8.035-5.571 4.928.964"/><path data-name="Trazado 2441" d="m896.432 68.049.536 13.82-23.354 8.789 6.106-7.713-.857-4.821"/><path data-name="Trazado 2442" d="m885.077 53.159-10.07-.107-12.106 22.6 22.5-13.82Z"/><path data-name="Trazado 2443" d="m867.511 66.561-2.253-2.368-11.356 3.428-11.3 28.22 29.33-12.809 1.682-10.053-2.259-2.375"/><path data-name="Línea 88" d="m900.075 14.056 24.426 23.997"/></g><g data-name="Grupo 4664" fill="none" stroke="#000" stroke-miterlimit="10"><path data-name="Trazado 2444" d="m879.079 78.441 5.249 5.142 30.853-18 14.784-22.066 6.214-30.642-30.639 6.642-22.283 16.287-17.141 28.925 4.607 4.928"/><path data-name="Trazado 2445" d="m876.293 47.909-14.57-.964-8.57 22.39 8.035-5.571 4.928.964"/><path data-name="Trazado 2446" d="m901.897 73.513.536 13.82-23.354 8.785 6.106-7.713-.857-4.821"/><path data-name="Trazado 2447" d="m890.541 58.622-10.07-.107-12.106 22.6 22.494-13.817Z"/><path data-name="Trazado 2448" d="m872.973 72.025-2.253-2.368-11.354 3.426-11.3 28.22 29.33-12.809 1.683-10.054-2.259-2.375"/><path data-name="Línea 89" d="m905.539 19.52 24.426 23.997"/></g><path data-name="Línea 90" fill="none" stroke="#000" stroke-miterlimit="10" d="m936.178 12.878-5.464-5.464"/><path data-name="Línea 91" fill="none" stroke="#000" stroke-miterlimit="10" d="m890.541 58.622-5.464-5.464"/><path data-name="Línea 92" fill="none" stroke="#000" stroke-miterlimit="10" d="m880.471 58.515-5.464-5.464"/><path data-name="Línea 93" fill="none" stroke="#000" stroke-miterlimit="10" d="m890.862 67.3-5.464-5.464"/><path data-name="Línea 94" fill="none" stroke="#000" stroke-miterlimit="10" d="m868.365 81.119-5.035-6.481"/><path data-name="Línea 95" fill="none" stroke="#000" stroke-miterlimit="10" d="m902.432 87.333-5.464-5.464"/><path data-name="Línea 96" fill="none" stroke="#000" stroke-miterlimit="10" d="m879.078 96.118-5.464-5.464"/><path data-name="Línea 97" fill="none" stroke="#000" stroke-miterlimit="10" d="m854.331 68.531-6.642-4.66"/><path data-name="Línea 98" fill="none" stroke="#000" stroke-miterlimit="10" d="m848.066 101.305-5.464-5.464"/><path data-name="Línea 99" fill="none" stroke="#000" stroke-miterlimit="10" d="m877.396 88.495-5.464-5.464"/><path data-name="Línea 100" fill="none" stroke="#000" stroke-miterlimit="10" d="m859.366 73.085-5.464-5.464"/><path data-name="Línea 101" fill="none" stroke="#000" stroke-miterlimit="10" d="m856.259 41.481 5.464 5.464"/><path data-name="Línea 102" fill="none" stroke="#000" stroke-miterlimit="10" d="m915.181 65.586-5.464-5.464"/><path data-name="Línea 103" fill="none" stroke="#000" stroke-miterlimit="10" d="m883.416 35.268-5.624-4.928"/><path data-name="Línea 104" fill="none" stroke="#000" stroke-miterlimit="10" d="m861.188 63.765-5.464-5.464"/><path data-name="Línea 105" fill="none" stroke="#000" stroke-miterlimit="10" d="m885.185 88.404-5.464-5.464"/></g></svg>