<svg xmlns="http://www.w3.org/2000/svg" width="67.238" height="101.494"><g data-name="Grupo 4534" transform="translate(-624.711 -6.573)"><circle data-name="Elipse 28" cx="2.227" cy="2.227" r="2.227" transform="translate(638.7 12.373)"/><circle data-name="Elipse 29" cx="2.227" cy="2.227" r="2.227" transform="translate(633.241 24.485)"/><circle data-name="Elipse 30" cx="2.227" cy="2.227" r="2.227" transform="translate(624.711 43.249)"/><circle data-name="Elipse 31" cx="2.227" cy="2.227" r="2.227" transform="translate(630.883 47.217)"/><circle data-name="Elipse 32" cx="2.227" cy="2.227" r="2.227" transform="translate(633.013 42.955)"/><circle data-name="Elipse 33" cx="2.227" cy="2.227" r="2.227" transform="translate(639.258 46.702)"/><circle data-name="Elipse 34" cx="2.227" cy="2.227" r="2.227" transform="translate(653.041 60.722)"/><circle data-name="Elipse 35" cx="2.227" cy="2.227" r="2.227" transform="translate(644.724 80.089)"/><circle data-name="Elipse 36" cx="2.227" cy="2.227" r="2.227" transform="translate(660.645 80.089)"/><circle data-name="Elipse 37" cx="2.227" cy="2.227" r="2.227" transform="translate(650.308 70.465)"/><circle data-name="Elipse 38" cx="2.227" cy="2.227" r="2.227" transform="translate(655.892 70.465)"/><circle data-name="Elipse 39" cx="2.227" cy="2.227" r="2.227" transform="translate(646.268 66.306)"/><circle data-name="Elipse 40" cx="2.227" cy="2.227" r="2.227" transform="translate(658.981 66.306)"/><circle data-name="Elipse 41" cx="2.227" cy="2.227" r="2.227" transform="translate(653.041 42.782)"/><circle data-name="Elipse 42" cx="2.227" cy="2.227" r="2.227" transform="translate(681.199 70.227)"/><circle data-name="Elipse 43" cx="2.227" cy="2.227" r="2.227" transform="translate(681.199 99.692)"/><circle data-name="Elipse 44" cx="2.227" cy="2.227" r="2.227" transform="translate(624.882 99.692)"/><circle data-name="Elipse 45" cx="2.227" cy="2.227" r="2.227" transform="translate(630.585 103.613)"/><circle data-name="Elipse 46" cx="2.227" cy="2.227" r="2.227" transform="translate(687.496 103.613)"/><circle data-name="Elipse 47" cx="2.227" cy="2.227" r="2.227" transform="translate(678.638 46.702)"/><circle data-name="Elipse 48" cx="2.227" cy="2.227" r="2.227" transform="translate(672.614 43.029)"/><circle data-name="Elipse 49" cx="2.227" cy="2.227" r="2.227" transform="translate(681.651 42.808)"/><circle data-name="Elipse 50" cx="2.227" cy="2.227" r="2.227" transform="translate(687.381 46.849)"/><circle data-name="Elipse 51" cx="2.227" cy="2.227" r="2.227" transform="translate(658.488 10.326)"/><circle data-name="Elipse 52" cx="2.227" cy="2.227" r="2.227" transform="translate(666.388 12.012)"/><circle data-name="Elipse 53" cx="2.227" cy="2.227" r="2.227" transform="translate(672.53 15.594)"/><circle data-name="Elipse 54" cx="2.227" cy="2.227" r="2.227" transform="translate(672.188 24.635)"/><circle data-name="Elipse 55" cx="2.227" cy="2.227" r="2.227" transform="translate(678.33 27.706)"/><circle data-name="Elipse 56" cx="2.227" cy="2.227" r="2.227" transform="translate(653.2 6.573)"/><circle data-name="Elipse 57" cx="2.227" cy="2.227" r="2.227" transform="translate(645.065 16.447)"/><circle data-name="Elipse 58" cx="2.227" cy="2.227" r="2.227" transform="translate(639.265 27.876)"/><g data-name="Grupo 4534" fill="none" stroke="#000" stroke-miterlimit="10"><path data-name="Rectángulo 513" d="M626.891 45.369h56.876v56.876h-56.876z"/><path data-name="Trazado 2413" d="M663.687 82.932H646.57l6.583-10.251-4.138-3.856 6.4-6.113 6.3 5.737-3.856 4.138Z"/><path data-name="Línea 44" d="M655.41 62.712V45.501"/><path data-name="Línea 45" d="M657.856 72.587h26.146"/><path data-name="Línea 46" d="M653.153 72.681h-26.428"/><path data-name="Trazado 2414" d="m646.57 82.932-19.678 19.313 6.059 3.921"/><path data-name="Trazado 2415" d="m663.687 82.932 20.081 19.313 6.059 3.921"/><path data-name="Trazado 2416" d="M635.284 45.595v-18.81l5.737-12.038 14.3-6.019 13.261 5.549 6.207 12.132v18.9"/><path data-name="Trazado 2417" d="m661.712 68.449 22.056-23.08 6.059 3.921"/><path data-name="Línea 47" d="m626.891 45.369 22.124 23.456"/></g><g data-name="Grupo 4535" fill="none" stroke="#000" stroke-miterlimit="10"><path data-name="Rectángulo 514" d="M632.951 49.29h56.876v56.876h-56.876z"/><path data-name="Trazado 2418" d="M641.343 49.516v-18.81l5.737-12.038 14.3-6.019 13.257 5.551 6.207 12.132v18.9"/></g><path data-name="Línea 48" fill="none" stroke="#000" stroke-miterlimit="10" d="m632.95 49.29-6.059-3.921"/><path data-name="Línea 49" fill="none" stroke="#000" stroke-miterlimit="10" d="m635.284 26.785 6.059 3.921"/><path data-name="Línea 50" fill="none" stroke="#000" stroke-miterlimit="10" d="m641.021 14.747 6.059 3.921"/><path data-name="Línea 51" fill="none" stroke="#000" stroke-miterlimit="10" d="m655.316 8.728 6.059 3.921"/><path data-name="Línea 52" fill="none" stroke="#000" stroke-miterlimit="10" d="m668.577 14.277 6.059 3.921"/><path data-name="Línea 53" fill="none" stroke="#000" stroke-miterlimit="10" d="m674.784 26.409 6.059 3.921"/></g></svg>