<svg xmlns="http://www.w3.org/2000/svg" width="15.339" height="21.25" viewBox="0 0 15.339 21.25">
  <g id="Grupo_4414" data-name="Grupo 4414" transform="translate(-375.512 -1221.875)">
    <path id="Trazado_1678" data-name="Trazado 1678" d="M395.572-1343.732v14.974a1.008,1.008,0,0,1-1.007,1.009H381.24a1.008,1.008,0,0,1-1.007-1.009v-19.232A1.008,1.008,0,0,1,381.24-1349h8.707Z" transform="translate(-4.721 2570.874)" fill="#fff"/>
    <g id="Grupo_143" data-name="Grupo 143" transform="translate(377.302 1230.724)">
      <path id="Trazado_1680" data-name="Trazado 1680" d="M351.906-1082.06v-4.809h1.512a3.515,3.515,0,0,1,.738.073,1.592,1.592,0,0,1,.591.25,1.209,1.209,0,0,1,.389.46,1.583,1.583,0,0,1,.139.7,1.6,1.6,0,0,1-.139.691,1.357,1.357,0,0,1-.385.489,1.607,1.607,0,0,1-.58.287,2.714,2.714,0,0,1-.723.092h-.69v1.765Zm.852-2.449h.624q1.057,0,1.057-.875a.684.684,0,0,0-.275-.629,1.545,1.545,0,0,0-.811-.173h-.595Z" transform="translate(-351.906 1086.87)" fill="#3a3a3a"/>
      <path id="Trazado_1681" data-name="Trazado 1681" d="M480-1082.06v-4.809h1.285a2.37,2.37,0,0,1,1.718.6,2.377,2.377,0,0,1,.617,1.787,3.21,3.21,0,0,1-.158,1.052,2.02,2.02,0,0,1-.455.761,1.906,1.906,0,0,1-.72.46,2.782,2.782,0,0,1-.958.154Zm.852-.691h.374a1.462,1.462,0,0,0,1.127-.423,1.878,1.878,0,0,0,.393-1.312,1.785,1.785,0,0,0-.4-1.287,1.5,1.5,0,0,0-1.123-.4h-.374Z" transform="translate(-475.73 1086.87)" fill="#3a3a3a"/>
      <path id="Trazado_1682" data-name="Trazado 1682" d="M617.568-1082.06v-4.809h2.9v.721H618.42v1.361h1.747v.721H618.42v2.007Z" transform="translate(-608.706 1086.87)" fill="#3a3a3a"/>
    </g>
    <path id="Trazado_1679" data-name="Trazado 1679" d="M856.983-1343.732v.156h-5.011a.694.694,0,0,1-.693-.694V-1349h.079Z" transform="translate(-466.132 2570.874)" fill="#c8c8c8"/>
  </g>
</svg>
