<svg xmlns="http://www.w3.org/2000/svg" width="41" height="41" viewBox="0 0 41 41">
  <g id="Grupo_4621" data-name="Grupo 4621" transform="translate(-1738 -4004.532)">
    <rect id="Rectángulo_62" data-name="Rectángulo 62" width="41" height="41" transform="translate(1738 4004.532)" fill="none"/>
    <rect id="Rectángulo_63" data-name="Rectángulo 63" width="41" height="41" transform="translate(1738 4004.532)" fill="none"/>
    <rect id="Rectángulo_64" data-name="Rectángulo 64" width="41" height="41" transform="translate(1738 4004.532)" fill="none"/>
    <path id="Trazado_42" data-name="Trazado 42" d="M20.929,2a18.843,18.843,0,1,0,13.41,5.519A18.929,18.929,0,0,0,20.929,2Zm0,34.417A15.487,15.487,0,1,1,36.417,20.929,15.487,15.487,0,0,1,20.929,36.416Z" transform="translate(1737.721 4003.953)" fill="#3a3a3a"/>
    <path id="Trazado_43" data-name="Trazado 43" d="M30.929,20.6H24.046V13.721a1.721,1.721,0,0,0-3.442,0V20.6H13.721a1.721,1.721,0,0,0,0,3.442H20.6v6.883a1.721,1.721,0,0,0,3.442,0V24.046h6.883a1.721,1.721,0,0,0,0-3.442Z" transform="translate(1736.325 4002.557)" fill="#3a3a3a"/>
  </g>
</svg>
