<svg xmlns="http://www.w3.org/2000/svg" width="196.877" height="212.635" viewBox="0 0 196.877 212.635">
  <g id="Grupo_3" data-name="Grupo 3" transform="translate(-844.894 -189.894)">
    <g id="Grupo_1" data-name="Grupo 1">
      <path id="Trazado_2" data-name="Trazado 2" d="M847.739,289.967l53.7-48.049,24.307,24.024,87.053-73.2" fill="none" stroke="#000" stroke-miterlimit="10" stroke-width="1"/>
      <path id="Trazado_3" data-name="Trazado 3" d="M981.71,192.739h31.09v28.829" fill="none" stroke="#000" stroke-miterlimit="10" stroke-width="1"/>
      <rect id="Rectángulo_1" data-name="Rectángulo 1" width="44.657" height="73.528" rx="3.821" transform="translate(852.261 320.45)" fill="none" stroke="#000" stroke-miterlimit="10" stroke-width="1"/>
      <rect id="Rectángulo_2" data-name="Rectángulo 2" width="44.657" height="104.011" rx="3.821" transform="translate(918.964 289.967)" fill="none" stroke="#000" stroke-miterlimit="10" stroke-width="1"/>
      <rect id="Rectángulo_3" data-name="Rectángulo 3" width="44.657" height="136.797" rx="3.821" transform="translate(986.928 257.181)" fill="none" stroke="#000" stroke-miterlimit="10" stroke-width="1"/>
      <circle id="Elipse_11" data-name="Elipse 11" cx="2.845" cy="2.845" r="2.845" transform="translate(850.873 318.4)"/>
      <circle id="Elipse_12" data-name="Elipse 12" cx="2.845" cy="2.845" r="2.845" transform="translate(844.894 287.122)"/>
      <circle id="Elipse_13" data-name="Elipse 13" cx="2.845" cy="2.845" r="2.845" transform="translate(898.596 239.073)"/>
      <circle id="Elipse_14" data-name="Elipse 14" cx="2.845" cy="2.845" r="2.845" transform="translate(922.43 262.831)"/>
      <circle id="Elipse_15" data-name="Elipse 15" cx="2.845" cy="2.845" r="2.845" transform="translate(1009.955 189.894)"/>
      <circle id="Elipse_16" data-name="Elipse 16" cx="2.845" cy="2.845" r="2.845" transform="translate(1009.955 218.723)"/>
      <circle id="Elipse_17" data-name="Elipse 17" cx="2.845" cy="2.845" r="2.845" transform="translate(978.865 189.894)"/>
      <circle id="Elipse_18" data-name="Elipse 18" cx="2.845" cy="2.845" r="2.845" transform="translate(892.566 318.4)"/>
      <circle id="Elipse_19" data-name="Elipse 19" cx="2.845" cy="2.845" r="2.845" transform="translate(917.601 287.122)"/>
      <circle id="Elipse_20" data-name="Elipse 20" cx="2.845" cy="2.845" r="2.845" transform="translate(959.294 287.122)"/>
      <circle id="Elipse_21" data-name="Elipse 21" cx="2.845" cy="2.845" r="2.845" transform="translate(985.565 254.336)"/>
      <circle id="Elipse_22" data-name="Elipse 22" cx="2.845" cy="2.845" r="2.845" transform="translate(1027.258 254.336)"/>
      <circle id="Elipse_23" data-name="Elipse 23" cx="2.845" cy="2.845" r="2.845" transform="translate(917.601 391.133)"/>
      <circle id="Elipse_24" data-name="Elipse 24" cx="2.845" cy="2.845" r="2.845" transform="translate(959.294 391.133)"/>
      <circle id="Elipse_25" data-name="Elipse 25" cx="2.845" cy="2.845" r="2.845" transform="translate(985.565 391.133)"/>
      <circle id="Elipse_26" data-name="Elipse 26" cx="2.845" cy="2.845" r="2.845" transform="translate(1027.258 391.133)"/>
      <circle id="Elipse_27" data-name="Elipse 27" cx="2.845" cy="2.845" r="2.845" transform="translate(850.873 391.133)"/>
      <circle id="Elipse_28" data-name="Elipse 28" cx="2.845" cy="2.845" r="2.845" transform="translate(892.566 391.133)"/>
    </g>
    <g id="Grupo_2" data-name="Grupo 2">
      <path id="Trazado_4" data-name="Trazado 4" d="M856.563,295.674l53.7-48.049,24.307,24.024,87.053-73.2" fill="none" stroke="#000" stroke-miterlimit="10" stroke-width="1"/>
      <path id="Trazado_5" data-name="Trazado 5" d="M990.534,198.446h31.09v28.829" fill="none" stroke="#000" stroke-miterlimit="10" stroke-width="1"/>
      <rect id="Rectángulo_4" data-name="Rectángulo 4" width="44.657" height="73.528" rx="3.821" transform="translate(861.085 326.157)" fill="none" stroke="#000" stroke-miterlimit="10" stroke-width="1"/>
      <rect id="Rectángulo_5" data-name="Rectángulo 5" width="44.657" height="104.011" rx="3.821" transform="translate(927.788 295.674)" fill="none" stroke="#000" stroke-miterlimit="10" stroke-width="1"/>
      <rect id="Rectángulo_6" data-name="Rectángulo 6" width="44.657" height="136.797" rx="3.821" transform="translate(995.752 262.887)" fill="none" stroke="#000" stroke-miterlimit="10" stroke-width="1"/>
      <circle id="Elipse_29" data-name="Elipse 29" cx="2.845" cy="2.845" r="2.845" transform="translate(859.697 324.106)"/>
      <circle id="Elipse_30" data-name="Elipse 30" cx="2.845" cy="2.845" r="2.845" transform="translate(853.718 292.829)"/>
      <circle id="Elipse_31" data-name="Elipse 31" cx="2.845" cy="2.845" r="2.845" transform="translate(907.419 244.78)"/>
      <circle id="Elipse_32" data-name="Elipse 32" cx="2.845" cy="2.845" r="2.845" transform="translate(931.253 268.538)"/>
      <circle id="Elipse_33" data-name="Elipse 33" cx="2.845" cy="2.845" r="2.845" transform="translate(1018.779 195.601)"/>
      <circle id="Elipse_34" data-name="Elipse 34" cx="2.845" cy="2.845" r="2.845" transform="translate(1018.779 224.43)"/>
      <circle id="Elipse_35" data-name="Elipse 35" cx="2.845" cy="2.845" r="2.845" transform="translate(987.689 195.601)"/>
      <circle id="Elipse_36" data-name="Elipse 36" cx="2.845" cy="2.845" r="2.845" transform="translate(901.39 324.106)"/>
      <circle id="Elipse_37" data-name="Elipse 37" cx="2.845" cy="2.845" r="2.845" transform="translate(926.425 292.829)"/>
      <circle id="Elipse_38" data-name="Elipse 38" cx="2.845" cy="2.845" r="2.845" transform="translate(968.118 292.829)"/>
      <circle id="Elipse_39" data-name="Elipse 39" cx="2.845" cy="2.845" r="2.845" transform="translate(994.389 260.043)"/>
      <circle id="Elipse_40" data-name="Elipse 40" cx="2.845" cy="2.845" r="2.845" transform="translate(1036.082 260.043)"/>
      <circle id="Elipse_41" data-name="Elipse 41" cx="2.845" cy="2.845" r="2.845" transform="translate(926.425 396.84)"/>
      <circle id="Elipse_42" data-name="Elipse 42" cx="2.845" cy="2.845" r="2.845" transform="translate(968.118 396.84)"/>
      <circle id="Elipse_43" data-name="Elipse 43" cx="2.845" cy="2.845" r="2.845" transform="translate(994.389 396.84)"/>
      <circle id="Elipse_44" data-name="Elipse 44" cx="2.845" cy="2.845" r="2.845" transform="translate(1036.082 396.84)"/>
      <circle id="Elipse_45" data-name="Elipse 45" cx="2.845" cy="2.845" r="2.845" transform="translate(859.697 396.84)"/>
      <circle id="Elipse_46" data-name="Elipse 46" cx="2.845" cy="2.845" r="2.845" transform="translate(901.39 396.84)"/>
    </g>
    <line id="Línea_1" data-name="Línea 1" x2="8.824" y2="5.707" transform="translate(853.718 393.978)" fill="none" stroke="#000" stroke-miterlimit="10" stroke-width="1"/>
    <line id="Línea_2" data-name="Línea 2" x2="8.824" y2="5.707" transform="translate(895.089 393.978)" fill="none" stroke="#000" stroke-miterlimit="10" stroke-width="1"/>
    <line id="Línea_3" data-name="Línea 3" x2="8.824" y2="5.707" transform="translate(853.718 321.236)" fill="none" stroke="#000" stroke-miterlimit="10" stroke-width="1"/>
    <line id="Línea_4" data-name="Línea 4" x2="8.824" y2="5.707" transform="translate(895.089 321.236)" fill="none" stroke="#000" stroke-miterlimit="10" stroke-width="1"/>
    <line id="Línea_5" data-name="Línea 5" x2="8.824" y2="5.707" transform="translate(920.446 393.978)" fill="none" stroke="#000" stroke-miterlimit="10" stroke-width="1"/>
    <line id="Línea_6" data-name="Línea 6" x2="8.824" y2="5.707" transform="translate(961.817 393.978)" fill="none" stroke="#000" stroke-miterlimit="10" stroke-width="1"/>
    <line id="Línea_7" data-name="Línea 7" x2="8.824" y2="5.707" transform="translate(920.446 289.975)" fill="none" stroke="#000" stroke-miterlimit="10" stroke-width="1"/>
    <line id="Línea_8" data-name="Línea 8" x2="8.824" y2="5.707" transform="translate(961.817 289.975)" fill="none" stroke="#000" stroke-miterlimit="10" stroke-width="1"/>
    <line id="Línea_9" data-name="Línea 9" x2="8.824" y2="5.707" transform="translate(988.41 393.978)" fill="none" stroke="#000" stroke-miterlimit="10" stroke-width="1"/>
    <line id="Línea_10" data-name="Línea 10" x2="8.824" y2="5.707" transform="translate(1029.781 393.978)" fill="none" stroke="#000" stroke-miterlimit="10" stroke-width="1"/>
    <line id="Línea_11" data-name="Línea 11" x2="8.824" y2="5.707" transform="translate(988.41 257.172)" fill="none" stroke="#000" stroke-miterlimit="10" stroke-width="1"/>
    <line id="Línea_12" data-name="Línea 12" x2="8.824" y2="5.707" transform="translate(1029.781 257.172)" fill="none" stroke="#000" stroke-miterlimit="10" stroke-width="1"/>
  </g>
</svg>
