<svg xmlns="http://www.w3.org/2000/svg" width="206.896" height="195.079" viewBox="0 0 206.896 195.079">
  <g id="Grupo_42" data-name="Grupo 42" transform="translate(-503.399 -205.534)">
    <g id="Grupo_38" data-name="Grupo 38">
      <g id="Grupo_37" data-name="Grupo 37">
        <path id="Trazado_61" data-name="Trazado 61" d="M611.946,283.626a50.307,50.307,0,0,0,6.81-3.734c3.3-2.2,6.676-5.273,14.322-5.053s10.942,4.174,14.457,6.151,5.052,2.636,5.052,2.636-2.195,1.346-5.779,4.064-7.909,5.561-13.84,5.685-13.1-3.954-15.448-5.808S611.946,283.626,611.946,283.626Z" fill="none" stroke="#000" stroke-miterlimit="10" stroke-width="1"/>
        <circle id="Elipse_296" data-name="Elipse 296" cx="6.346" cy="6.346" r="6.346" transform="translate(625.331 277.678)" fill="none" stroke="#000" stroke-miterlimit="10" stroke-width="1"/>
        <path id="Trazado_62" data-name="Trazado 62" d="M658.762,307.126a35.562,35.562,0,1,0-6,5.591l9.858,10.062,5.849-5.749Zm-27.085,4.83a27.932,27.932,0,1,1,27.932-27.932A27.933,27.933,0,0,1,631.677,311.956Z" fill="none" stroke="#000" stroke-miterlimit="10" stroke-width="1"/>
        <path id="Rectángulo_9" data-name="Rectángulo 9" d="M0,0H18.651a0,0,0,0,1,0,0V28.8a9.325,9.325,0,0,1-9.325,9.325h0A9.325,9.325,0,0,1,0,28.8V0A0,0,0,0,1,0,0Z" transform="translate(658.863 326.571) rotate(-44.507)" fill="none" stroke="#000" stroke-miterlimit="10" stroke-width="1"/>
        <g id="Grupo_36" data-name="Grupo 36">
          <path id="Trazado_63" data-name="Trazado 63" d="M603.9,260.3H555.313c-11.817,3.5-24.072,12.693-36.327,35.014-12.53,22.823-19.983,60.739,1.143,81.046,17.292,16.62,48.191,13.022,70.1,13,14.7-.015,30.809-.495,43.073-6.754,8.718-4.45,15.495-11.82,18.449-24.02,3.364-13.9,1.358-29.072-3.147-43.246" fill="none" stroke="#000" stroke-miterlimit="10" stroke-width="1"/>
          <rect id="Rectángulo_10" data-name="Rectángulo 10" width="49.019" height="18.382" transform="translate(554.875 241.923)" fill="none" stroke="#000" stroke-miterlimit="10" stroke-width="1"/>
          <path id="Trazado_64" data-name="Trazado 64" d="M603.895,241.923l11.419-9.973V209.689H603.895l-7.939,7.743L587,209.689H572l-8.469,7.5-8.656-8.227h-10.7v22.02l10.7,10.941" fill="none" stroke="#000" stroke-miterlimit="10" stroke-width="1"/>
          <path id="Trazado_65" data-name="Trazado 65" d="M566.9,327.949a10.074,10.074,0,0,0,1.559,6.231c3.1,4.409,10.073,2.932,14.668,2.941s8.213-2.372,8.06-7.41c-.4-13.155-24.074-5.766-23.112-18.4.5-6.583,7.213-7.16,12.47-6.945,2.456.1,5.291-.167,7.286,1.377a9.637,9.637,0,0,1,3.361,8.5" fill="none" stroke="#000" stroke-miterlimit="10" stroke-width="1"/>
          <line id="Línea_106" data-name="Línea 106" y2="10.968" transform="translate(579.059 293.673)" fill="none" stroke="#000" stroke-miterlimit="10" stroke-width="1"/>
          <line id="Línea_107" data-name="Línea 107" y1="11.357" transform="translate(579.617 337.158)" fill="none" stroke="#000" stroke-miterlimit="10" stroke-width="1"/>
          <path id="Trazado_66" data-name="Trazado 66" d="M596.077,284.191a40.172,40.172,0,1,0,23.706,36.649V317.6" fill="none" stroke="#000" stroke-miterlimit="10" stroke-width="1"/>
        </g>
      </g>
      <circle id="Elipse_297" data-name="Elipse 297" cx="3.429" cy="3.429" r="3.429" transform="translate(552.917 205.534)"/>
      <circle id="Elipse_298" data-name="Elipse 298" cx="3.429" cy="3.429" r="3.429" transform="translate(540.745 205.534)"/>
      <circle id="Elipse_299" data-name="Elipse 299" cx="3.429" cy="3.429" r="3.429" transform="translate(561.343 213.96)"/>
      <circle id="Elipse_300" data-name="Elipse 300" cx="3.429" cy="3.429" r="3.429" transform="translate(592.64 213.96)"/>
      <circle id="Elipse_301" data-name="Elipse 301" cx="3.429" cy="3.429" r="3.429" transform="translate(568.2 205.534)"/>
      <circle id="Elipse_302" data-name="Elipse 302" cx="3.429" cy="3.429" r="3.429" transform="translate(584.373 205.534)"/>
      <circle id="Elipse_303" data-name="Elipse 303" cx="3.429" cy="3.429" r="3.429" transform="translate(600.466 205.534)"/>
      <circle id="Elipse_304" data-name="Elipse 304" cx="3.429" cy="3.429" r="3.429" transform="translate(611.885 205.534)"/>
      <circle id="Elipse_305" data-name="Elipse 305" cx="3.429" cy="3.429" r="3.429" transform="translate(540.745 228.096)"/>
      <circle id="Elipse_306" data-name="Elipse 306" cx="3.429" cy="3.429" r="3.429" transform="translate(551.447 238.494)"/>
      <circle id="Elipse_307" data-name="Elipse 307" cx="3.429" cy="3.429" r="3.429" transform="translate(551.447 256.091)"/>
      <circle id="Elipse_308" data-name="Elipse 308" cx="3.429" cy="3.429" r="3.429" transform="translate(524.612 277.678)"/>
      <circle id="Elipse_309" data-name="Elipse 309" cx="3.429" cy="3.429" r="3.429" transform="translate(503.399 330.201)"/>
      <circle id="Elipse_310" data-name="Elipse 310" cx="3.429" cy="3.429" r="3.429" transform="translate(648.083 328.696)"/>
      <circle id="Elipse_311" data-name="Elipse 311" cx="3.429" cy="3.429" r="3.429" transform="translate(549.489 386.279)"/>
      <circle id="Elipse_312" data-name="Elipse 312" cx="3.429" cy="3.429" r="3.429" transform="translate(603.744 386.279)"/>
      <circle id="Elipse_313" data-name="Elipse 313" cx="3.429" cy="3.429" r="3.429" transform="translate(649.329 309.288)"/>
      <circle id="Elipse_314" data-name="Elipse 314" cx="3.429" cy="3.429" r="3.429" transform="translate(655.234 303.383)"/>
      <circle id="Elipse_315" data-name="Elipse 315" cx="3.429" cy="3.429" r="3.429" transform="translate(668.735 310.068)"/>
      <circle id="Elipse_316" data-name="Elipse 316" cx="3.429" cy="3.429" r="3.429" transform="translate(656.18 280.595)"/>
      <circle id="Elipse_317" data-name="Elipse 317" cx="3.429" cy="3.429" r="3.429" transform="translate(628.248 244.987)"/>
      <circle id="Elipse_318" data-name="Elipse 318" cx="3.429" cy="3.429" r="3.429" transform="translate(628.248 316.203)"/>
      <circle id="Elipse_319" data-name="Elipse 319" cx="3.429" cy="3.429" r="3.429" transform="translate(688.811 343.796)"/>
      <circle id="Elipse_320" data-name="Elipse 320" cx="3.429" cy="3.429" r="3.429" transform="translate(600.316 280.595)"/>
      <circle id="Elipse_321" data-name="Elipse 321" cx="3.429" cy="3.429" r="3.429" transform="translate(576.188 277.245)"/>
      <circle id="Elipse_322" data-name="Elipse 322" cx="3.429" cy="3.429" r="3.429" transform="translate(576.188 357.578)"/>
      <circle id="Elipse_323" data-name="Elipse 323" cx="3.429" cy="3.429" r="3.429" transform="translate(536.022 319.35)"/>
      <circle id="Elipse_324" data-name="Elipse 324" cx="3.429" cy="3.429" r="3.429" transform="translate(615.313 319.35)"/>
      <circle id="Elipse_325" data-name="Elipse 325" cx="3.429" cy="3.429" r="3.429" transform="translate(655.434 323.142)"/>
      <circle id="Elipse_326" data-name="Elipse 326" cx="3.429" cy="3.429" r="3.429" transform="translate(600.316 256.091)"/>
      <circle id="Elipse_327" data-name="Elipse 327" cx="3.429" cy="3.429" r="3.429" transform="translate(600.316 238.494)"/>
      <circle id="Elipse_328" data-name="Elipse 328" cx="3.429" cy="3.429" r="3.429" transform="translate(611.885 228.096)"/>
    </g>
    <g id="Grupo_41" data-name="Grupo 41">
      <g id="Grupo_40" data-name="Grupo 40">
        <path id="Trazado_67" data-name="Trazado 67" d="M669.46,314.6a35.563,35.563,0,1,0-6,5.591l9.858,10.062,5.849-5.749Zm-27.085,4.83A27.933,27.933,0,1,1,670.307,291.5,27.932,27.932,0,0,1,642.375,319.432Z" fill="none" stroke="#000" stroke-miterlimit="10" stroke-width="1"/>
        <path id="Rectángulo_11" data-name="Rectángulo 11" d="M0,0H18.651a0,0,0,0,1,0,0V28.8a9.325,9.325,0,0,1-9.325,9.325h0A9.325,9.325,0,0,1,0,28.8V0A0,0,0,0,1,0,0Z" transform="translate(669.561 334.047) rotate(-44.507)" fill="none" stroke="#000" stroke-miterlimit="10" stroke-width="1"/>
        <g id="Grupo_39" data-name="Grupo 39">
          <path id="Trazado_68" data-name="Trazado 68" d="M614.593,267.781H566.011c-11.817,3.5-24.072,12.693-36.326,35.014-12.531,22.824-19.984,60.739,1.143,81.046,17.291,16.62,48.19,13.022,70.1,13,14.7-.015,30.809-.495,43.073-6.754,8.718-4.45,15.5-11.82,18.449-24.02,3.364-13.9,1.358-29.072-3.147-43.245" fill="none" stroke="#000" stroke-miterlimit="10" stroke-width="1"/>
          <rect id="Rectángulo_12" data-name="Rectángulo 12" width="49.019" height="18.382" transform="translate(565.574 249.399)" fill="none" stroke="#000" stroke-miterlimit="10" stroke-width="1"/>
          <path id="Trazado_69" data-name="Trazado 69" d="M614.593,249.4l11.419-9.973V217.165H614.593l-7.939,7.743-8.953-7.743h-15l-8.469,7.5-8.656-8.227h-10.7v22.02l10.7,10.941" fill="none" stroke="#000" stroke-miterlimit="10" stroke-width="1"/>
        </g>
      </g>
      <circle id="Elipse_329" data-name="Elipse 329" cx="3.429" cy="3.429" r="3.429" transform="translate(622.583 213.01)"/>
      <circle id="Elipse_330" data-name="Elipse 330" cx="3.429" cy="3.429" r="3.429" transform="translate(658.781 336.172)"/>
      <circle id="Elipse_331" data-name="Elipse 331" cx="3.429" cy="3.429" r="3.429" transform="translate(560.187 393.755)"/>
      <circle id="Elipse_332" data-name="Elipse 332" cx="3.429" cy="3.429" r="3.429" transform="translate(614.443 393.755)"/>
      <circle id="Elipse_333" data-name="Elipse 333" cx="3.429" cy="3.429" r="3.429" transform="translate(660.027 316.764)"/>
      <circle id="Elipse_334" data-name="Elipse 334" cx="3.429" cy="3.429" r="3.429" transform="translate(665.933 310.859)"/>
      <circle id="Elipse_335" data-name="Elipse 335" cx="3.429" cy="3.429" r="3.429" transform="translate(679.433 317.544)"/>
      <circle id="Elipse_336" data-name="Elipse 336" cx="3.429" cy="3.429" r="3.429" transform="translate(666.879 288.071)"/>
      <circle id="Elipse_337" data-name="Elipse 337" cx="3.429" cy="3.429" r="3.429" transform="translate(638.946 252.463)"/>
      <circle id="Elipse_338" data-name="Elipse 338" cx="3.429" cy="3.429" r="3.429" transform="translate(699.509 351.272)"/>
      <circle id="Elipse_339" data-name="Elipse 339" cx="3.429" cy="3.429" r="3.429" transform="translate(666.132 330.618)"/>
      <circle id="Elipse_340" data-name="Elipse 340" cx="3.429" cy="3.429" r="3.429" transform="translate(611.014 263.567)"/>
      <circle id="Elipse_341" data-name="Elipse 341" cx="3.429" cy="3.429" r="3.429" transform="translate(611.014 245.971)"/>
      <circle id="Elipse_342" data-name="Elipse 342" cx="3.429" cy="3.429" r="3.429" transform="translate(622.583 235.573)"/>
    </g>
    <line id="Línea_108" data-name="Línea 108" x2="10.698" y2="7.476" transform="translate(572.136 209.717)" fill="none" stroke="#000" stroke-miterlimit="10" stroke-width="1"/>
    <line id="Línea_109" data-name="Línea 109" x2="10.698" y2="7.476" transform="translate(544.174 209.272)" fill="none" stroke="#000" stroke-miterlimit="10" stroke-width="1"/>
    <line id="Línea_110" data-name="Línea 110" x2="10.698" y2="7.476" transform="translate(603.895 209.717)" fill="none" stroke="#000" stroke-miterlimit="10" stroke-width="1"/>
    <line id="Línea_111" data-name="Línea 111" x2="10.698" y2="7.476" transform="translate(616.516 210.222)" fill="none" stroke="#000" stroke-miterlimit="10" stroke-width="1"/>
    <line id="Línea_112" data-name="Línea 112" x2="10.698" y2="7.476" transform="translate(615.313 231.216)" fill="none" stroke="#000" stroke-miterlimit="10" stroke-width="1"/>
    <line id="Línea_113" data-name="Línea 113" x2="10.698" y2="7.476" transform="translate(601.974 241.614)" fill="none" stroke="#000" stroke-miterlimit="10" stroke-width="1"/>
    <line id="Línea_114" data-name="Línea 114" x2="10.698" y2="7.476" transform="translate(631.677 248.725)" fill="none" stroke="#000" stroke-miterlimit="10" stroke-width="1"/>
    <line id="Línea_115" data-name="Línea 115" x2="10.698" y2="7.476" transform="translate(691.508 347.534)" fill="none" stroke="#000" stroke-miterlimit="10" stroke-width="1"/>
    <line id="Línea_116" data-name="Línea 116" x2="10.698" y2="7.476" transform="translate(673.527 313.978)" fill="none" stroke="#000" stroke-miterlimit="10" stroke-width="1"/>
    <line id="Línea_117" data-name="Línea 117" x2="10.698" y2="7.476" transform="translate(658.785 283.715)" fill="none" stroke="#000" stroke-miterlimit="10" stroke-width="1"/>
    <line id="Línea_118" data-name="Línea 118" x2="10.698" y2="7.476" transform="translate(552.955 389.399)" fill="none" stroke="#000" stroke-miterlimit="10" stroke-width="1"/>
    <line id="Línea_119" data-name="Línea 119" x2="10.698" y2="7.476" transform="translate(608.044 390.017)" fill="none" stroke="#000" stroke-miterlimit="10" stroke-width="1"/>
    <line id="Línea_120" data-name="Línea 120" x2="10.698" y2="7.476" transform="translate(506.828 334.304)" fill="none" stroke="#000" stroke-miterlimit="10" stroke-width="1"/>
    <line id="Línea_121" data-name="Línea 121" x2="10.698" y2="7.476" transform="translate(528.041 281.859)" fill="none" stroke="#000" stroke-miterlimit="10" stroke-width="1"/>
    <line id="Línea_122" data-name="Línea 122" x2="10.698" y2="7.476" transform="translate(555.379 260.305)" fill="none" stroke="#000" stroke-miterlimit="10" stroke-width="1"/>
  </g>
</svg>
