<svg xmlns="http://www.w3.org/2000/svg" width="198.951" height="199.972" viewBox="0 0 198.951 199.972">
  <g id="Grupo_48" data-name="Grupo 48" transform="translate(-2859.413 -196.873)">
    <g id="Grupo_45" data-name="Grupo 45">
      <g id="Grupo_44" data-name="Grupo 44">
        <path id="Trazado_70" data-name="Trazado 70" d="M2964.018,203.236,2863.372,304.59a11.913,11.913,0,0,0,.03,16.818l60.456,60.457a11.913,11.913,0,0,0,16.924-.077l99.851-101.679a11.909,11.909,0,0,0,3.4-8.811l-2.259-57.979a11.914,11.914,0,0,0-11.458-11.441l-57.4-2.152A11.912,11.912,0,0,0,2964.018,203.236Z" fill="none" stroke="#000" stroke-miterlimit="10" stroke-width="1"/>
        <g id="Grupo_43" data-name="Grupo 43">
          <path id="Trazado_71" data-name="Trazado 71" d="M2981.737,296.15a14.406,14.406,0,0,1-2.311,8.971c-1.362,2.027-.941,3.151.674,4.787,3.049,3.089,3.039,6.409.428,9.011-2.505,2.5-6.043,2.465-8.99-.543-1.775-1.812-2.962-2.029-4.413.08a6.554,6.554,0,0,1-.859.873c-3.65,3.588-7.183,4.043-9.935,1.281s-2.29-6.3,1.313-9.926c2.978-3,5.994-5.959,8.97-8.959,3.336-3.362,3.778-6.745,1.243-9.208-2.491-2.421-5.776-1.888-9.212,1.5-1.65,1.627-3.222,3.34-4.951,4.878a17.837,17.837,0,0,1-23.215.863,17.5,17.5,0,0,1-4.212-22.739c1.106-1.924.995-2.86-.516-4.365-3-2.987-3.206-6.514-.881-9.021,2.5-2.7,6.282-2.76,9.311.435,1.951,2.058,2.819,1.289,4.391-.238,2.957-2.871,6.626-2.95,9.067-.507,2.569,2.572,2.477,5.977-.438,9.05s-6.013,5.941-8.932,9c-2.954,3.091-3.052,6.188-.445,8.6,2.279,2.106,5.61,1.831,8.386-.785,2.182-2.056,4.14-4.371,6.449-6.264,5.665-4.644,12.028-5.485,18.7-2.5C2978.091,283.432,2981.32,288.919,2981.737,296.15Z" fill="none" stroke="#000" stroke-miterlimit="10" stroke-width="1"/>
          <path id="Trazado_72" data-name="Trazado 72" d="M3005.545,220.649a18.138,18.138,0,1,0,18.135,18.069A17.9,17.9,0,0,0,3005.545,220.649Zm-.087,24.041a5.611,5.611,0,0,1-5.869-5.834,5.681,5.681,0,0,1,6.144-6,5.777,5.777,0,0,1,5.734,6.064A5.71,5.71,0,0,1,3005.458,244.69Z" fill="none" stroke="#000" stroke-miterlimit="10" stroke-width="1"/>
        </g>
      </g>
      <circle id="Elipse_343" data-name="Elipse 343" cx="2.845" cy="2.845" r="2.845" transform="translate(2861.703 319.41)"/>
      <circle id="Elipse_344" data-name="Elipse 344" cx="2.845" cy="2.845" r="2.845" transform="translate(2861.703 299.842)"/>
      <circle id="Elipse_345" data-name="Elipse 345" cx="2.845" cy="2.845" r="2.845" transform="translate(2939.955 377.58)"/>
      <circle id="Elipse_346" data-name="Elipse 346" cx="2.845" cy="2.845" r="2.845" transform="translate(2918.295 376.684)"/>
      <circle id="Elipse_347" data-name="Elipse 347" cx="2.845" cy="2.845" r="2.845" transform="translate(2966.297 196.873)"/>
      <circle id="Elipse_348" data-name="Elipse 348" cx="2.845" cy="2.845" r="2.845" transform="translate(3027.639 198.6)"/>
      <circle id="Elipse_349" data-name="Elipse 349" cx="2.845" cy="2.845" r="2.845" transform="translate(3038.373 211.121)"/>
      <circle id="Elipse_350" data-name="Elipse 350" cx="2.845" cy="2.845" r="2.845" transform="translate(3041.202 273.04)"/>
      <circle id="Elipse_351" data-name="Elipse 351" cx="2.845" cy="2.845" r="2.845" transform="translate(2998.608 240.155)"/>
      <circle id="Elipse_352" data-name="Elipse 352" cx="2.845" cy="2.845" r="2.845" transform="translate(2924.767 272.414)"/>
      <circle id="Elipse_353" data-name="Elipse 353" cx="2.845" cy="2.845" r="2.845" transform="translate(2932.818 262.477)"/>
      <circle id="Elipse_354" data-name="Elipse 354" cx="2.845" cy="2.845" r="2.845" transform="translate(2976.75 304.059)"/>
      <circle id="Elipse_355" data-name="Elipse 355" cx="2.845" cy="2.845" r="2.845" transform="translate(2966.382 313.845)"/>
      <circle id="Elipse_356" data-name="Elipse 356" cx="2.845" cy="2.845" r="2.845" transform="translate(2954.075 317.76)"/>
      <circle id="Elipse_357" data-name="Elipse 357" cx="2.845" cy="2.845" r="2.845" transform="translate(2978.689 314.916)"/>
      <circle id="Elipse_358" data-name="Elipse 358" cx="2.845" cy="2.845" r="2.845" transform="translate(2973 280.378)"/>
      <circle id="Elipse_359" data-name="Elipse 359" cx="2.845" cy="2.845" r="2.845" transform="translate(2927.612 296.414)"/>
      <circle id="Elipse_360" data-name="Elipse 360" cx="2.845" cy="2.845" r="2.845" transform="translate(2952.866 293.569)"/>
      <circle id="Elipse_361" data-name="Elipse 361" cx="2.845" cy="2.845" r="2.845" transform="translate(2948.386 281.822)"/>
      <circle id="Elipse_362" data-name="Elipse 362" cx="2.845" cy="2.845" r="2.845" transform="translate(2944.47 259.632)"/>
      <circle id="Elipse_363" data-name="Elipse 363" cx="2.845" cy="2.845" r="2.845" transform="translate(2922.025 260.789)"/>
      <circle id="Elipse_364" data-name="Elipse 364" cx="2.845" cy="2.845" r="2.845" transform="translate(3007.238 231.936)"/>
      <circle id="Elipse_365" data-name="Elipse 365" cx="2.845" cy="2.845" r="2.845" transform="translate(2989.772 223.101)"/>
      <circle id="Elipse_366" data-name="Elipse 366" cx="2.845" cy="2.845" r="2.845" transform="translate(3015.662 248.374)"/>
    </g>
    <g id="Grupo_47" data-name="Grupo 47">
      <g id="Grupo_46" data-name="Grupo 46">
        <path id="Trazado_73" data-name="Trazado 73" d="M2975.491,214.226,2874.845,315.581a11.913,11.913,0,0,0,.029,16.818l60.457,60.456a11.913,11.913,0,0,0,16.924-.077L3052.106,291.1a11.916,11.916,0,0,0,3.4-8.811l-2.259-57.98a11.915,11.915,0,0,0-11.458-11.441l-57.4-2.152A11.911,11.911,0,0,0,2975.491,214.226Z" fill="none" stroke="#000" stroke-miterlimit="10" stroke-width="1"/>
      </g>
      <circle id="Elipse_367" data-name="Elipse 367" cx="2.845" cy="2.845" r="2.845" transform="translate(2873.176 330.4)"/>
      <circle id="Elipse_368" data-name="Elipse 368" cx="2.845" cy="2.845" r="2.845" transform="translate(2873.176 310.832)"/>
      <circle id="Elipse_369" data-name="Elipse 369" cx="2.845" cy="2.845" r="2.845" transform="translate(2951.428 388.57)"/>
      <circle id="Elipse_370" data-name="Elipse 370" cx="2.845" cy="2.845" r="2.845" transform="translate(2929.768 387.674)"/>
      <circle id="Elipse_371" data-name="Elipse 371" cx="2.845" cy="2.845" r="2.845" transform="translate(2977.77 207.863)"/>
      <circle id="Elipse_372" data-name="Elipse 372" cx="2.845" cy="2.845" r="2.845" transform="translate(3039.112 209.59)"/>
      <circle id="Elipse_373" data-name="Elipse 373" cx="2.845" cy="2.845" r="2.845" transform="translate(3049.845 222.111)"/>
      <circle id="Elipse_374" data-name="Elipse 374" cx="2.845" cy="2.845" r="2.845" transform="translate(3052.675 284.03)"/>
    </g>
    <line id="Línea_123" data-name="Línea 123" x2="11.473" y2="10.99" transform="translate(2864.548 302.686)" fill="none" stroke="#000" stroke-miterlimit="10" stroke-width="1"/>
    <line id="Línea_124" data-name="Línea 124" x2="11.473" y2="10.99" transform="translate(2942.649 380.425)" fill="none" stroke="#000" stroke-miterlimit="10" stroke-width="1"/>
    <line id="Línea_125" data-name="Línea 125" x2="11.473" y2="10.99" transform="translate(3041.155 215.154)" fill="none" stroke="#000" stroke-miterlimit="10" stroke-width="1"/>
    <line id="Línea_126" data-name="Línea 126" x2="11.473" y2="10.99" transform="translate(3030.484 202.368)" fill="none" stroke="#000" stroke-miterlimit="10" stroke-width="1"/>
    <line id="Línea_127" data-name="Línea 127" x2="11.473" y2="10.99" transform="translate(2969.142 198.794)" fill="none" stroke="#000" stroke-miterlimit="10" stroke-width="1"/>
    <line id="Línea_128" data-name="Línea 128" x2="25.001" y2="24.04" transform="translate(3017.983 249.558)" fill="none" stroke="#000" stroke-miterlimit="10" stroke-width="1"/>
    <line id="Línea_129" data-name="Línea 129" x1="59.017" y2="25.841" transform="translate(2871.44 299.259)" fill="none" stroke="#000" stroke-miterlimit="10" stroke-width="1"/>
    <line id="Línea_130" data-name="Línea 130" x1="23.513" y2="64.744" transform="translate(2932.818 320.61)" fill="none" stroke="#000" stroke-miterlimit="10" stroke-width="1"/>
    <path id="Trazado_74" data-name="Trazado 74" d="M2947.315,262.477l21.827-62.76,23.475,26.228" fill="none" stroke="#000" stroke-miterlimit="10" stroke-width="1"/>
    <path id="Trazado_75" data-name="Trazado 75" d="M2975.844,283.223l68.2-6.9,11.473,10.99" fill="none" stroke="#000" stroke-miterlimit="10" stroke-width="1"/>
  </g>
</svg>
