<svg xmlns="http://www.w3.org/2000/svg" width="215.49" height="214.951" viewBox="0 0 215.49 214.951">
  <g id="Grupo_30" data-name="Grupo 30" transform="translate(-2090.198 -191.102)">
    <g id="Grupo_27" data-name="Grupo 27">
      <g id="Grupo_26" data-name="Grupo 26">
        <line id="Línea_66" data-name="Línea 66" y2="100.497" transform="translate(2192.734 251.19)" fill="none" stroke="#000" stroke-miterlimit="10" stroke-width="1"/>
        <path id="Trazado_44" data-name="Trazado 44" d="M2178.555,268.176l14.179,14.32,14.18-14.32" fill="none" stroke="#000" stroke-miterlimit="10" stroke-width="1"/>
        <path id="Trazado_45" data-name="Trazado 45" d="M2168.447,290.919l24.287,23.024,23.727-23.024" fill="none" stroke="#000" stroke-miterlimit="10" stroke-width="1"/>
        <path id="Trazado_46" data-name="Trazado 46" d="M2192.735,330.509s-24.569,1.685-34.115-16.566,4.773-43.521,4.773-43.521,14.039-24.709,29.061-36.221a95.725,95.725,0,0,1,28.219,33.975c10.389,21.62,12.128,36.446,5.615,47.171-9.827,16.182-33.553,15.162-33.553,15.162" fill="none" stroke="#000" stroke-miterlimit="10" stroke-width="1"/>
        <path id="Trazado_47" data-name="Trazado 47" d="M2269.023,229.372a99.773,99.773,0,0,0-170.047,98.294c.351.968,1.112,2.909,1.492,3.863l.193-6.262,22.377,3.671a80.884,80.884,0,0,1-8.512-35.24,78.262,78.262,0,0,1,138.058-50.5l-13.076,11,43.254,7.094V217.813Z" fill="none" stroke="#000" stroke-miterlimit="10" stroke-width="1"/>
        <path id="Trazado_48" data-name="Trazado 48" d="M2114.61,357.428a99.773,99.773,0,0,0,170.046-98.294c-.351-.969-1.112-2.909-1.492-3.864l-.192,6.263-22.377-3.671a80.9,80.9,0,0,1,8.511,35.24,78.262,78.262,0,0,1-138.058,50.5l13.076-11L2100.87,325.5v43.483Z" fill="none" stroke="#000" stroke-miterlimit="10" stroke-width="1"/>
      </g>
      <circle id="Elipse_182" data-name="Elipse 182" cx="2.845" cy="2.845" r="2.845" transform="translate(2098.026 321.854)"/>
      <circle id="Elipse_183" data-name="Elipse 183" cx="2.845" cy="2.845" r="2.845" transform="translate(2142.083 330.55)"/>
      <circle id="Elipse_184" data-name="Elipse 184" cx="2.845" cy="2.845" r="2.845" transform="translate(2189.89 390.008)"/>
      <circle id="Elipse_185" data-name="Elipse 185" cx="2.845" cy="2.845" r="2.845" transform="translate(2189.89 191.102)"/>
      <circle id="Elipse_186" data-name="Elipse 186" cx="2.845" cy="2.845" r="2.845" transform="translate(2105.977 237.383)"/>
      <circle id="Elipse_187" data-name="Elipse 187" cx="2.845" cy="2.845" r="2.845" transform="translate(2090.198 282.376)"/>
      <circle id="Elipse_188" data-name="Elipse 188" cx="2.845" cy="2.845" r="2.845" transform="translate(2287.745 290.902)"/>
      <circle id="Elipse_189" data-name="Elipse 189" cx="2.845" cy="2.845" r="2.845" transform="translate(2139.238 376.644)"/>
      <circle id="Elipse_190" data-name="Elipse 190" cx="2.845" cy="2.845" r="2.845" transform="translate(2245.781 207.867)"/>
      <circle id="Elipse_191" data-name="Elipse 191" cx="2.845" cy="2.845" r="2.845" transform="translate(2139.238 205.022)"/>
      <circle id="Elipse_192" data-name="Elipse 192" cx="2.845" cy="2.845" r="2.845" transform="translate(2236.663 376.644)"/>
      <circle id="Elipse_193" data-name="Elipse 193" cx="2.845" cy="2.845" r="2.845" transform="translate(2270.807 345.645)"/>
      <circle id="Elipse_194" data-name="Elipse 194" cx="2.845" cy="2.845" r="2.845" transform="translate(2165.603 288.074)"/>
      <circle id="Elipse_195" data-name="Elipse 195" cx="2.845" cy="2.845" r="2.845" transform="translate(2175.711 265.331)"/>
      <circle id="Elipse_196" data-name="Elipse 196" cx="2.845" cy="2.845" r="2.845" transform="translate(2204.07 265.331)"/>
      <circle id="Elipse_197" data-name="Elipse 197" cx="2.845" cy="2.845" r="2.845" transform="translate(2213.616 288.074)"/>
      <circle id="Elipse_198" data-name="Elipse 198" cx="2.845" cy="2.845" r="2.845" transform="translate(2098.026 366.142)"/>
      <circle id="Elipse_199" data-name="Elipse 199" cx="2.845" cy="2.845" r="2.845" transform="translate(2189.89 348.842)"/>
      <circle id="Elipse_200" data-name="Elipse 200" cx="2.845" cy="2.845" r="2.845" transform="translate(2236.663 251.357)"/>
      <circle id="Elipse_201" data-name="Elipse 201" cx="2.845" cy="2.845" r="2.845" transform="translate(2279.917 214.512)"/>
      <circle id="Elipse_202" data-name="Elipse 202" cx="2.845" cy="2.845" r="2.845" transform="translate(2279.917 259.893)"/>
      <circle id="Elipse_203" data-name="Elipse 203" cx="2.845" cy="2.845" r="2.845" transform="translate(2189.89 311.098)"/>
      <circle id="Elipse_204" data-name="Elipse 204" cx="2.845" cy="2.845" r="2.845" transform="translate(2189.609 279.531)"/>
      <circle id="Elipse_205" data-name="Elipse 205" cx="2.845" cy="2.845" r="2.845" transform="translate(2189.89 248.345)"/>
      <circle id="Elipse_206" data-name="Elipse 206" cx="2.845" cy="2.845" r="2.845" transform="translate(2189.609 232.353)"/>
    </g>
    <g id="Grupo_29" data-name="Grupo 29">
      <g id="Grupo_28" data-name="Grupo 28">
        <path id="Trazado_49" data-name="Trazado 49" d="M2281.276,239.727a99.773,99.773,0,0,0-170.046,98.294c.351.969,1.112,2.909,1.491,3.864l.193-6.262,22.377,3.67a80.9,80.9,0,0,1-8.511-35.24,78.262,78.262,0,0,1,138.057-50.5l-13.076,11,43.254,7.094V228.168Z" fill="none" stroke="#000" stroke-miterlimit="10" stroke-width="1"/>
        <path id="Trazado_50" data-name="Trazado 50" d="M2126.863,367.784a99.773,99.773,0,0,0,170.046-98.295c-.35-.968-1.111-2.909-1.491-3.863l-.193,6.262-22.377-3.67a80.889,80.889,0,0,1,8.511,35.239,78.262,78.262,0,0,1-138.057,50.5l13.076-11-43.254-7.1v43.483Z" fill="none" stroke="#000" stroke-miterlimit="10" stroke-width="1"/>
      </g>
      <circle id="Elipse_207" data-name="Elipse 207" cx="2.845" cy="2.845" r="2.845" transform="translate(2110.279 332.209)"/>
      <circle id="Elipse_208" data-name="Elipse 208" cx="2.845" cy="2.845" r="2.845" transform="translate(2154.336 340.905)"/>
      <circle id="Elipse_209" data-name="Elipse 209" cx="2.845" cy="2.845" r="2.845" transform="translate(2202.144 400.364)"/>
      <circle id="Elipse_210" data-name="Elipse 210" cx="2.845" cy="2.845" r="2.845" transform="translate(2202.144 201.457)"/>
      <circle id="Elipse_211" data-name="Elipse 211" cx="2.845" cy="2.845" r="2.845" transform="translate(2118.23 247.739)"/>
      <circle id="Elipse_212" data-name="Elipse 212" cx="2.845" cy="2.845" r="2.845" transform="translate(2102.451 292.731)"/>
      <circle id="Elipse_213" data-name="Elipse 213" cx="2.845" cy="2.845" r="2.845" transform="translate(2299.999 301.257)"/>
      <circle id="Elipse_214" data-name="Elipse 214" cx="2.845" cy="2.845" r="2.845" transform="translate(2151.492 386.999)"/>
      <circle id="Elipse_215" data-name="Elipse 215" cx="2.845" cy="2.845" r="2.845" transform="translate(2258.034 218.222)"/>
      <circle id="Elipse_216" data-name="Elipse 216" cx="2.845" cy="2.845" r="2.845" transform="translate(2151.492 215.377)"/>
      <circle id="Elipse_217" data-name="Elipse 217" cx="2.845" cy="2.845" r="2.845" transform="translate(2248.917 386.999)"/>
      <circle id="Elipse_218" data-name="Elipse 218" cx="2.845" cy="2.845" r="2.845" transform="translate(2283.06 356)"/>
      <circle id="Elipse_219" data-name="Elipse 219" cx="2.845" cy="2.845" r="2.845" transform="translate(2110.279 376.497)"/>
      <circle id="Elipse_220" data-name="Elipse 220" cx="2.845" cy="2.845" r="2.845" transform="translate(2248.917 261.712)"/>
      <circle id="Elipse_221" data-name="Elipse 221" cx="2.845" cy="2.845" r="2.845" transform="translate(2292.171 224.868)"/>
      <circle id="Elipse_222" data-name="Elipse 222" cx="2.845" cy="2.845" r="2.845" transform="translate(2292.171 270.249)"/>
    </g>
    <line id="Línea_67" data-name="Línea 67" x2="12.254" y2="10.355" transform="translate(2100.87 368.987)" fill="none" stroke="#000" stroke-miterlimit="10" stroke-width="1"/>
    <line id="Línea_68" data-name="Línea 68" x2="12.254" y2="10.355" transform="translate(2102.014 326.352)" fill="none" stroke="#000" stroke-miterlimit="10" stroke-width="1"/>
    <line id="Línea_69" data-name="Línea 69" x2="12.254" y2="10.355" transform="translate(2144.928 333.395)" fill="none" stroke="#000" stroke-miterlimit="10" stroke-width="1"/>
    <line id="Línea_70" data-name="Línea 70" x2="12.254" y2="10.355" transform="translate(2093.042 285.724)" fill="none" stroke="#000" stroke-miterlimit="10" stroke-width="1"/>
    <line id="Línea_71" data-name="Línea 71" x2="12.254" y2="10.355" transform="translate(2108.821 240.228)" fill="none" stroke="#000" stroke-miterlimit="10" stroke-width="1"/>
    <line id="Línea_72" data-name="Línea 72" x2="12.254" y2="10.355" transform="translate(2141.123 207.147)" fill="none" stroke="#000" stroke-miterlimit="10" stroke-width="1"/>
    <line id="Línea_73" data-name="Línea 73" x2="12.254" y2="10.355" transform="translate(2194.029 194.667)" fill="none" stroke="#000" stroke-miterlimit="10" stroke-width="1"/>
    <line id="Línea_74" data-name="Línea 74" x2="12.254" y2="10.355" transform="translate(2141.646 379.488)" fill="none" stroke="#000" stroke-miterlimit="10" stroke-width="1"/>
    <line id="Línea_75" data-name="Línea 75" x2="12.254" y2="10.355" transform="translate(2192.729 392.853)" fill="none" stroke="#000" stroke-miterlimit="10" stroke-width="1"/>
    <line id="Línea_76" data-name="Línea 76" x2="12.254" y2="10.355" transform="translate(2239.508 379.488)" fill="none" stroke="#000" stroke-miterlimit="10" stroke-width="1"/>
    <line id="Línea_77" data-name="Línea 77" x2="12.254" y2="10.355" transform="translate(2273.79 349.354)" fill="none" stroke="#000" stroke-miterlimit="10" stroke-width="1"/>
    <line id="Línea_78" data-name="Línea 78" x2="12.254" y2="10.355" transform="translate(2290.59 293.764)" fill="none" stroke="#000" stroke-miterlimit="10" stroke-width="1"/>
    <line id="Línea_79" data-name="Línea 79" x2="12.254" y2="10.355" transform="translate(2282.762 262.224)" fill="none" stroke="#000" stroke-miterlimit="10" stroke-width="1"/>
    <line id="Línea_80" data-name="Línea 80" x2="12.254" y2="10.355" transform="translate(2239.508 254.716)" fill="none" stroke="#000" stroke-miterlimit="10" stroke-width="1"/>
    <line id="Línea_81" data-name="Línea 81" x2="12.254" y2="10.355" transform="translate(2283.413 217.357)" fill="none" stroke="#000" stroke-miterlimit="10" stroke-width="1"/>
  </g>
</svg>
