<svg xmlns="http://www.w3.org/2000/svg" width="21.271" height="24.553" viewBox="0 0 21.271 24.553">
  <path id="Trazado_1674" data-name="Trazado 1674" d="M-557.042,308.9a.927.927,0,0,0-.913-.942h-.015a14.279,14.279,0,0,1-9.147-2.66l0,.005,0-.005a.927.927,0,0,0-1.134,0l0,.008-.006-.008a14.265,14.265,0,0,1-9.131,2.66h0a.927.927,0,0,0-.925.928s0,.009,0,.014h0a76.648,76.648,0,0,0,.62,9.843A12.569,12.569,0,0,0-575.929,324a9.836,9.836,0,0,0,3.219,2.817c1.256.751,2.736,1.506,4.513,2.69h0a.925.925,0,0,0,1.027,0h0c1.777-1.184,3.258-1.939,4.516-2.691A9.862,9.862,0,0,0-559.43,324a12.569,12.569,0,0,0,1.764-5.251,76.352,76.352,0,0,0,.623-9.844Zm-2.453,9.56a10.825,10.825,0,0,1-1.47,4.5,7.347,7.347,0,0,1-2.64,2.264c-1.091.653-2.444,1.354-4.078,2.4-1.635-1.049-2.986-1.749-4.076-2.4a7.3,7.3,0,0,1-2.635-2.263,10.852,10.852,0,0,1-1.466-4.5,68.765,68.765,0,0,1-.581-8.649,15.71,15.71,0,0,0,8.757-2.633,15.73,15.73,0,0,0,8.772,2.633A68.5,68.5,0,0,1-559.5,318.461Z" transform="translate(578.313 -305.106)" fill="#3a3a3a"/>
</svg>
