<svg xmlns="http://www.w3.org/2000/svg" width="21.597" height="13.186" viewBox="0 0 21.597 13.186">
  <path id="Trazado_1673" data-name="Trazado 1673" d="M258.374,215.552a9.171,9.171,0,0,1,12.749,0l.424.417a.429.429,0,0,1,0,.622l-1.448,1.414a.227.227,0,0,1-.321,0l-.581-.567a6.4,6.4,0,0,0-8.9,0l-.622.608a.227.227,0,0,1-.321,0l-1.448-1.414a.429.429,0,0,1,0-.622Zm15.748,2.924,1.291,1.257a.429.429,0,0,1,0,.622l-5.814,5.678a.458.458,0,0,1-.635,0h0L264.837,222a.116.116,0,0,0-.157,0h0l-4.127,4.031a.458.458,0,0,1-.635,0h0l-5.835-5.678a.429.429,0,0,1,0-.622l1.291-1.257a.458.458,0,0,1,.635,0l4.127,4.031a.116.116,0,0,0,.157,0h0l4.127-4.031a.458.458,0,0,1,.635,0h0l4.127,4.031a.116.116,0,0,0,.157,0l4.127-4.031a.484.484,0,0,1,.656,0Z" transform="translate(-253.95 -212.975)" fill="#3a3a3a"/>
</svg>
