<svg xmlns="http://www.w3.org/2000/svg" width="27.292" height="25.193" viewBox="0 0 27.292 25.193">
  <g id="Grupo_139" data-name="Grupo 139" transform="translate(-1227.729 -26.403)">
    <path id="Trazado_1653" data-name="Trazado 1653" d="M26.731,11.25H7.311a3.939,3.939,0,0,0-3.936,3.936V26.208a3.939,3.939,0,0,0,3.936,3.936H26.731a3.939,3.939,0,0,0,3.936-3.936V15.186A3.939,3.939,0,0,0,26.731,11.25Z" transform="translate(1224.354 21.452)" fill="#fff"/>
    <path id="Trazado_1654" data-name="Trazado 1654" d="M22.8,4.566,7.387,7.577C6.206,7.839,4.5,9.027,4.5,10.47A4.134,4.134,0,0,1,7.715,9.224H26.544V7.879a3.767,3.767,0,0,0-.912-2.467h0A3.1,3.1,0,0,0,22.8,4.566Z" transform="translate(1224.279 21.904)" fill="#fff"/>
  </g>
</svg>
