<svg xmlns="http://www.w3.org/2000/svg" width="36.397" height="44.696"><path data-name="Apple Logo" d="M4.7 39.04C.859 33.489-2.075 23.355 1.867 16.517a10.938 10.938 0 0 1 9.247-5.605c2.886-.051 5.613 1.947 7.374 1.947s5.079-2.4 8.558-2.049a10.437 10.437 0 0 1 8.175 4.426 10.124 10.124 0 0 0-4.826 8.515 9.87 9.87 0 0 0 6 9.039 24.738 24.738 0 0 1-3.1 6.359c-1.863 2.723-3.794 5.432-6.838 5.487-3 .059-3.956-1.774-7.38-1.774s-4.492 1.72-7.323 1.833h-.157C8.742 44.7 6.548 41.7 4.7 39.04ZM18.138 10.3a9.369 9.369 0 0 1 2.371-6.915A10.024 10.024 0 0 1 27.1 0a9.854 9.854 0 0 1-2.327 7.135 8.481 8.481 0 0 1-6.181 3.183q-.226-.001-.45-.018Z" fill="#fff"/></svg>