<svg xmlns="http://www.w3.org/2000/svg" width="131.202" height="78.227"><g data-name="Grupo 4533" transform="translate(-445.956 -26.951)"><path data-name="Rectángulo 511" fill="none" stroke="#000" stroke-miterlimit="10" d="M447.96 29.267h122.614v69.861H447.96z"/><path data-name="Rectángulo 512" fill="none" stroke="#000" stroke-miterlimit="10" d="M452.274 33.249h122.614v69.861H452.274z"/><path data-name="Línea 40" fill="none" stroke="#000" stroke-miterlimit="10" d="m447.96 29.267 4.313 3.981"/><path data-name="Línea 41" fill="none" stroke="#000" stroke-miterlimit="10" d="m570.574 29.267 4.313 3.981"/><path data-name="Línea 42" fill="none" stroke="#000" stroke-miterlimit="10" d="m447.96 99.129 4.313 3.981"/><path data-name="Línea 43" fill="none" stroke="#000" stroke-miterlimit="10" d="m570.574 99.129 4.313 3.981"/><circle data-name="Elipse 20" cx="2.227" cy="2.227" r="2.227" transform="translate(445.956 26.951)"/><circle data-name="Elipse 21" cx="2.227" cy="2.227" r="2.227" transform="translate(450.447 31.308)"/><circle data-name="Elipse 22" cx="2.227" cy="2.227" r="2.227" transform="translate(445.956 96.367)"/><circle data-name="Elipse 23" cx="2.227" cy="2.227" r="2.227" transform="translate(450.447 100.725)"/><circle data-name="Elipse 24" cx="2.227" cy="2.227" r="2.227" transform="translate(568.213 96.367)"/><circle data-name="Elipse 25" cx="2.227" cy="2.227" r="2.227" transform="translate(572.705 100.725)"/><circle data-name="Elipse 26" cx="2.227" cy="2.227" r="2.227" transform="translate(567.679 26.951)"/><circle data-name="Elipse 27" cx="2.227" cy="2.227" r="2.227" transform="translate(572.17 31.308)"/></g></svg>