<svg xmlns="http://www.w3.org/2000/svg" width="112.57" height="86.334"><g data-name="Grupo 4532"><g data-name="Grupo 4531" transform="translate(-282.839 -25.675)"><path data-name="Trazado 2410" d="M343.587 110.133 307.632 76.6 304.4 54.285l21.81-20.236 14.678 2.559 7.945 9.157 12.481-8.582 13.928-1.261 18.347 22.248-7.416 27.178Z" fill="none" stroke="#000" stroke-miterlimit="10"/><path data-name="Trazado 2411" d="m324.339 103.955-35.954-33.531-3.227-22.317 21.81-20.237 14.678 2.559 7.945 9.157L342.072 31 356 29.743l18.347 22.248-7.416 27.178Z" fill="none" stroke="#000" stroke-miterlimit="10"/><path data-name="Línea 33" fill="none" stroke="#000" stroke-miterlimit="10" d="m329.591 39.586 19.248 6.178"/><path data-name="Trazado 2412" d="m356 29.743 19.248 6.178L342.072 31" fill="none" stroke="#000" stroke-miterlimit="10"/><path data-name="Línea 34" fill="none" stroke="#000" stroke-miterlimit="10" d="m374.347 51.991 19.248 6.178"/><path data-name="Línea 35" fill="none" stroke="#000" stroke-miterlimit="10" d="m366.931 79.168 19.248 6.178"/><path data-name="Línea 36" fill="none" stroke="#000" stroke-miterlimit="10" d="m324.339 103.955 19.248 6.178"/><path data-name="Línea 37" fill="none" stroke="#000" stroke-miterlimit="10" d="m288.385 70.424 19.248 6.178"/><path data-name="Línea 38" fill="none" stroke="#000" stroke-miterlimit="10" d="m284.475 48.277 19.93 6.007"/><path data-name="Línea 39" fill="none" stroke="#000" stroke-miterlimit="10" d="m306.968 27.87 19.248 6.178"/><circle data-name="Elipse 1" cx="2.227" cy="2.227" r="2.227" transform="translate(304.764 25.675)"/><circle data-name="Elipse 2" cx="2.227" cy="2.227" r="2.227" transform="translate(323.431 32.156)"/><circle data-name="Elipse 3" cx="2.227" cy="2.227" r="2.227" transform="translate(338.583 34.31)"/><circle data-name="Elipse 4" cx="2.227" cy="2.227" r="2.227" transform="translate(327.175 37.421)"/><circle data-name="Elipse 5" cx="2.227" cy="2.227" r="2.227" transform="translate(346.361 43.774)"/><circle data-name="Elipse 6" cx="2.227" cy="2.227" r="2.227" transform="translate(340.139 29.125)"/><circle data-name="Elipse 7" cx="2.227" cy="2.227" r="2.227" transform="translate(354.139 27.569)"/><circle data-name="Elipse 8" cx="2.227" cy="2.227" r="2.227" transform="translate(372.548 33.403)"/><circle data-name="Elipse 9" cx="2.227" cy="2.227" r="2.227" transform="translate(359.714 35.218)"/><circle data-name="Elipse 10" cx="2.227" cy="2.227" r="2.227" transform="translate(372.159 50.256)"/><circle data-name="Elipse 11" cx="2.227" cy="2.227" r="2.227" transform="translate(390.956 55.83)"/><circle data-name="Elipse 12" cx="2.227" cy="2.227" r="2.227" transform="translate(383.956 82.924)"/><circle data-name="Elipse 13" cx="2.227" cy="2.227" r="2.227" transform="translate(364.381 76.572)"/><circle data-name="Elipse 14" cx="2.227" cy="2.227" r="2.227" transform="translate(322.249 101.332)"/><circle data-name="Elipse 15" cx="2.227" cy="2.227" r="2.227" transform="translate(341.435 107.555)"/><circle data-name="Elipse 16" cx="2.227" cy="2.227" r="2.227" transform="translate(305.137 74.109)"/><circle data-name="Elipse 17" cx="2.227" cy="2.227" r="2.227" transform="translate(286.21 68.534)"/><circle data-name="Elipse 18" cx="2.227" cy="2.227" r="2.227" transform="translate(282.839 45.848)"/><circle data-name="Elipse 19" cx="2.227" cy="2.227" r="2.227" transform="translate(302.155 51.941)"/></g></g></svg>