<svg xmlns="http://www.w3.org/2000/svg" width="51.915" height="51.915" viewBox="0 0 51.915 51.915">
  <path id="Icon" d="M1420-624.042A25.987,25.987,0,0,1,1445.958-650a25.987,25.987,0,0,1,25.958,25.958,25.988,25.988,0,0,1-25.958,25.958A25.987,25.987,0,0,1,1420-624.042Zm2.966,0a23.017,23.017,0,0,0,22.991,22.991,23.017,23.017,0,0,0,22.991-22.991,23.017,23.017,0,0,0-22.991-22.991A23.017,23.017,0,0,0,1422.967-624.042Zm21.738,10.606c-5.785-5.118-9.568-8.567-9.568-12.794a6.032,6.032,0,0,1,6.119-6.119,6.688,6.688,0,0,1,5.006,2.336,6.686,6.686,0,0,1,5.006-2.336,6.031,6.031,0,0,1,6.118,6.119c0,4.116-3.893,7.565-9.567,12.794l-1.557,1.446Zm-7.343-12.794c0,3.226,3.449,6.341,8.789,11.125l.111.111h.111c5.339-4.895,8.788-8.01,8.788-11.236a3.8,3.8,0,0,0-3.894-3.893,4.241,4.241,0,0,0-3.894,2.67h-2.113a4.518,4.518,0,0,0-4-2.67A3.8,3.8,0,0,0,1437.361-626.23Z" transform="translate(-1420 650)" fill="#3a3a3a"/>
</svg>
