<svg xmlns="http://www.w3.org/2000/svg" width="246.866" height="45.947"><g data-name="Grupo 4397" fill="#3a3a3a"><path data-name="Trazado 1655" d="M167.728 41.872a6.224 6.224 0 0 1-1.467 2.138 6.937 6.937 0 0 1-2.262 1.419 7.8 7.8 0 0 1-2.886.518h-4.66V32.524h4.66a7.937 7.937 0 0 1 2.886.508 6.821 6.821 0 0 1 2.262 1.409 6.251 6.251 0 0 1 1.467 2.128 7.043 7.043 0 0 1 0 5.3m-1.448-4.708a5.014 5.014 0 0 0-1.112-1.7 5.132 5.132 0 0 0-1.754-1.131 6.17 6.17 0 0 0-2.3-.412h-3.145v10.623h3.145a6.308 6.308 0 0 0 2.3-.4 4.951 4.951 0 0 0 2.866-2.8 5.458 5.458 0 0 0 .393-2.09 5.554 5.554 0 0 0-.393-2.09"/><path data-name="Trazado 1656" d="M179.762.644v3.084a.588.588 0 0 1-.561.612h-9.917a.588.588 0 0 0-.56.611v19.5a.588.588 0 0 1-.561.611h-3.145a.588.588 0 0 1-.561-.611V4.78a4.747 4.747 0 0 1 4.747-4.747h10a.59.59 0 0 1 .562.612m-14.03-.612h-8.357a.587.587 0 0 0-.559.612v3.084a.587.587 0 0 0 .559.612h3.291a1.2 1.2 0 0 0 1.148-.878 4.752 4.752 0 0 1 4.076-3.405.467.467 0 0 0-.158-.025"/><path data-name="Trazado 1657" d="M30.137 12.465v.116c0 6.883-5.3 12.463-11.845 12.463H3.529a.6.6 0 0 1-.582-.613v-3.083a.6.6 0 0 1 .582-.613h14.334c4.61 0 7.818-3.747 7.818-8.226a8.03 8.03 0 0 0-7.818-8.226H3.529a.6.6 0 0 1-.582-.613V.614a.6.6 0 0 1 .582-.613h14.765c6.542 0 11.845 5.58 11.845 12.463"/><path data-name="Trazado 1658" d="M37.246.604v23.835a.574.574 0 0 1-.549.6h-3.2a.574.574 0 0 1-.549-.6V.604a.575.575 0 0 1 .549-.6h3.2a.575.575 0 0 1 .549.6"/><path data-name="Trazado 1659" d="M67.061 17.554v.376a7.456 7.456 0 0 1-1.806 5.045 5.545 5.545 0 0 1-4.341 2.091H40.958a.585.585 0 0 1-.559-.61v-3.021a.624.624 0 0 1 .595-.648h19.354c2.4 0 2.541-2.867 2.491-3.5-.047-.6-.477-2.586-2.3-2.586l-13.66.015c-3.578 0-6.481-3.159-6.481-7.061v-.561c0-3.9 2.9-7.061 6.474-7.061h19.6a.624.624 0 0 1 .595.653l-.018 3.009a.623.623 0 0 1-.595.644H47.487a3.053 3.053 0 0 0 0 6.083h12.861c6.135 0 6.713 5.354 6.713 7.133"/><path data-name="Trazado 1660" d="M95.477 24.333a.419.419 0 0 1-.269.7h-4.374a1.744 1.744 0 0 1-1.267-.558l-5.214-5.494a1.482 1.482 0 0 0-.928-.442l-9.15-.006a.588.588 0 0 0-.56.611v5.307a.588.588 0 0 1-.561.611h-3.176a.587.587 0 0 1-.56-.611v-5.723a4.474 4.474 0 0 1 4.474-4.475h15.075c2.4 0 2.891-3.581 2.891-4.958 0-2.925-.876-4.958-2.7-4.958H70.107a.69.69 0 0 1-.69-.69V.641a.588.588 0 0 1 .56-.611h19.57c3.751 0 6.527 3.629 6.527 9.264 0 2.376-.99 8.151-5.546 9.1a.233.233 0 0 0-.089.367Z"/><path data-name="Trazado 1661" d="M124.896.613v12.753a11.669 11.669 0 0 1-11.673 11.667h-2.885a11.669 11.669 0 0 1-11.669-11.668V.617a.588.588 0 0 1 .56-.612h3.175a.587.587 0 0 1 .562.611v12.248a8.264 8.264 0 0 0 8.02 8.423h1.553a8.267 8.267 0 0 0 8.023-8.477l.005-12.192a.588.588 0 0 1 .56-.613h3.2a.588.588 0 0 1 .561.613"/><path data-name="Trazado 1662" d="M185.919.604v23.835a.574.574 0 0 1-.549.6h-3.2a.574.574 0 0 1-.549-.6V.604a.575.575 0 0 1 .549-.6h3.2a.575.575 0 0 1 .549.6"/><path data-name="Trazado 1663" d="m218.675.539-7.829 19.066c-1.827 4.447-6.693 6.773-11.239 4.609a8.856 8.856 0 0 1-4.274-4.872L187.996.533a.38.38 0 0 1 .322-.531h3.935a.99.99 0 0 1 .911.665l6.512 17.18a3.991 3.991 0 0 0 7.6-.033L213.628.676a.991.991 0 0 1 .915-.672h3.809a.38.38 0 0 1 .321.537"/><path data-name="Trazado 1664" d="M246.866.792q-.009 1.377-.024 2.75a.78.78 0 0 1-.78.771h-25.279a.684.684 0 0 1-.684-.684V.662a.661.661 0 0 1 .661-.66h25.325a.781.781 0 0 1 .781.785m-.215 20.754-.036 2.723a.779.779 0 0 1-.778.769h-25.175a.59.59 0 0 1-.562-.614v-8.852a5.177 5.177 0 0 1 5.177-5.177h13.465a.778.778 0 0 1 .778.787c-.009.909-.016 1.816-.027 2.725a.778.778 0 0 1-.779.769l-13.268-.015a1.024 1.024 0 0 0-1.025 1.019l-.023 4.466a.59.59 0 0 0 .562.614h20.911a.777.777 0 0 1 .778.787"/><path data-name="Trazado 1665" d="M147.659.032h-19.575a.586.586 0 0 0-.559.608v23.813a.584.584 0 0 0 .559.608h3.175a.59.59 0 0 0 .563-.612v-5.306a.587.587 0 0 1 .559-.612l14.934.011c5.7 0 6.867-6.656 6.867-9.248 0-5.637-2.774-9.266-6.526-9.266m-.584 14.22h-15.071a1.438 1.438 0 0 0-.176.007V4.332h15.444c1.821 0 2.7 2.032 2.7 4.958 0 1.378-.485 4.958-2.891 4.958"/><path data-name="Trazado 1666" d="M78.62 32.524h1.515v12.023h7.556v1.4h-9.07Z"/><path data-name="Trazado 1667" d="M114.877 45.947h-1.629l-1.573-3.547h-7.298l-1.592 3.547h-1.553l6.117-13.519h1.419Zm-6.845-11.735-3.068 6.846h6.117Z"/><path data-name="Trazado 1668" d="M139.291 32.524h1.476v13.423h-1.208l-8.667-11.007v11.007h-1.477V32.524h1.419l8.456 10.758Z"/><path data-name="Trazado 1669" d="M.038 9.675A.167.167 0 0 1 0 9.587a.159.159 0 0 1 .062-.12l1.341-1.309.065-.049c.012 0 .041 0 .089.047l4.281 4.3a.208.208 0 0 1 .055.074.159.159 0 0 1-.054.085l-4.291 4.283c-.006.006-.022.022-.08.022a.135.135 0 0 1-.1-.039l-1.309-1.31a.923.923 0 0 1-.044-.089l.016-.052 2.854-2.893Z"/></g></svg>