<svg xmlns="http://www.w3.org/2000/svg" width="23.912" height="19.432" viewBox="0 0 23.912 19.432">
  <path id="Twitter" d="M27.486,12.626a9.761,9.761,0,0,1-2.818.772,4.915,4.915,0,0,0,2.157-2.714,9.82,9.82,0,0,1-3.115,1.191,4.91,4.91,0,0,0-8.359,4.474A13.929,13.929,0,0,1,5.239,11.224a4.912,4.912,0,0,0,1.518,6.55,4.892,4.892,0,0,1-2.222-.614c0,.02,0,.041,0,.062a4.91,4.91,0,0,0,3.936,4.81,4.932,4.932,0,0,1-1.293.172,4.861,4.861,0,0,1-.923-.088,4.911,4.911,0,0,0,4.583,3.407,9.9,9.9,0,0,1-7.263,2.031A13.952,13.952,0,0,0,25.052,15.8q0-.319-.014-.635A9.936,9.936,0,0,0,27.486,12.626Z" transform="translate(-3.574 -10.326)" fill="#f6fbfd"/>
</svg>
