<svg xmlns="http://www.w3.org/2000/svg" width="38.575" height="91.652"><g data-name="Grupo 4656"><g data-name="Grupo 4656" fill="none" stroke="#000" stroke-linecap="round" stroke-linejoin="round"><path data-name="Trazado 2429" d="m33.013 15.124-13.258-2.367-11.364 4.735-3.314 8.049 3.788 9 22.254 11.837 2.841 9.47-4.735 9.47-9.943 4.261-17.046-3.788"/><path data-name="Línea 79" d="M19.282 1.877v81.429"/></g><g data-name="Grupo 4657" fill="none" stroke="#000" stroke-linecap="round" stroke-linejoin="round"><path data-name="Trazado 2430" d="m32.28 15.137 3.34 6.628-13.258-2.367-11.364 4.735-3.314 8.049 3.788 9 22.254 11.837 2.841 9.47-4.735 9.47-9.943 4.261-17.046-3.788-2.625-6.606"/><path data-name="Trazado 2431" d="m19.282 1.877 2.607 6.637v81.429l-2.768-7.222"/></g><g data-name="Grupo 4658"><circle data-name="Elipse 99" cx="2.218" cy="2.218" r="2.218" transform="translate(30.306 12.891)"/><circle data-name="Elipse 100" cx="2.218" cy="2.218" r="2.218" transform="translate(17.244 10.927)"/><circle data-name="Elipse 101" cx="2.218" cy="2.218" r="2.218" transform="translate(6.061 15.281)"/><circle data-name="Elipse 102" cx="2.218" cy="2.218" r="2.218" transform="translate(2.732 22.879)"/><circle data-name="Elipse 103" cx="2.218" cy="2.218" r="2.218" transform="translate(6.488 32.013)"/><circle data-name="Elipse 104" cx="2.218" cy="2.218" r="2.218" transform="translate(16.732 37.989)"/><circle data-name="Elipse 105" cx="2.218" cy="2.218" r="2.218" transform="translate(28.598 44.391)"/><circle data-name="Elipse 106" cx="2.218" cy="2.218" r="2.218" transform="translate(31.415 52.289)"/><circle data-name="Elipse 107" cx="2.218" cy="2.218" r="2.218" transform="translate(19.921 44.704)"/><circle data-name="Elipse 108" cx="2.218" cy="2.218" r="2.218" transform="translate(9.019 39.609)"/><circle data-name="Elipse 109" cx="2.218" cy="2.218" r="2.218" transform="translate(8.9 21.597)"/><circle data-name="Elipse 110" cx="2.218" cy="2.218" r="2.218" transform="translate(20.276 17.331)"/><circle data-name="Elipse 111" cx="2.218" cy="2.218" r="2.218" transform="translate(32.719 19.938)"/><circle data-name="Elipse 112" cx="2.218" cy="2.218" r="2.218" transform="translate(26.891 62.916)"/><circle data-name="Elipse 113" cx="2.218" cy="2.218" r="2.218" transform="translate(17.074 66.843)"/><circle data-name="Elipse 114" cx="2.218" cy="2.218" r="2.218" transform="translate(2.498 70.872)"/><circle data-name="Elipse 115" cx="2.218" cy="2.218" r="2.218" transform="translate(29.279 69.569)"/><circle data-name="Elipse 116" cx="2.218" cy="2.218" r="2.218" transform="translate(20.155 74.072)"/><circle data-name="Elipse 117" cx="2.218" cy="2.218" r="2.218" transform="translate(34.138 60.326)"/><circle data-name="Elipse 118" cx="2.218" cy="2.218" r="2.218" transform="translate(0 63.599)"/><circle data-name="Elipse 119" cx="2.218" cy="2.218" r="2.218" transform="translate(16.903 80.502)"/><circle data-name="Elipse 120" cx="2.218" cy="2.218" r="2.218" transform="translate(19.278 87.215)"/><circle data-name="Elipse 121" cx="2.218" cy="2.218" r="2.218" transform="translate(16.903)"/><circle data-name="Elipse 122" cx="2.218" cy="2.218" r="2.218" transform="translate(19.767 5.989)"/></g><path data-name="Línea 80" fill="none" stroke="#000" stroke-linecap="round" stroke-linejoin="round" d="m10.998 24.128-3.011-6.625"/><path data-name="Línea 81" fill="none" stroke="#000" stroke-linecap="round" stroke-linejoin="round" d="m22.362 19.394-2.999-6.512"/><path data-name="Línea 82" fill="none" stroke="#000" stroke-linecap="round" stroke-linejoin="round" d="M21.97 46.655 18.889 39.9"/><path data-name="Línea 83" fill="none" stroke="#000" stroke-linecap="round" stroke-linejoin="round" d="m31.832 71.95-2.723-6.815"/><path data-name="Línea 84" fill="none" stroke="#000" stroke-linecap="round" stroke-linejoin="round" d="m21.889 76.212-2.597-7.15"/></g></svg>