<svg xmlns="http://www.w3.org/2000/svg" width="29.35" height="20.637" viewBox="0 0 29.35 20.637">
  <path id="Icon_awesome-youtube" data-name="Icon awesome-youtube" d="M29.787,7.729a3.688,3.688,0,0,0-2.595-2.612C24.9,4.5,15.725,4.5,15.725,4.5s-9.178,0-11.467.617A3.688,3.688,0,0,0,1.663,7.729a38.686,38.686,0,0,0-.613,7.11,38.686,38.686,0,0,0,.613,7.11,3.633,3.633,0,0,0,2.595,2.57c2.289.617,11.467.617,11.467.617s9.178,0,11.467-.617a3.633,3.633,0,0,0,2.595-2.57,38.687,38.687,0,0,0,.613-7.11,38.687,38.687,0,0,0-.613-7.11ZM12.723,19.2V10.475l7.671,4.364L12.723,19.2Z" transform="translate(-1.05 -4.5)" fill="#f6fbfd"/>
</svg>
